M48
;Layer_Color=9474304
;FILE_FORMAT=2:5
INCH
;TYPE=PLATED
T1F00S00C0.01181
T2F00S00C0.01500
T4F00S00C0.02800
T5F00S00C0.03150
T6F00S00C0.03500
T7F00S00C0.03543
T8F00S00C0.04331
T9F00S00C0.05118
T10F00S00C0.12598
T11F00S00C0.13000
;TYPE=NON_PLATED
T12F00S00C0.02756
%
T01
X0100000Y0120000
X0110000
X0120000
X0130000
X0140000
X0150000
X0155000Y0130000
X0150000Y0140000
X0155000Y0150000
X0130000Y0140000
X0120000
X0110000
X0100000
X0100535Y0148278
Y0151559
X0097043
Y0148278
X0105000Y0130000
X0115000
X0135000
X0160000Y0140000
X0170000
X0175000Y0150000
Y0130000
X0170000Y0120000
X0160000
X0240000
X0250000
X0260000
X0270000
X0280000
X0290000
X0300000
X0310000
X0305000Y0130000
X0295000
X0285000
X0275000
X0265000
X0260000Y0140000
X0265000Y0150000
X0275000
X0290000Y0140000
X0300000
X0240000
X0235000Y0150000
X0325000
X0335000
X0345000
X0355000
X0360000Y0140000
X0370000
X0380000
X0390000
X0400000
X0410000
X0420000
X0430000
X0435000Y0150000
X0425000
X0415000
X0405000
X0395000
X0385000
X0375000
Y0130000
X0385000
X0395000
X0405000
X0415000
X0425000
X0435000
X0430000Y0120000
X0420000
X0410000
X0400000
X0390000
X0380000
X0370000
X0360000
X0350000
X0355000Y0130000
X0365000
X0345000
X0335000
X0325000
X0315000
X0320000Y0120000
X0330000
X0340000Y0140000
X0350000
X0460000
X0465000
X0467500Y0135000
X0455000Y0130000
X0460000Y0120000
X0465000
X0450000
X0470000
X0475000
X0480000
X0485000
X0490000
X0495000
X0500000
X0505000
X0510000
X0515000
X0520000
X0530000
X0540000
X0550000
X0555000Y0130000
X0545000
X0535000
X0525000
X0517500Y0135000
X0512500
X0507500
X0502500
X0497500
X0492500
X0487500
X0482500
X0477500
X0472500
X0470000Y0140000
X0475000
X0480000
X0482500Y0145000
Y0155000
X0487500
X0492500
X0497500
X0502500
X0507500
X0512500
X0517500
Y0145000
X0520000Y0140000
X0515000
X0505000
X0495000
X0490000
X0497500Y0145000
Y0125000
X0492500
X0472500Y0155000
X0525000Y0150000
X0530000Y0140000
X0540000
X0550000
X0560000
X0570000
X0575000Y0150000
X0565000
X0555000
X0560000Y0160000
X0570000
X0575000Y0170000
X0565000
X0555000
X0545000
X0550000Y0180000
X0560000
X0570000
X0575000Y0190000
X0565000
X0555000
X0560000Y0200000
X0570000
X0575000Y0210000
X0565000
X0555000
X0550979Y0201165
X0530000Y0200000
X0535000Y0210000
X0525000
X0515000
X0512500Y0205000
X0507500
X0502500
X0497500
X0492500
X0487500
X0482500
X0477500
X0472500
X0475000Y0210000
X0470000
Y0220000
X0475000
X0480000
X0485000
X0490000
X0495000
X0500000
X0505000
X0510000
X0512500Y0225000
X0517500
X0515000Y0230000
X0520000
X0525000
X0520000Y0240000
X0515000
X0510000
X0505000
X0500000
X0495000
X0490000
X0485000
X0480000
X0475000
X0472500Y0245000
Y0255000
X0477500
X0482500
X0487500
X0492500
X0497500
X0502500
X0507500
X0512500
X0515000Y0260000
X0517500Y0275000
X0512500
X0507500
X0502500
X0497500
X0492500
X0487500
X0482500
X0477500
X0475000Y0270000
Y0280000
Y0290000
X0480000
X0485000
X0490000
X0495000
X0500000
X0505000
X0510000
X0515000
X0520000
X0517500Y0295000
Y0305000
X0512500
X0507500
X0502500
X0497500
X0492500
X0487500
X0482500
X0477500
X0472500
X0475000Y0310000
X0470000
X0490000
X0495000
X0497500Y0295000
X0492500
X0495000Y0280000
X0497500Y0265000
X0495000Y0260000
X0497500Y0245000
X0495000Y0230000
X0497500Y0225000
X0492500
X0482500
X0472500
X0475000Y0230000
X0505000
X0510000
X0517500Y0245000
X0505000Y0270000
X0515000Y0280000
X0530000
X0535000Y0270000
X0545000
X0555000
X0565000
X0575000
X0570000Y0280000
X0560000
X0550000
X0555000Y0290000
X0565000
X0575000
X0570000Y0300000
X0560000
X0550000
X0540000
X0530000
X0535000Y0310000
X0545000
X0555000
X0520000
X0515000
X0550000Y0260000
X0560000
X0570000
X0575000Y0250000
X0565000
X0555000
X0560000Y0240000
X0570000
X0575000Y0230000
X0565000
X0555000
X0560000Y0220000
X0570000
X0517500Y0195000
X0515000Y0190000
X0510000
X0505000
X0500000
X0495000
X0490000
X0485000
X0480000
X0475000
X0470000
X0472500Y0195000
Y0185000
X0470000Y0180000
X0475000
X0472500Y0175000
X0475000Y0170000
X0480000
X0485000
X0490000
X0495000
X0500000
X0505000
X0510000
X0515000
X0517500Y0175000
X0520000Y0180000
X0525000Y0170000
X0520000Y0160000
X0515000
X0495000
X0480000
X0470000Y0170000
X0492500Y0175000
X0497500
Y0185000
Y0195000
X0495000Y0210000
X0475000Y0260000
X0550000Y0160000
X0465000
X0460000
X0465000Y0170000
X0467500Y0175000
X0465000Y0180000
X0460000
X0467500Y0185000
X0465000Y0190000
X0467500Y0195000
Y0205000
X0460000Y0200000
X0455000Y0190000
Y0170000
X0430228Y0170125
X0422878Y0190525
X0426778Y0209039
Y0219863
X0420000Y0220000
X0410000
X0407878Y0223376
X0408066Y0215732
X0407878Y0208452
X0405000Y0210000
Y0230000
X0415000
X0426449Y0230577
X0428278Y0250025
X0420000Y0260000
X0416334Y0272625
X0407878
X0399978
X0390000Y0280000
X0380000
X0370000
X0360000
X0365000Y0290000
X0375000
X0385000
X0395000
X0400000Y0300000
X0390000
X0380000
X0370000
X0360000
X0355000Y0290000
X0345000
Y0310000
X0335000
X0325000
X0330000Y0300000
X0325000Y0290000
X0315000
Y0274400
X0317800
X0313600Y0271600
X0320600Y0268800
X0322000Y0266000
X0319200
X0320600Y0263200
X0317800
X0315000
X0316400Y0260400
X0319200
X0322000
X0327600
X0329000Y0263200
X0327600Y0266000
X0331800Y0274400
X0330400Y0254800
X0329000Y0252000
X0326200
Y0246400
X0323400
X0320600
X0322000Y0243600
X0324800
X0319200
X0320600Y0240800
X0317800
X0315000
Y0252000
X0317800
X0313600Y0260400
X0360000Y0260000
X0370000
X0380000
X0385000Y0250000
X0390000Y0240000
X0395000Y0238235
X0404978Y0247739
X0410000Y0280000
X0415000Y0290000
X0420000Y0300000
X0435000Y0290000
X0455000
X0460000Y0300000
X0455000Y0310000
X0460000Y0280000
X0450000Y0260000
X0433178Y0268025
X0428936Y0268125
X0375000Y0270000
X0365000
X0355000
X0360000Y0240000
X0350000
X0355000Y0210000
X0365000
X0360000Y0200000
X0350000
X0340000
X0330000
X0325000Y0190000
X0315000
X0330000Y0180000
X0340000
X0350000
X0360000
X0370000
Y0160000
X0380000
X0390000
X0400000
X0410000
X0394578Y0190825
X0360000Y0160000
X0350000
X0330000
X0345000Y0210000
X0465000Y0220000
X0305000Y0210000
X0310000Y0200000
X0300000
X0290000
X0280000
X0270000
X0275000Y0210000
X0285000
X0290000Y0220000
X0288400Y0232400
X0285000Y0230000
X0295000
X0294287Y0233884
X0294000Y0238000
X0290429Y0238567
X0295400Y0240800
X0296800Y0243600
X0295400Y0246400
X0296800Y0249200
X0295400Y0252000
X0296800Y0254800
X0303800Y0252000
X0306600
X0309400
X0312200
X0310800Y0249200
X0308000
X0305200
X0306600Y0246400
X0309400
X0303800
X0305200Y0243600
X0306600Y0240800
X0303800
Y0263200
X0306600
X0308000Y0266000
X0305200
X0306600Y0268800
X0309400
X0312200
X0310800Y0271600
X0308000
X0305200
X0303800Y0268800
X0295400
X0296800Y0266000
X0295400Y0263200
X0309400Y0274400
X0312200
X0310000Y0300000
X0305000Y0310000
X0280000Y0300000
X0270000
X0260000
X0250000
X0240000
X0230000
X0233263Y0289213
X0233391Y0285552
X0240000Y0280000
X0250000
X0260000
X0255000Y0290000
Y0310000
X0265000
X0235000
X0234050Y0273468
Y0268468
X0245000Y0270000
X0255000
X0270000Y0260000
X0245000Y0250000
X0235000
X0250000Y0240000
Y0220000
X0260000
X0270000
X0265000Y0210000
Y0190000
Y0170000
X0275000
X0285000
X0295000
X0305000
X0255000
X0251521Y0164157
X0250000Y0180000
X0230000
X0220000
X0210000
Y0160000
X0220000
X0230000
X0170000
Y0180000
X0160000
X0163971Y0189354
X0169483Y0194022
X0176570Y0192532
X0173027Y0203921
X0168046Y0215595
X0165547Y0218094
X0163047Y0220595
X0168046
X0163047Y0215595
X0180591Y0219276
X0180901Y0224000
X0178145Y0227572
X0178362Y0241717
X0166334Y0250772
X0160000Y0300000
X0165000Y0310000
X0245000Y0210000
X0147830Y0208252
X0145861Y0220063
X0145468Y0224394
X0155000Y0230000
X0133873Y0231874
X0125000Y0230000
X0133201Y0220125
X0135244Y0200378
X0141532Y0200000
X0143893Y0195879
X0152189Y0192532
X0140000Y0180000
X0130000
X0120000
X0110000
X0100000
X0105000Y0190000
X0115000
X0119483Y0209561
X0115000Y0250000
X0109641Y0262976
X0106885
X0104129
X0101373
X0098617
X0105000Y0270000
X0107270Y0282425
X0115000Y0290000
X0137298Y0290535
X0135637Y0305884
X0135000Y0310000
X0155000
X0150000Y0300000
X0155517Y0288469
X0138775Y0264365
X0117909Y0266913
X0140000Y0240000
Y0160000
X0150000
X0155000Y0170000
X0130000Y0160000
X0120000
X0110000
X0100000
X0105000Y0170000
X0097058Y0300000
X0120000Y0320000
X0119524Y0328724
X0112791
X0127357Y0329118
X0150000Y0320000
X0160000
X0240000
X0260000
X0300000
X0310000
X0330000
X0390000
X0400000
X0420000
X0430000
X0440000
X0450000
X0460000
X0472500Y0315000
X0482500
X0487500
X0497500
X0520000Y0320000
X0530000
X0540000
X0550000
T02
X0241924Y0153319
X0255921Y0153750
Y0150750
X0475978Y0150325
X0472078Y0262825
Y0301025
X0468578Y0284125
X0446118Y0290125
X0434178Y0304925
X0426778Y0300625
X0408831Y0310778
X0355178Y0284325
Y0281325
X0355078Y0278325
Y0275325
X0335178Y0276925
X0317978Y0270525
X0324778Y0263425
X0314578Y0248225
X0341178Y0249725
X0350378Y0244725
X0350478Y0254725
X0353531Y0253072
X0367578Y0240925
X0367078Y0233925
X0367678Y0219925
X0345678Y0219125
X0340878Y0204625
X0335678Y0209525
X0332778
X0329778
X0324278
X0321278
X0315678Y0216925
X0312678
Y0219925
X0315678
X0330878Y0224425
X0314278Y0182225
X0422978Y0164425
X0447778Y0160725
X0447731Y0178520
X0441878Y0198925
X0446978Y0215225
X0459694Y0219141
X0455878Y0223125
X0458778Y0231325
X0448778Y0236125
X0446178Y0247225
X0281378Y0242025
X0294878Y0224425
X0252278Y0227150
X0254978Y0195725
X0258478
X0261878Y0195625
X0255578Y0186325
Y0183625
X0293278Y0177325
X0296078Y0177425
X0305478Y0182125
X0308278Y0182225
X0311178
X0304478Y0283725
X0300578Y0287925
X0306278Y0294825
Y0297925
X0298978Y0302025
X0295978
X0292978Y0302125
X0289978
X0275478Y0295525
X0274078Y0286625
X0265578Y0285825
Y0288525
X0264578Y0265425
Y0258925
X0255878Y0262125
X0290778Y0280425
X0290831Y0314072
X0465678Y0318025
T04
X0318678Y0162925
X0336478Y0172925
T05
X0164917Y0166913
X0174917
X0204917
X0214916
X0224917
T06
X0537200Y0182425
Y0193213
Y0204000
Y0214787
Y0225575
Y0236362
Y0247150
Y0257937
X0547200Y0252543
Y0241756
Y0230968
Y0220181
Y0209394
Y0198606
Y0187819
T07
X0163047Y0126225
X0339562Y0122425
Y0157302
X0417778Y0284125
X0427778
X0441078
X0451078
X0306578Y0190025
X0306921Y0157550
X0252948Y0211267
X0148224Y0257937
Y0267937
Y0277937
Y0287937
X0353578Y0321925
X0363578
X0373578
X0383578
T08
X0251699Y0318728
X0269416
T09
X0246778Y0308925
X0274337
T10
X0213578Y0122425
X0567278
X0213578Y0317925
X0567278
T11
X0542200Y0154631
Y0285731
T12
X0110135Y0216433
Y0232378
M30
