G04*
G04 #@! TF.GenerationSoftware,Altium Limited,Altium Designer,18.1.9 (240)*
G04*
G04 Layer_Color=65535*
%FSAX25Y25*%
%MOIN*%
G70*
G01*
G75*
%ADD10C,0.00984*%
%ADD11C,0.02362*%
%ADD12C,0.00787*%
%ADD13C,0.00315*%
%ADD14C,0.00394*%
%ADD15C,0.00591*%
%ADD16R,0.68898X0.31929*%
D10*
X0121754Y0267110D02*
G03*
X0121754Y0267110I-0000492J0000000D01*
G01*
X0153047Y0227937D02*
G03*
X0153047Y0227937I-0000492J0000000D01*
G01*
X0162495Y0296815D02*
G03*
X0162495Y0296815I-0000492J0000000D01*
G01*
X0319582Y0157661D02*
G03*
X0319582Y0157661I-0000492J0000000D01*
G01*
X0420084Y0294112D02*
G03*
X0420084Y0294112I-0000492J0000000D01*
G01*
X0435783Y0294212D02*
G03*
X0435783Y0294212I-0000492J0000000D01*
G01*
X0128194Y0230000D02*
G03*
X0128194Y0230000I-0000492J0000000D01*
G01*
X0260600Y0161036D02*
G03*
X0260600Y0161036I-0000492J0000000D01*
G01*
X0260257Y0193412D02*
G03*
X0260257Y0193412I-0000492J0000000D01*
G01*
X0479857Y0165539D02*
G03*
X0479857Y0165539I-0000492J0000000D01*
G01*
X0253440Y0219338D02*
G03*
X0253440Y0219338I-0000492J0000000D01*
G01*
X0163539Y0134296D02*
G03*
X0163539Y0134296I-0000492J0000000D01*
G01*
X0340054Y0165373D02*
G03*
X0340054Y0165373I-0000492J0000000D01*
G01*
X0307070Y0198096D02*
G03*
X0307070Y0198096I-0000492J0000000D01*
G01*
X0307413Y0165621D02*
G03*
X0307413Y0165621I-0000492J0000000D01*
G01*
X0340054Y0130496D02*
G03*
X0340054Y0130496I-0000492J0000000D01*
G01*
X0442209Y0202606D02*
G03*
X0442209Y0202606I-0000492J0000000D01*
G01*
X0290429Y0273845D02*
G03*
X0290429Y0273845I-0000492J0000000D01*
G01*
D11*
X0172633Y0292504D02*
G03*
X0172633Y0292504I-0001181J0000000D01*
G01*
X0434532Y0205952D02*
G03*
X0434532Y0205952I-0001181J0000000D01*
G01*
X0299386Y0270498D02*
G03*
X0299386Y0270498I-0001181J0000000D01*
G01*
D12*
X0082673Y0203134D02*
X0087397D01*
Y0245654D01*
X0082673D02*
X0087397D01*
X0113184Y0216126D02*
Y0217307D01*
X0106295Y0239748D02*
X0107082D01*
X0090743Y0208646D02*
Y0240142D01*
X0096846D01*
X0090743Y0208646D02*
X0096846D01*
X0095861D02*
Y0240142D01*
X0093106Y0208646D02*
Y0240142D01*
X0106295Y0209039D02*
X0107082D01*
X0113184Y0231480D02*
Y0232661D01*
X0087397Y0210614D02*
X0089365D01*
X0087397Y0238173D02*
X0089365D01*
X0082673Y0224394D02*
X0087397D01*
X0085822Y0222819D02*
X0087397Y0224394D01*
X0085822Y0225969D02*
X0087397Y0224394D01*
X0113880Y0268291D02*
X0117816D01*
X0113880Y0280496D02*
X0117816D01*
Y0268291D02*
Y0280496D01*
X0113880Y0268291D02*
Y0280496D01*
X0563097Y0141835D02*
Y0297740D01*
X0521365D02*
X0563097D01*
X0521365Y0141835D02*
X0563097D01*
X0521365D02*
Y0297740D01*
X0155113Y0207661D02*
X0157476D01*
X0155113D02*
Y0210024D01*
X0173617Y0207661D02*
X0175979D01*
Y0210024D01*
Y0226165D02*
Y0228528D01*
X0173617D02*
X0175979D01*
X0155113D02*
X0157476D01*
X0155113Y0226165D02*
Y0228528D01*
X0167515Y0255496D02*
Y0296441D01*
X0220271Y0255496D02*
Y0296441D01*
X0167515D02*
X0220271D01*
X0167515Y0255496D02*
X0220271D01*
X0322042Y0144079D02*
X0325586D01*
X0322042Y0156677D02*
X0325586D01*
Y0144079D02*
Y0156677D01*
X0322042Y0144079D02*
Y0156677D01*
X0420576Y0297557D02*
Y0301494D01*
X0432780Y0297557D02*
Y0301494D01*
X0420576Y0297557D02*
X0432780D01*
X0420576Y0301494D02*
X0432780D01*
X0436276Y0297657D02*
Y0301594D01*
X0448480Y0297657D02*
Y0301594D01*
X0436276Y0297657D02*
X0448480D01*
X0436276Y0301594D02*
X0448480D01*
X0131147Y0229016D02*
X0135084D01*
X0131147Y0216811D02*
X0135084D01*
X0131147D02*
Y0229016D01*
X0135084Y0216811D02*
Y0229016D01*
X0267490Y0147847D02*
Y0160052D01*
X0263553Y0147847D02*
Y0160052D01*
Y0147847D02*
X0267490D01*
X0263553Y0160052D02*
X0267490D01*
X0267146Y0180223D02*
Y0192428D01*
X0263210Y0180223D02*
Y0192428D01*
Y0180223D02*
X0267146D01*
X0263210Y0192428D02*
X0267146D01*
X0466176Y0158157D02*
X0478380D01*
X0466176Y0162094D02*
X0478380D01*
X0466176Y0158157D02*
Y0162094D01*
X0478380Y0158157D02*
Y0162094D01*
X0265285Y0249001D02*
Y0275379D01*
Y0249001D02*
X0278671D01*
Y0275379D01*
X0265285D02*
X0278671D01*
X0505878Y0122925D02*
X0513878D01*
Y0126925D01*
X0505878D02*
X0513878D01*
X0505878Y0122925D02*
Y0126925D01*
X0505647Y0174425D02*
X0513647D01*
Y0178425D01*
X0505647D02*
X0513647D01*
X0505647Y0174425D02*
Y0178425D01*
X0505747Y0157625D02*
X0513747D01*
Y0161625D01*
X0505747D02*
X0513747D01*
X0505747Y0157625D02*
Y0161625D01*
X0505647Y0208525D02*
X0513647D01*
Y0212525D01*
X0505647D02*
X0513647D01*
X0505647Y0208525D02*
Y0212525D01*
X0505747Y0140325D02*
X0513747D01*
Y0144325D01*
X0505747D02*
X0513747D01*
X0505747Y0140325D02*
Y0144325D01*
X0505647Y0242325D02*
X0513647D01*
Y0246325D01*
X0505647D02*
X0513647D01*
X0505647Y0242325D02*
Y0246325D01*
Y0225525D02*
X0513647D01*
Y0229525D01*
X0505647D02*
X0513647D01*
X0505647Y0225525D02*
Y0229525D01*
X0505446Y0276025D02*
X0513447D01*
Y0280025D01*
X0505446D02*
X0513447D01*
X0505446Y0276025D02*
Y0280025D01*
X0505747Y0259325D02*
X0513747D01*
Y0263325D01*
X0505747D02*
X0513747D01*
X0505747Y0259325D02*
Y0263325D01*
X0505578Y0309825D02*
X0513578D01*
Y0313825D01*
X0505578D02*
X0513578D01*
X0505578Y0309825D02*
Y0313825D01*
X0505647Y0293125D02*
X0513647D01*
Y0297125D01*
X0505647D02*
X0513647D01*
X0505647Y0293125D02*
Y0297125D01*
X0505625Y0191325D02*
X0513625D01*
Y0195325D01*
X0505625D02*
X0513625D01*
X0505625Y0191325D02*
Y0195325D01*
X0157436Y0137779D02*
X0232239D01*
Y0176362D01*
X0157436Y0137779D02*
Y0176362D01*
X0232239D01*
X0248721Y0128450D02*
X0254721D01*
X0248721D02*
Y0139450D01*
X0254721D01*
Y0128450D02*
Y0139450D01*
X0150342Y0252125D02*
X0156342D01*
Y0241125D02*
Y0252125D01*
X0150342Y0241125D02*
X0156342D01*
X0150342D02*
Y0252125D01*
X0150592Y0296793D02*
Y0308293D01*
X0156092D01*
Y0296793D02*
Y0308293D01*
X0150592Y0296793D02*
X0156092D01*
X0120814Y0310209D02*
X0126814D01*
Y0299209D02*
Y0310209D01*
X0120814Y0299209D02*
X0126814D01*
X0120814D02*
Y0310209D01*
X0164945Y0241472D02*
Y0247472D01*
X0175945D01*
Y0241472D02*
Y0247472D01*
X0164945Y0241472D02*
X0175945D01*
X0106444Y0324201D02*
X0112444D01*
X0106444Y0323201D02*
X0112444D01*
Y0311201D02*
Y0324201D01*
X0106444Y0311201D02*
X0112444D01*
X0106444D02*
Y0324201D01*
X0113728Y0324201D02*
X0119728D01*
X0113728Y0323201D02*
X0119728D01*
Y0311201D02*
Y0324201D01*
X0113728Y0311201D02*
X0119728D01*
X0113728D02*
Y0324201D01*
X0120814Y0324201D02*
X0126814D01*
X0120814Y0323201D02*
X0126814D01*
Y0311201D02*
Y0324201D01*
X0120814Y0311201D02*
X0126814D01*
X0120814D02*
Y0324201D01*
X0247436Y0205755D02*
Y0216779D01*
X0247436Y0205755D02*
X0258460D01*
Y0216779D01*
X0247436Y0216779D02*
X0258460D01*
X0157535Y0120713D02*
Y0131737D01*
X0157535Y0120713D02*
X0168558D01*
Y0131737D01*
X0157535Y0131737D02*
X0168558D01*
X0235237Y0167226D02*
Y0178726D01*
X0240737D01*
Y0167226D02*
Y0178726D01*
X0235237Y0167226D02*
X0240737D01*
X0247824Y0160663D02*
Y0172163D01*
X0242324Y0160663D02*
X0247824D01*
X0242324D02*
Y0172163D01*
X0247824D01*
X0157070Y0185625D02*
Y0191625D01*
X0146070Y0185625D02*
X0157070D01*
X0146070D02*
Y0191625D01*
X0157070D01*
X0124926Y0243650D02*
X0136426D01*
X0124926D02*
Y0249150D01*
X0136426D01*
Y0243650D02*
Y0249150D01*
X0116977Y0233998D02*
Y0245498D01*
X0122477D01*
Y0233998D02*
Y0245498D01*
X0116977Y0233998D02*
X0122477D01*
X0135637Y0297772D02*
Y0303772D01*
X0146637D01*
Y0297772D02*
Y0303772D01*
X0135637Y0297772D02*
X0146637D01*
X0146070Y0178874D02*
Y0184874D01*
X0157070D01*
Y0178874D02*
Y0184874D01*
X0146070Y0178874D02*
X0157070D01*
X0146017Y0200384D02*
X0157517D01*
X0146017D02*
Y0205884D01*
X0157517D01*
Y0200384D02*
Y0205884D01*
X0146018Y0194022D02*
X0157518D01*
X0146018D02*
Y0199522D01*
X0157518D01*
Y0194022D02*
Y0199522D01*
X0160972Y0191272D02*
X0166972D01*
X0160972D02*
Y0202272D01*
X0166972D01*
Y0191272D02*
Y0202272D01*
X0130448Y0259125D02*
Y0265125D01*
X0119448Y0259125D02*
X0130448D01*
X0119448D02*
Y0265125D01*
X0130448D01*
X0100342Y0284248D02*
X0106342D01*
X0100342D02*
Y0295248D01*
X0106342D01*
Y0284248D02*
Y0295248D01*
X0128295Y0309815D02*
X0134294D01*
Y0298815D02*
Y0309815D01*
X0128295Y0298815D02*
X0134294D01*
X0128295D02*
Y0309815D01*
X0099365Y0310209D02*
X0105365D01*
Y0299209D02*
Y0310209D01*
X0099365Y0299209D02*
X0105365D01*
X0099365D02*
Y0310209D01*
X0107270Y0284248D02*
X0113270D01*
X0107270D02*
Y0295248D01*
X0113270D01*
Y0284248D02*
Y0295248D01*
X0127901Y0324201D02*
X0133901D01*
X0127901Y0323201D02*
X0133901D01*
Y0311201D02*
Y0324201D01*
X0127901Y0311201D02*
X0133901D01*
X0127901D02*
Y0324201D01*
X0099365Y0324110D02*
X0105365D01*
X0099365Y0323110D02*
X0105365D01*
Y0311110D02*
Y0324110D01*
X0099365Y0311110D02*
X0105365D01*
X0099365D02*
Y0324110D01*
X0121676Y0194688D02*
Y0212688D01*
X0130676D01*
Y0194688D02*
Y0212688D01*
X0121676Y0194688D02*
X0130676D01*
X0144282Y0201320D02*
Y0212820D01*
X0138782Y0201320D02*
X0144282D01*
X0138782D02*
Y0212820D01*
X0144282D01*
X0137994Y0201320D02*
Y0212820D01*
X0132494Y0201320D02*
X0137994D01*
X0132494D02*
Y0212820D01*
X0137994D01*
X0123432Y0283992D02*
Y0289992D01*
X0134432D01*
Y0283992D02*
Y0289992D01*
X0123432Y0283992D02*
X0134432D01*
X0115153Y0295247D02*
X0121153D01*
Y0284247D02*
Y0295247D01*
X0115153Y0284247D02*
X0121153D01*
X0115153D02*
Y0295247D01*
X0318708Y0136350D02*
Y0142350D01*
X0329708D01*
Y0136350D02*
Y0142350D01*
X0318708Y0136350D02*
X0329708D01*
X0122043Y0121638D02*
Y0128527D01*
Y0121638D02*
X0146058D01*
Y0138173D01*
X0122043D02*
X0146058D01*
X0122043Y0128527D02*
Y0138173D01*
X0123814Y0233842D02*
Y0241717D01*
Y0233842D02*
X0137200D01*
Y0241717D01*
X0123814D02*
X0137200D01*
X0104922Y0193447D02*
Y0204947D01*
X0110423D01*
Y0193447D02*
Y0204947D01*
X0104922Y0193447D02*
X0110423D01*
X0144385Y0177839D02*
X0154129D01*
Y0142504D02*
Y0177839D01*
X0132082Y0142504D02*
X0154129D01*
X0132082D02*
Y0177839D01*
X0144385D01*
X0119188D02*
X0128932D01*
Y0142504D02*
Y0177839D01*
X0106885Y0142504D02*
X0128932D01*
X0106885D02*
Y0177839D01*
X0119188D01*
X0334050Y0151791D02*
Y0162814D01*
X0334050Y0151791D02*
X0345074D01*
Y0162814D01*
X0334050Y0162814D02*
X0345074D01*
X0166739Y0234087D02*
Y0240087D01*
X0177739D01*
Y0234087D02*
Y0240087D01*
X0166739Y0234087D02*
X0177739D01*
X0327178Y0175325D02*
X0333178D01*
Y0164325D02*
Y0175325D01*
X0327178Y0164325D02*
X0333178D01*
X0327178D02*
Y0175325D01*
X0319678Y0189425D02*
X0325678D01*
Y0178425D02*
Y0189425D01*
X0319678Y0178425D02*
X0325678D01*
X0319678D02*
Y0189425D01*
X0348078Y0152890D02*
Y0158890D01*
X0359078D01*
Y0152890D02*
Y0158890D01*
X0348078Y0152890D02*
X0359078D01*
X0438264Y0113520D02*
Y0119520D01*
X0449264D01*
Y0113520D02*
Y0119520D01*
X0438264Y0113520D02*
X0449264D01*
X0234993Y0285817D02*
Y0291317D01*
Y0285817D02*
X0246493D01*
Y0291317D01*
X0234993D02*
X0246493D01*
X0103588Y0193528D02*
Y0204528D01*
X0097588D02*
X0103588D01*
X0097588Y0193528D02*
Y0204528D01*
Y0193528D02*
X0103588D01*
X0113727Y0299209D02*
Y0310209D01*
Y0299209D02*
X0119727D01*
Y0310209D01*
X0113727D02*
X0119727D01*
X0106444Y0299209D02*
Y0310209D01*
Y0299209D02*
X0112444D01*
Y0310209D01*
X0106444D02*
X0112444D01*
X0505078Y0314925D02*
X0516078D01*
Y0320925D01*
X0505078D02*
X0516078D01*
X0505078Y0314925D02*
Y0320925D01*
X0498428Y0309175D02*
X0503928D01*
Y0320675D01*
X0498428D02*
X0503928D01*
X0498428Y0309175D02*
Y0320675D01*
X0488278Y0309525D02*
Y0320525D01*
X0482278D02*
X0488278D01*
X0482278Y0309525D02*
Y0320525D01*
Y0309525D02*
X0488278D01*
X0475428Y0309275D02*
X0480928D01*
Y0320775D01*
X0475428D02*
X0480928D01*
X0475428Y0309275D02*
Y0320775D01*
X0505125Y0196425D02*
X0516125D01*
Y0202425D01*
X0505125D02*
X0516125D01*
X0505125Y0196425D02*
Y0202425D01*
X0498475Y0190723D02*
X0503975D01*
Y0202222D01*
X0498475D02*
X0503975D01*
X0498475Y0190723D02*
Y0202222D01*
X0488325Y0190978D02*
Y0201978D01*
X0482325D02*
X0488325D01*
X0482325Y0190978D02*
Y0201978D01*
Y0190978D02*
X0488325D01*
X0475475Y0190775D02*
X0480975D01*
Y0202275D01*
X0475475D02*
X0480975D01*
X0475475Y0190775D02*
Y0202275D01*
X0488278Y0275725D02*
Y0286725D01*
X0482278D02*
X0488278D01*
X0482278Y0275725D02*
Y0286725D01*
Y0275725D02*
X0488278D01*
X0505078Y0281125D02*
X0516078D01*
Y0287125D01*
X0505078D02*
X0516078D01*
X0505078Y0281125D02*
Y0287125D01*
X0475428Y0275428D02*
X0480928D01*
Y0286928D01*
X0475428D02*
X0480928D01*
X0475428Y0275428D02*
Y0286928D01*
X0498428Y0275375D02*
X0503928D01*
Y0286875D01*
X0498428D02*
X0503928D01*
X0498428Y0275375D02*
Y0286875D01*
X0488378Y0241925D02*
Y0252925D01*
X0482378D02*
X0488378D01*
X0482378Y0241925D02*
Y0252925D01*
Y0241925D02*
X0488378D01*
X0475528Y0241675D02*
X0481028D01*
Y0253175D01*
X0475528D02*
X0481028D01*
X0475528Y0241675D02*
Y0253175D01*
X0498528Y0241675D02*
X0504028D01*
Y0253175D01*
X0498528D02*
X0504028D01*
X0498528Y0241675D02*
Y0253175D01*
X0505178Y0247425D02*
X0516178D01*
Y0253425D01*
X0505178D02*
X0516178D01*
X0505178Y0247425D02*
Y0253425D01*
X0475528Y0207875D02*
X0481028D01*
Y0219375D01*
X0475528D02*
X0481028D01*
X0475528Y0207875D02*
Y0219375D01*
X0488378Y0208125D02*
Y0219125D01*
X0482378D02*
X0488378D01*
X0482378Y0208125D02*
Y0219125D01*
Y0208125D02*
X0488378D01*
X0505178Y0213625D02*
X0516178D01*
Y0219625D01*
X0505178D02*
X0516178D01*
X0505178Y0213625D02*
Y0219625D01*
X0498528Y0207875D02*
X0504028D01*
Y0219375D01*
X0498528D02*
X0504028D01*
X0498528Y0207875D02*
Y0219375D01*
X0488378Y0174025D02*
Y0185025D01*
X0482378D02*
X0488378D01*
X0482378Y0174025D02*
Y0185025D01*
Y0174025D02*
X0488378D01*
X0475528Y0173728D02*
X0481028D01*
Y0185228D01*
X0475528D02*
X0481028D01*
X0475528Y0173728D02*
Y0185228D01*
X0498528Y0173728D02*
X0504028D01*
Y0185228D01*
X0498528D02*
X0504028D01*
X0498528Y0173728D02*
Y0185228D01*
X0505178Y0179525D02*
X0516178D01*
Y0185525D01*
X0505178D02*
X0516178D01*
X0505178Y0179525D02*
Y0185525D01*
X0505125Y0298025D02*
X0516125D01*
Y0304025D01*
X0505125D02*
X0516125D01*
X0505125Y0298025D02*
Y0304025D01*
X0498428Y0292275D02*
X0503928D01*
Y0303775D01*
X0498428D02*
X0503928D01*
X0498428Y0292275D02*
Y0303775D01*
X0488278Y0292572D02*
Y0303572D01*
X0482278D02*
X0488278D01*
X0482278Y0292572D02*
Y0303572D01*
Y0292572D02*
X0488278D01*
X0475428Y0292328D02*
X0480928D01*
Y0303828D01*
X0475428D02*
X0480928D01*
X0475428Y0292328D02*
Y0303828D01*
X0505225Y0264225D02*
X0516225D01*
Y0270225D01*
X0505225D02*
X0516225D01*
X0505225Y0264225D02*
Y0270225D01*
X0498528Y0258475D02*
X0504028D01*
Y0269975D01*
X0498528D02*
X0504028D01*
X0498528Y0258475D02*
Y0269975D01*
X0488478Y0258825D02*
Y0269825D01*
X0482478D02*
X0488478D01*
X0482478Y0258825D02*
Y0269825D01*
Y0258825D02*
X0488478D01*
X0475528Y0258575D02*
X0481028D01*
Y0270075D01*
X0475528D02*
X0481028D01*
X0475528Y0258575D02*
Y0270075D01*
X0505178Y0230425D02*
X0516178D01*
Y0236425D01*
X0505178D02*
X0516178D01*
X0505178Y0230425D02*
Y0236425D01*
X0498528Y0224675D02*
X0504028D01*
Y0236175D01*
X0498528D02*
X0504028D01*
X0498528Y0224675D02*
Y0236175D01*
X0488478Y0225025D02*
Y0236025D01*
X0482478D02*
X0488478D01*
X0482478Y0225025D02*
Y0236025D01*
Y0225025D02*
X0488478D01*
X0475528Y0224728D02*
X0481028D01*
Y0236228D01*
X0475528D02*
X0481028D01*
X0475528Y0224728D02*
Y0236228D01*
X0488578Y0139825D02*
Y0150825D01*
X0482578D02*
X0488578D01*
X0482578Y0139825D02*
Y0150825D01*
Y0139825D02*
X0488578D01*
X0505278Y0145225D02*
X0516278D01*
Y0151225D01*
X0505278D02*
X0516278D01*
X0505278Y0145225D02*
Y0151225D01*
X0498628Y0139428D02*
X0504128D01*
Y0150928D01*
X0498628D02*
X0504128D01*
X0498628Y0139428D02*
Y0150928D01*
X0505278Y0162525D02*
X0516278D01*
Y0168525D01*
X0505278D02*
X0516278D01*
X0505278Y0162525D02*
Y0168525D01*
X0498628Y0156775D02*
X0504128D01*
Y0168275D01*
X0498628D02*
X0504128D01*
X0498628Y0156775D02*
Y0168275D01*
X0482578Y0157125D02*
Y0168125D01*
Y0157125D02*
X0488578D01*
Y0168125D01*
X0482578D02*
X0488578D01*
X0517378Y0122425D02*
Y0133425D01*
Y0122425D02*
X0523378D01*
Y0133425D01*
X0517378D02*
X0523378D01*
X0505278Y0127825D02*
X0516278D01*
Y0133825D01*
X0505278D02*
X0516278D01*
X0505278Y0127825D02*
Y0133825D01*
X0482678Y0122325D02*
Y0133325D01*
Y0122325D02*
X0488678D01*
Y0133325D01*
X0482678D02*
X0488678D01*
X0498628Y0122028D02*
X0504128D01*
Y0133528D01*
X0498628D02*
X0504128D01*
X0498628Y0122028D02*
Y0133528D01*
X0470331Y0121925D02*
X0481331D01*
Y0127925D01*
X0470331D02*
X0481331D01*
X0470331Y0121925D02*
Y0127925D01*
X0251325Y0178225D02*
X0262325D01*
X0251325Y0172225D02*
Y0178225D01*
Y0172225D02*
X0262325D01*
Y0178225D01*
X0247828Y0192875D02*
X0253328D01*
X0247828Y0181375D02*
Y0192875D01*
Y0181375D02*
X0253328D01*
Y0192875D01*
X0277269Y0185794D02*
Y0194456D01*
X0288687D01*
Y0185794D02*
Y0194456D01*
X0277269Y0185794D02*
X0288687D01*
X0298478Y0179425D02*
Y0193425D01*
X0290478D02*
X0298478D01*
X0290478Y0179425D02*
Y0193425D01*
Y0179425D02*
X0298478D01*
X0301066Y0195537D02*
X0312090D01*
X0312090Y0184513D02*
Y0195537D01*
X0301066Y0184513D02*
X0312090D01*
X0301066Y0184513D02*
Y0195537D01*
X0276128Y0183922D02*
X0281628D01*
X0276128Y0172422D02*
Y0183922D01*
Y0172422D02*
X0281628D01*
Y0183922D01*
X0289078Y0172625D02*
Y0183625D01*
X0283078D02*
X0289078D01*
X0283078Y0172625D02*
Y0183625D01*
Y0172625D02*
X0289078D01*
X0263778Y0172225D02*
X0274778D01*
Y0178225D01*
X0263778D02*
X0274778D01*
X0263778Y0172225D02*
Y0178225D01*
X0248771Y0160447D02*
X0254271D01*
X0248771Y0148947D02*
Y0160447D01*
Y0148947D02*
X0254271D01*
Y0160447D01*
X0157626Y0241125D02*
Y0252125D01*
Y0241125D02*
X0163626D01*
Y0252125D01*
X0157626D02*
X0163626D01*
X0243321Y0147450D02*
X0254321D01*
X0243321Y0141450D02*
Y0147450D01*
Y0141450D02*
X0254321D01*
Y0147450D01*
X0247121Y0128350D02*
Y0139350D01*
X0241121D02*
X0247121D01*
X0241121Y0128350D02*
Y0139350D01*
Y0128350D02*
X0247121D01*
X0273921Y0134150D02*
Y0145150D01*
X0267921D02*
X0273921D01*
X0267921Y0134150D02*
Y0145150D01*
Y0134150D02*
X0273921D01*
X0277513Y0153319D02*
Y0161980D01*
X0288930D01*
Y0153319D02*
Y0161980D01*
X0277513Y0153319D02*
X0288930D01*
X0298821Y0146850D02*
Y0160850D01*
X0290821D02*
X0298821D01*
X0290821Y0146850D02*
Y0160850D01*
Y0146850D02*
X0298821D01*
X0301410Y0163061D02*
X0312433D01*
X0312433Y0152038D02*
Y0163061D01*
X0301410Y0152038D02*
X0312433D01*
X0301410Y0152038D02*
Y0163061D01*
X0334050Y0127937D02*
X0345074D01*
X0345074Y0116913D02*
Y0127937D01*
X0334050Y0116913D02*
X0345074D01*
X0334050Y0116913D02*
Y0127937D01*
X0276471Y0151400D02*
X0281971D01*
X0276471Y0139900D02*
Y0151400D01*
Y0139900D02*
X0281971D01*
Y0151400D01*
X0289421Y0140150D02*
Y0151150D01*
X0283421D02*
X0289421D01*
X0283421Y0140150D02*
Y0151150D01*
Y0140150D02*
X0289421D01*
X0436078Y0279125D02*
X0456078D01*
Y0289125D01*
X0436078D02*
X0456078D01*
X0436078Y0279125D02*
Y0289125D01*
X0412778Y0279125D02*
X0432778D01*
Y0289125D01*
X0412778D02*
X0432778D01*
X0412778Y0279125D02*
Y0289125D01*
X0432628Y0310475D02*
Y0315975D01*
X0421128D02*
X0432628D01*
X0421128Y0310475D02*
Y0315975D01*
Y0310475D02*
X0432628D01*
X0433925Y0310225D02*
X0444925D01*
Y0316225D01*
X0433925D02*
X0444925D01*
X0433925Y0310225D02*
Y0316225D01*
X0418578Y0302325D02*
Y0313325D01*
X0412578D02*
X0418578D01*
X0412578Y0302325D02*
Y0313325D01*
Y0302325D02*
X0418578D01*
X0371731Y0202925D02*
X0382731D01*
Y0208925D01*
X0371731D02*
X0382731D01*
X0371731Y0202925D02*
Y0208925D01*
X0371725Y0244925D02*
X0382725D01*
Y0250925D01*
X0371725D02*
X0382725D01*
X0371725Y0244925D02*
Y0250925D01*
X0371778Y0223925D02*
X0382778D01*
Y0229925D01*
X0371778D02*
X0382778D01*
X0371778Y0223925D02*
Y0229925D01*
Y0216925D02*
X0382778D01*
Y0222925D01*
X0371778D02*
X0382778D01*
X0371778Y0216925D02*
Y0222925D01*
Y0243925D02*
X0382778D01*
X0371778Y0237925D02*
Y0243925D01*
Y0237925D02*
X0382778D01*
Y0243925D01*
X0371778Y0195925D02*
X0382778D01*
Y0201925D01*
X0371778D02*
X0382778D01*
X0371778Y0195925D02*
Y0201925D01*
X0371825Y0230925D02*
X0382825D01*
Y0236925D01*
X0371825D02*
X0382825D01*
X0371825Y0230925D02*
Y0236925D01*
X0371731Y0209925D02*
X0382731D01*
Y0215925D01*
X0371731D02*
X0382731D01*
X0371731Y0209925D02*
Y0215925D01*
X0371778Y0188925D02*
X0382778D01*
Y0194925D01*
X0371778D02*
X0382778D01*
X0371778Y0188925D02*
Y0194925D01*
X0406828Y0175723D02*
X0412328D01*
Y0187223D01*
X0406828D02*
X0412328D01*
X0406828Y0175723D02*
Y0187223D01*
X0413328Y0187222D02*
X0418828D01*
X0413328Y0175722D02*
Y0187222D01*
Y0175722D02*
X0418828D01*
Y0187222D01*
X0420928Y0254075D02*
X0426428D01*
Y0265575D01*
X0420928D02*
X0426428D01*
X0420928Y0254075D02*
Y0265575D01*
X0411978Y0253625D02*
Y0267625D01*
Y0253625D02*
X0419978D01*
Y0267625D01*
X0411978D02*
X0419978D01*
X0405428Y0265228D02*
X0410928D01*
X0405428Y0253728D02*
Y0265228D01*
Y0253728D02*
X0410928D01*
Y0265228D01*
X0396178Y0253665D02*
Y0267665D01*
Y0253665D02*
X0404178D01*
Y0267665D01*
X0396178D02*
X0404178D01*
X0389628Y0265075D02*
X0395128D01*
X0389628Y0253575D02*
Y0265075D01*
Y0253575D02*
X0395128D01*
Y0265075D01*
X0401068Y0238235D02*
X0437288D01*
X0401068Y0202015D02*
X0437288D01*
X0401068D02*
Y0238235D01*
X0437288Y0202015D02*
Y0238235D01*
X0448728Y0193975D02*
X0454228D01*
Y0205475D01*
X0448728D02*
X0454228D01*
X0448728Y0193975D02*
Y0205475D01*
X0348578Y0316925D02*
Y0326925D01*
X0388578D01*
X0348578Y0316925D02*
X0388578D01*
Y0326925D01*
X0432928Y0187222D02*
X0438428D01*
X0432928Y0175722D02*
Y0187222D01*
Y0175722D02*
X0438428D01*
Y0187222D01*
X0439278Y0181325D02*
X0450278D01*
Y0187325D01*
X0439278D02*
X0450278D01*
X0439278Y0181325D02*
Y0187325D01*
X0257578Y0228872D02*
Y0239872D01*
Y0228872D02*
X0263578D01*
Y0239872D01*
X0257578D02*
X0263578D01*
X0270578Y0228872D02*
Y0239872D01*
X0264578D02*
X0270578D01*
X0264578Y0228872D02*
Y0239872D01*
Y0228872D02*
X0270578D01*
X0320428Y0223222D02*
X0325928D01*
X0320428Y0211722D02*
Y0223222D01*
Y0211722D02*
X0325928D01*
Y0223222D01*
X0256578Y0228872D02*
Y0239872D01*
X0250578D02*
X0256578D01*
X0250578Y0228872D02*
Y0239872D01*
Y0228872D02*
X0256578D01*
X0345078Y0262225D02*
X0356078D01*
X0345078Y0256225D02*
Y0262225D01*
Y0256225D02*
X0356078D01*
Y0262225D01*
X0243578Y0228872D02*
Y0239872D01*
Y0228872D02*
X0249578D01*
Y0239872D01*
X0243578D02*
X0249578D01*
X0248182Y0198022D02*
Y0203522D01*
Y0198022D02*
X0259682D01*
Y0203522D01*
X0248182D02*
X0259682D01*
X0320328Y0175575D02*
X0325828D01*
X0320328Y0164075D02*
Y0175575D01*
Y0164075D02*
X0325828D01*
Y0175575D01*
X0143224Y0292937D02*
X0153224D01*
Y0252937D02*
Y0292937D01*
X0143224Y0252937D02*
Y0292937D01*
Y0252937D02*
X0153224D01*
X0338578Y0314225D02*
Y0325225D01*
Y0314225D02*
X0344578D01*
Y0325225D01*
X0338578D02*
X0344578D01*
X0330853Y0326403D02*
X0336853D01*
X0330853Y0325403D02*
X0336853D01*
Y0313403D02*
Y0326403D01*
X0330853Y0313403D02*
X0336853D01*
X0330853D02*
Y0326403D01*
X0312478Y0326676D02*
X0318478D01*
X0312478Y0325676D02*
X0318478D01*
Y0313676D02*
Y0326676D01*
X0312478Y0313676D02*
X0318478D01*
X0312478D02*
Y0326676D01*
X0319778Y0314325D02*
Y0325325D01*
Y0314325D02*
X0325778D01*
Y0325325D01*
X0319778D02*
X0325778D01*
X0257428Y0249875D02*
X0262928D01*
Y0261375D01*
X0257428D02*
X0262928D01*
X0257428Y0249875D02*
Y0261375D01*
Y0274422D02*
X0262928D01*
X0257428Y0262922D02*
Y0274422D01*
Y0262922D02*
X0262928D01*
Y0274422D01*
X0274812Y0278488D02*
Y0286362D01*
X0285835D01*
Y0278488D02*
Y0286362D01*
X0274812Y0278488D02*
X0285835D01*
X0294268Y0238215D02*
X0330488D01*
X0294268Y0274435D02*
X0330488D01*
Y0238215D02*
Y0274435D01*
X0294268Y0238215D02*
Y0274435D01*
X0267628Y0279575D02*
X0273128D01*
Y0291075D01*
X0267628D02*
X0273128D01*
X0267628Y0279575D02*
Y0291075D01*
X0286028Y0288075D02*
Y0293575D01*
X0274528D02*
X0286028D01*
X0274528Y0288075D02*
Y0293575D01*
Y0288075D02*
X0286028D01*
X0294828Y0288575D02*
X0300328D01*
Y0300075D01*
X0294828D02*
X0300328D01*
X0294828Y0288575D02*
Y0300075D01*
X0287928Y0288675D02*
X0293428D01*
Y0300175D01*
X0287928D02*
X0293428D01*
X0287928Y0288675D02*
Y0300175D01*
X0292128Y0223175D02*
X0297628D01*
X0292128Y0211675D02*
Y0223175D01*
Y0211675D02*
X0297628D01*
Y0223175D01*
X0298828Y0223222D02*
X0304328D01*
X0298828Y0211722D02*
Y0223222D01*
Y0211722D02*
X0304328D01*
Y0223222D01*
X0334328Y0223175D02*
X0339828D01*
X0334328Y0211675D02*
Y0223175D01*
Y0211675D02*
X0339828D01*
Y0223175D01*
X0327928D02*
X0333428D01*
X0327928Y0211675D02*
Y0223175D01*
Y0211675D02*
X0333428D01*
Y0223175D01*
X0271728Y0240175D02*
X0277228D01*
X0271728Y0228675D02*
Y0240175D01*
Y0228675D02*
X0277228D01*
Y0240175D01*
X0278428Y0240222D02*
X0283928D01*
X0278428Y0228722D02*
Y0240222D01*
Y0228722D02*
X0283928D01*
Y0240222D01*
X0341128Y0273275D02*
Y0278775D01*
Y0273275D02*
X0352628D01*
Y0278775D01*
X0341128D02*
X0352628D01*
X0341181Y0280575D02*
Y0286075D01*
Y0280575D02*
X0352681D01*
Y0286075D01*
X0341181D02*
X0352681D01*
X0386528Y0187275D02*
X0392028D01*
X0386528Y0175775D02*
Y0187275D01*
Y0175775D02*
X0392028D01*
Y0187275D01*
X0393128D02*
X0398628D01*
X0393128Y0175775D02*
Y0187275D01*
Y0175775D02*
X0398628D01*
Y0187275D01*
X0399728D02*
X0405228D01*
X0399728Y0175775D02*
Y0187275D01*
Y0175775D02*
X0405228D01*
Y0187275D01*
X0427428Y0254075D02*
X0432928D01*
Y0265575D01*
X0427428D02*
X0432928D01*
X0427428Y0254075D02*
Y0265575D01*
X0433828Y0254075D02*
X0439328D01*
Y0265575D01*
X0433828D02*
X0439328D01*
X0433828Y0254075D02*
Y0265575D01*
X0440178Y0253925D02*
Y0264925D01*
Y0253925D02*
X0446178D01*
Y0264925D01*
X0440178D02*
X0446178D01*
X0419928Y0187175D02*
X0425428D01*
X0419928Y0175675D02*
Y0187175D01*
Y0175675D02*
X0425428D01*
Y0187175D01*
X0426428D02*
X0431928D01*
X0426428Y0175675D02*
Y0187175D01*
Y0175675D02*
X0431928D01*
Y0187175D01*
X0448478Y0242125D02*
Y0253125D01*
Y0242125D02*
X0454478D01*
Y0253125D01*
X0448478D02*
X0454478D01*
X0371578Y0257925D02*
X0382578D01*
X0371578Y0251925D02*
Y0257925D01*
Y0251925D02*
X0382578D01*
Y0257925D01*
X0368308Y0158640D02*
X0373808D01*
X0368308Y0147140D02*
Y0158640D01*
Y0147140D02*
X0373808D01*
Y0158640D01*
X0361615D02*
X0367115D01*
X0361615Y0147140D02*
Y0158640D01*
Y0147140D02*
X0367115D01*
Y0158640D01*
X0245991Y0313433D02*
Y0330756D01*
X0275124D01*
Y0313433D02*
Y0330756D01*
X0245991Y0302016D02*
Y0304378D01*
Y0302016D02*
X0275124D01*
Y0304378D01*
X0282378Y0321725D02*
X0293378D01*
X0282378Y0315725D02*
Y0321725D01*
Y0315725D02*
X0293378D01*
Y0321725D01*
D13*
X0102554Y0224394D02*
X0103342D01*
D14*
X0489438Y0128957D02*
Y0132894D01*
Y0128957D02*
X0496918D01*
Y0132894D01*
X0489438D02*
X0496918D01*
X0489138Y0180557D02*
Y0184494D01*
Y0180557D02*
X0496618D01*
Y0184494D01*
X0489138D02*
X0496618D01*
X0489387Y0163657D02*
Y0167594D01*
Y0163657D02*
X0496868D01*
Y0167594D01*
X0489387D02*
X0496868D01*
X0489138Y0214657D02*
Y0218594D01*
Y0214657D02*
X0496618D01*
Y0218594D01*
X0489138D02*
X0496618D01*
X0489388Y0146357D02*
Y0150294D01*
Y0146357D02*
X0496869D01*
Y0150294D01*
X0489388D02*
X0496869D01*
X0489138Y0248457D02*
Y0252394D01*
Y0248457D02*
X0496618D01*
Y0252394D01*
X0489138D02*
X0496618D01*
X0489288Y0231557D02*
Y0235494D01*
Y0231557D02*
X0496769D01*
Y0235494D01*
X0489288D02*
X0496769D01*
X0489038Y0282157D02*
Y0286094D01*
Y0282157D02*
X0496518D01*
Y0286094D01*
X0489038D02*
X0496518D01*
X0489238Y0265357D02*
Y0269294D01*
Y0265357D02*
X0496718D01*
Y0269294D01*
X0489238D02*
X0496718D01*
X0489038Y0315957D02*
Y0319894D01*
Y0315957D02*
X0496518D01*
Y0319894D01*
X0489038D02*
X0496518D01*
X0489087Y0299157D02*
Y0303094D01*
Y0299157D02*
X0496568D01*
Y0303094D01*
X0489087D02*
X0496568D01*
X0489185Y0197457D02*
Y0201394D01*
Y0197457D02*
X0496665D01*
Y0201394D01*
X0489185D02*
X0496665D01*
D15*
X0132221Y0328281D02*
X0131697Y0328806D01*
X0130647D01*
X0130122Y0328281D01*
Y0327756D01*
X0130647Y0327232D01*
X0131697D01*
X0132221Y0326707D01*
Y0326182D01*
X0131697Y0325657D01*
X0130647D01*
X0130122Y0326182D01*
X0133271Y0328806D02*
Y0326182D01*
X0133796Y0325657D01*
X0134845D01*
X0135370Y0326182D01*
Y0328806D01*
X0121058Y0328723D02*
X0122108D01*
X0121583D01*
Y0325575D01*
X0121058D01*
X0122108D01*
X0125256Y0328723D02*
X0124207D01*
X0123682Y0328199D01*
Y0326100D01*
X0124207Y0325575D01*
X0125256D01*
X0125781Y0326100D01*
Y0328199D01*
X0125256Y0328723D01*
X0128930D02*
X0127880Y0328199D01*
X0126831Y0327149D01*
Y0326100D01*
X0127356Y0325575D01*
X0128405D01*
X0128930Y0326100D01*
Y0326624D01*
X0128405Y0327149D01*
X0126831D01*
X0113637Y0328330D02*
X0115737D01*
X0114687D01*
Y0325181D01*
X0116786Y0328330D02*
X0118885Y0325181D01*
Y0328330D02*
X0116786Y0325181D01*
X0105655D02*
Y0328330D01*
X0107229D01*
X0107754Y0327805D01*
Y0326755D01*
X0107229Y0326231D01*
X0105655D01*
X0106705D02*
X0107754Y0325181D01*
X0108804Y0328330D02*
X0110903Y0325181D01*
Y0328330D02*
X0108804Y0325181D01*
X0098163Y0313633D02*
X0095014D01*
Y0315207D01*
X0095539Y0315732D01*
X0096588D01*
X0097113Y0315207D01*
Y0313633D01*
X0095014Y0316782D02*
X0098163D01*
X0097113Y0317831D01*
X0098163Y0318881D01*
X0095014D01*
X0098163Y0319930D02*
X0095014D01*
Y0321505D01*
X0095539Y0322029D01*
X0096588D01*
X0097113Y0321505D01*
Y0319930D01*
Y0320980D02*
X0098163Y0322029D01*
X0158157Y0116974D02*
X0160256D01*
X0159206Y0118023D02*
Y0115924D01*
X0163405Y0118548D02*
X0161305D01*
Y0116974D01*
X0162355Y0117499D01*
X0162880D01*
X0163405Y0116974D01*
Y0115924D01*
X0162880Y0115400D01*
X0161830D01*
X0161305Y0115924D01*
X0164454Y0118548D02*
Y0116449D01*
X0165504Y0115400D01*
X0166553Y0116449D01*
Y0118548D01*
X0253342Y0118488D02*
X0250193D01*
Y0120062D01*
X0250718Y0120587D01*
X0251767D01*
X0252292Y0120062D01*
Y0118488D01*
Y0119538D02*
X0253342Y0120587D01*
X0250193Y0123736D02*
X0250718Y0122686D01*
X0251767Y0121637D01*
X0252817D01*
X0253342Y0122162D01*
Y0123211D01*
X0252817Y0123736D01*
X0252292D01*
X0251767Y0123211D01*
Y0121637D01*
X0250718Y0124785D02*
X0250193Y0125310D01*
Y0126360D01*
X0250718Y0126884D01*
X0252817D01*
X0253342Y0126360D01*
Y0125310D01*
X0252817Y0124785D01*
X0250718D01*
X0148814Y0242999D02*
X0145666D01*
Y0244573D01*
X0146190Y0245098D01*
X0147240D01*
X0147765Y0244573D01*
Y0242999D01*
Y0244049D02*
X0148814Y0245098D01*
Y0247722D02*
X0145666D01*
X0147240Y0246148D01*
Y0248247D01*
X0148289Y0249296D02*
X0148814Y0249821D01*
Y0250871D01*
X0148289Y0251395D01*
X0146190D01*
X0145666Y0250871D01*
Y0249821D01*
X0146190Y0249296D01*
X0146715D01*
X0147240Y0249821D01*
Y0251395D01*
X0157624Y0303371D02*
X0157099Y0302846D01*
Y0301796D01*
X0157624Y0301272D01*
X0159723D01*
X0160248Y0301796D01*
Y0302846D01*
X0159723Y0303371D01*
X0157624Y0304420D02*
X0157099Y0304945D01*
Y0305995D01*
X0157624Y0306519D01*
X0158149D01*
X0158674Y0305995D01*
Y0305470D01*
Y0305995D01*
X0159198Y0306519D01*
X0159723D01*
X0160248Y0305995D01*
Y0304945D01*
X0159723Y0304420D01*
X0157099Y0307569D02*
Y0309668D01*
X0157624D01*
X0159723Y0307569D01*
X0160248D01*
X0103888Y0266928D02*
Y0264304D01*
X0104413Y0263779D01*
X0105462D01*
X0105987Y0264304D01*
Y0266928D01*
X0107036Y0263779D02*
X0108086D01*
X0107561D01*
Y0266928D01*
X0107036Y0266403D01*
X0109660D02*
X0110185Y0266928D01*
X0111235D01*
X0111759Y0266403D01*
Y0265878D01*
X0111235Y0265353D01*
X0110710D01*
X0111235D01*
X0111759Y0264829D01*
Y0264304D01*
X0111235Y0263779D01*
X0110185D01*
X0109660Y0264304D01*
X0153342Y0310777D02*
X0150193D01*
Y0312351D01*
X0150718Y0312876D01*
X0151767D01*
X0152292Y0312351D01*
Y0310777D01*
Y0311827D02*
X0153342Y0312876D01*
X0150193Y0313926D02*
Y0316025D01*
X0150718D01*
X0152817Y0313926D01*
X0153342D01*
X0152817Y0317074D02*
X0153342Y0317599D01*
Y0318649D01*
X0152817Y0319173D01*
X0150718D01*
X0150193Y0318649D01*
Y0317599D01*
X0150718Y0317074D01*
X0151243D01*
X0151767Y0317599D01*
Y0319173D01*
X0168341Y0248975D02*
Y0252123D01*
X0169916D01*
X0170440Y0251599D01*
Y0250549D01*
X0169916Y0250024D01*
X0168341D01*
X0169391D02*
X0170440Y0248975D01*
X0173589Y0252123D02*
X0172539Y0251599D01*
X0171490Y0250549D01*
Y0249500D01*
X0172015Y0248975D01*
X0173064D01*
X0173589Y0249500D01*
Y0250024D01*
X0173064Y0250549D01*
X0171490D01*
X0174638Y0251599D02*
X0175163Y0252123D01*
X0176213D01*
X0176737Y0251599D01*
Y0251074D01*
X0176213Y0250549D01*
X0176737Y0250024D01*
Y0249500D01*
X0176213Y0248975D01*
X0175163D01*
X0174638Y0249500D01*
Y0250024D01*
X0175163Y0250549D01*
X0174638Y0251074D01*
Y0251599D01*
X0175163Y0250549D02*
X0176213D01*
X0140827Y0321244D02*
X0143975D01*
Y0322818D01*
X0143451Y0323343D01*
X0141352D01*
X0140827Y0322818D01*
Y0321244D01*
X0143975Y0324393D02*
Y0325442D01*
Y0324918D01*
X0140827D01*
X0141352Y0324393D01*
X0140827Y0329116D02*
X0141352Y0328066D01*
X0142401Y0327016D01*
X0143451D01*
X0143975Y0327541D01*
Y0328591D01*
X0143451Y0329116D01*
X0142926D01*
X0142401Y0328591D01*
Y0327016D01*
X0145469Y0321244D02*
X0148617D01*
Y0322818D01*
X0148093Y0323343D01*
X0145993D01*
X0145469Y0322818D01*
Y0321244D01*
X0148617Y0324393D02*
Y0325442D01*
Y0324918D01*
X0145469D01*
X0145993Y0324393D01*
X0145469Y0329116D02*
Y0327016D01*
X0147043D01*
X0146518Y0328066D01*
Y0328591D01*
X0147043Y0329116D01*
X0148093D01*
X0148617Y0328591D01*
Y0327541D01*
X0148093Y0327016D01*
X0149800Y0321244D02*
X0152948D01*
Y0322818D01*
X0152423Y0323343D01*
X0150324D01*
X0149800Y0322818D01*
Y0321244D01*
X0152948Y0324393D02*
Y0325442D01*
Y0324918D01*
X0149800D01*
X0150324Y0324393D01*
X0152423Y0327016D02*
X0152948Y0327541D01*
Y0328591D01*
X0152423Y0329116D01*
X0150324D01*
X0149800Y0328591D01*
Y0327541D01*
X0150324Y0327016D01*
X0150849D01*
X0151374Y0327541D01*
Y0329116D01*
X0121058Y0216519D02*
Y0213895D01*
X0121583Y0213370D01*
X0122633D01*
X0123157Y0213895D01*
Y0216519D01*
X0124207Y0213370D02*
X0125256D01*
X0124732D01*
Y0216519D01*
X0124207Y0215994D01*
X0126831D02*
X0127356Y0216519D01*
X0128405D01*
X0128930Y0215994D01*
Y0213895D01*
X0128405Y0213370D01*
X0127356D01*
X0126831Y0213895D01*
Y0215994D01*
X0250097Y0226466D02*
X0249048D01*
X0249572D01*
Y0223842D01*
X0249048Y0223317D01*
X0248523D01*
X0247998Y0223842D01*
X0253246Y0226466D02*
X0252196Y0225941D01*
X0251147Y0224891D01*
Y0223842D01*
X0251671Y0223317D01*
X0252721D01*
X0253246Y0223842D01*
Y0224366D01*
X0252721Y0224891D01*
X0251147D01*
X0172045Y0127542D02*
X0170996D01*
X0171520D01*
Y0124918D01*
X0170996Y0124394D01*
X0170471D01*
X0169946Y0124918D01*
X0175194Y0127542D02*
X0173095D01*
Y0125968D01*
X0174144Y0126493D01*
X0174669D01*
X0175194Y0125968D01*
Y0124918D01*
X0174669Y0124394D01*
X0173619D01*
X0173095Y0124918D01*
X0211610Y0181274D02*
Y0178650D01*
X0212134Y0178125D01*
X0213184D01*
X0213708Y0178650D01*
Y0181274D01*
X0214758Y0178125D02*
X0215808D01*
X0215283D01*
Y0181274D01*
X0214758Y0180749D01*
X0217382Y0178125D02*
X0218431D01*
X0217907D01*
Y0181274D01*
X0217382Y0180749D01*
X0236570Y0182671D02*
X0236045Y0182147D01*
Y0181097D01*
X0236570Y0180572D01*
X0238669D01*
X0239194Y0181097D01*
Y0182147D01*
X0238669Y0182671D01*
X0236045Y0183721D02*
Y0185820D01*
X0236570D01*
X0238669Y0183721D01*
X0239194D01*
X0236570Y0186870D02*
X0236045Y0187394D01*
Y0188444D01*
X0236570Y0188969D01*
X0238669D01*
X0239194Y0188444D01*
Y0187394D01*
X0238669Y0186870D01*
X0236570D01*
X0243631Y0175833D02*
X0243107Y0175309D01*
Y0174259D01*
X0243631Y0173734D01*
X0245730D01*
X0246255Y0174259D01*
Y0175309D01*
X0245730Y0175833D01*
X0243107Y0178982D02*
X0243631Y0177933D01*
X0244681Y0176883D01*
X0245730D01*
X0246255Y0177408D01*
Y0178457D01*
X0245730Y0178982D01*
X0245206D01*
X0244681Y0178457D01*
Y0176883D01*
X0245730Y0180032D02*
X0246255Y0180556D01*
Y0181606D01*
X0245730Y0182131D01*
X0243631D01*
X0243107Y0181606D01*
Y0180556D01*
X0243631Y0180032D01*
X0244156D01*
X0244681Y0180556D01*
Y0182131D01*
X0135847Y0187738D02*
Y0190887D01*
X0137421D01*
X0137946Y0190362D01*
Y0189313D01*
X0137421Y0188788D01*
X0135847D01*
X0136896D02*
X0137946Y0187738D01*
X0141094Y0190887D02*
X0140045Y0190362D01*
X0138995Y0189313D01*
Y0188263D01*
X0139520Y0187738D01*
X0140569D01*
X0141094Y0188263D01*
Y0188788D01*
X0140569Y0189313D01*
X0138995D01*
X0142144Y0188263D02*
X0142668Y0187738D01*
X0143718D01*
X0144243Y0188263D01*
Y0190362D01*
X0143718Y0190887D01*
X0142668D01*
X0142144Y0190362D01*
Y0189837D01*
X0142668Y0189313D01*
X0144243D01*
X0128776Y0253396D02*
X0128251Y0253920D01*
X0127201D01*
X0126676Y0253396D01*
Y0251296D01*
X0127201Y0250772D01*
X0128251D01*
X0128776Y0251296D01*
X0129825Y0253920D02*
X0131924D01*
Y0253396D01*
X0129825Y0251296D01*
Y0250772D01*
X0135073D02*
X0132974D01*
X0135073Y0252871D01*
Y0253396D01*
X0134548Y0253920D01*
X0133498D01*
X0132974Y0253396D01*
X0117525Y0250091D02*
X0117000Y0250616D01*
X0115951D01*
X0115426Y0250091D01*
Y0247992D01*
X0115951Y0247467D01*
X0117000D01*
X0117525Y0247992D01*
X0118575Y0250616D02*
X0120674D01*
Y0250091D01*
X0118575Y0247992D01*
Y0247467D01*
X0121723D02*
X0122773D01*
X0122248D01*
Y0250616D01*
X0121723Y0250091D01*
X0138020Y0305380D02*
Y0308528D01*
X0139594D01*
X0140119Y0308004D01*
Y0306954D01*
X0139594Y0306430D01*
X0138020D01*
X0139070D02*
X0140119Y0305380D01*
X0141169Y0308528D02*
X0143268D01*
Y0308004D01*
X0141169Y0305905D01*
Y0305380D01*
X0144317Y0308004D02*
X0144842Y0308528D01*
X0145892D01*
X0146416Y0308004D01*
Y0305905D01*
X0145892Y0305380D01*
X0144842D01*
X0144317Y0305905D01*
Y0308004D01*
X0136691Y0180693D02*
Y0183842D01*
X0138265D01*
X0138790Y0183317D01*
Y0182267D01*
X0138265Y0181743D01*
X0136691D01*
X0137740D02*
X0138790Y0180693D01*
X0139839Y0183842D02*
X0141938D01*
Y0183317D01*
X0139839Y0181218D01*
Y0180693D01*
X0142988D02*
X0144037D01*
X0143512D01*
Y0183842D01*
X0142988Y0183317D01*
X0147960Y0209694D02*
X0147436Y0210219D01*
X0146386D01*
X0145861Y0209694D01*
Y0207595D01*
X0146386Y0207070D01*
X0147436D01*
X0147960Y0207595D01*
X0149010Y0210219D02*
X0151109D01*
Y0209694D01*
X0149010Y0207595D01*
Y0207070D01*
X0153733D02*
Y0210219D01*
X0152159Y0208645D01*
X0154258D01*
X0138139Y0197962D02*
X0137615Y0198487D01*
X0136565D01*
X0136040Y0197962D01*
Y0195863D01*
X0136565Y0195338D01*
X0137615D01*
X0138139Y0195863D01*
X0139189Y0198487D02*
X0141288D01*
Y0197962D01*
X0139189Y0195863D01*
Y0195338D01*
X0142337Y0197962D02*
X0142862Y0198487D01*
X0143912D01*
X0144437Y0197962D01*
Y0197437D01*
X0143912Y0196913D01*
X0143387D01*
X0143912D01*
X0144437Y0196388D01*
Y0195863D01*
X0143912Y0195338D01*
X0142862D01*
X0142337Y0195863D01*
X0165192Y0181225D02*
X0162043D01*
Y0182799D01*
X0162568Y0183324D01*
X0163617D01*
X0164142Y0182799D01*
Y0181225D01*
Y0182275D02*
X0165192Y0183324D01*
X0162043Y0184374D02*
Y0186473D01*
X0162568D01*
X0164667Y0184374D01*
X0165192D01*
Y0189621D02*
Y0187522D01*
X0163093Y0189621D01*
X0162568D01*
X0162043Y0189097D01*
Y0188047D01*
X0162568Y0187522D01*
X0120898Y0254725D02*
Y0257874D01*
X0122472D01*
X0122997Y0257349D01*
Y0256299D01*
X0122472Y0255774D01*
X0120898D01*
X0121948D02*
X0122997Y0254725D01*
X0124047Y0257349D02*
X0124571Y0257874D01*
X0125621D01*
X0126146Y0257349D01*
Y0256824D01*
X0125621Y0256299D01*
X0126146Y0255774D01*
Y0255250D01*
X0125621Y0254725D01*
X0124571D01*
X0124047Y0255250D01*
Y0255774D01*
X0124571Y0256299D01*
X0124047Y0256824D01*
Y0257349D01*
X0124571Y0256299D02*
X0125621D01*
X0127195Y0257349D02*
X0127720Y0257874D01*
X0128770D01*
X0129294Y0257349D01*
Y0255250D01*
X0128770Y0254725D01*
X0127720D01*
X0127195Y0255250D01*
Y0257349D01*
X0102366Y0273606D02*
X0099217D01*
Y0275181D01*
X0099742Y0275705D01*
X0100791D01*
X0101316Y0275181D01*
Y0273606D01*
Y0274656D02*
X0102366Y0275705D01*
X0099217Y0276755D02*
Y0278854D01*
X0099742D01*
X0101841Y0276755D01*
X0102366D01*
X0099742Y0279904D02*
X0099217Y0280428D01*
Y0281478D01*
X0099742Y0282002D01*
X0100266D01*
X0100791Y0281478D01*
Y0280953D01*
Y0281478D01*
X0101316Y0282002D01*
X0101841D01*
X0102366Y0281478D01*
Y0280428D01*
X0101841Y0279904D01*
X0157644Y0311110D02*
X0154496D01*
Y0312685D01*
X0155020Y0313209D01*
X0156070D01*
X0156595Y0312685D01*
Y0311110D01*
Y0312160D02*
X0157644Y0313209D01*
X0154496Y0314259D02*
Y0316358D01*
X0155020D01*
X0157120Y0314259D01*
X0157644D01*
Y0318982D02*
X0154496D01*
X0156070Y0317407D01*
Y0319507D01*
X0139917Y0311110D02*
X0136768D01*
Y0312685D01*
X0137293Y0313209D01*
X0138343D01*
X0138867Y0312685D01*
Y0311110D01*
Y0312160D02*
X0139917Y0313209D01*
X0136768Y0314259D02*
Y0316358D01*
X0137293D01*
X0139392Y0314259D01*
X0139917D01*
X0136768Y0319507D02*
Y0317407D01*
X0138343D01*
X0137818Y0318457D01*
Y0318982D01*
X0138343Y0319507D01*
X0139392D01*
X0139917Y0318982D01*
Y0317932D01*
X0139392Y0317407D01*
X0098181Y0273606D02*
X0095033D01*
Y0275181D01*
X0095557Y0275705D01*
X0096607D01*
X0097132Y0275181D01*
Y0273606D01*
Y0274656D02*
X0098181Y0275705D01*
X0095033Y0276755D02*
Y0278854D01*
X0095557D01*
X0097656Y0276755D01*
X0098181D01*
X0095033Y0282002D02*
X0095557Y0280953D01*
X0096607Y0279904D01*
X0097656D01*
X0098181Y0280428D01*
Y0281478D01*
X0097656Y0282002D01*
X0097132D01*
X0096607Y0281478D01*
Y0279904D01*
X0154318Y0321244D02*
X0157466D01*
Y0322818D01*
X0156941Y0323343D01*
X0154842D01*
X0154318Y0322818D01*
Y0321244D01*
X0157466Y0324393D02*
Y0325442D01*
Y0324918D01*
X0154318D01*
X0154842Y0324393D01*
X0154318Y0327016D02*
Y0329116D01*
X0154842D01*
X0156941Y0327016D01*
X0157466D01*
X0136414Y0321244D02*
X0139562D01*
Y0322818D01*
X0139037Y0323343D01*
X0136938D01*
X0136414Y0322818D01*
Y0321244D01*
X0139562Y0324393D02*
Y0325442D01*
Y0324918D01*
X0136414D01*
X0136938Y0324393D01*
Y0327016D02*
X0136414Y0327541D01*
Y0328591D01*
X0136938Y0329116D01*
X0137463D01*
X0137988Y0328591D01*
X0138513Y0329116D01*
X0139037D01*
X0139562Y0328591D01*
Y0327541D01*
X0139037Y0327016D01*
X0138513D01*
X0137988Y0327541D01*
X0137463Y0327016D01*
X0136938D01*
X0137988Y0327541D02*
Y0328591D01*
X0117860Y0197675D02*
X0117335Y0197150D01*
Y0196100D01*
X0117860Y0195576D01*
X0119959D01*
X0120484Y0196100D01*
Y0197150D01*
X0119959Y0197675D01*
X0117335Y0198724D02*
Y0200823D01*
X0117860D01*
X0119959Y0198724D01*
X0120484D01*
X0117335Y0201873D02*
Y0203972D01*
X0117860D01*
X0119959Y0201873D01*
X0120484D01*
X0142382Y0216256D02*
X0141857Y0215732D01*
Y0214682D01*
X0142382Y0214158D01*
X0144481D01*
X0145006Y0214682D01*
Y0215732D01*
X0144481Y0216256D01*
X0141857Y0217306D02*
Y0219405D01*
X0142382D01*
X0144481Y0217306D01*
X0145006D01*
X0141857Y0222554D02*
X0142382Y0221504D01*
X0143431Y0220455D01*
X0144481D01*
X0145006Y0220979D01*
Y0222029D01*
X0144481Y0222554D01*
X0143956D01*
X0143431Y0222029D01*
Y0220455D01*
X0132685Y0194013D02*
X0132160Y0193488D01*
Y0192439D01*
X0132685Y0191914D01*
X0134784D01*
X0135309Y0192439D01*
Y0193488D01*
X0134784Y0194013D01*
X0132160Y0195062D02*
Y0197161D01*
X0132685D01*
X0134784Y0195062D01*
X0135309D01*
X0132160Y0200310D02*
Y0198211D01*
X0133735D01*
X0133210Y0199260D01*
Y0199785D01*
X0133735Y0200310D01*
X0134784D01*
X0135309Y0199785D01*
Y0198736D01*
X0134784Y0198211D01*
X0128194Y0279610D02*
Y0282759D01*
X0129768D01*
X0130293Y0282234D01*
Y0281185D01*
X0129768Y0280660D01*
X0128194D01*
X0129244D02*
X0130293Y0279610D01*
X0131343Y0282759D02*
X0133442D01*
Y0282234D01*
X0131343Y0280135D01*
Y0279610D01*
X0134491Y0282759D02*
X0136590D01*
Y0282234D01*
X0134491Y0280135D01*
Y0279610D01*
X0122902Y0292504D02*
Y0295653D01*
X0124477D01*
X0125001Y0295128D01*
Y0294078D01*
X0124477Y0293553D01*
X0122902D01*
X0123952D02*
X0125001Y0292504D01*
X0126051Y0295653D02*
X0128150D01*
Y0295128D01*
X0126051Y0293029D01*
Y0292504D01*
X0129200Y0295128D02*
X0129724Y0295653D01*
X0130774D01*
X0131298Y0295128D01*
Y0294603D01*
X0130774Y0294078D01*
X0131298Y0293553D01*
Y0293029D01*
X0130774Y0292504D01*
X0129724D01*
X0129200Y0293029D01*
Y0293553D01*
X0129724Y0294078D01*
X0129200Y0294603D01*
Y0295128D01*
X0129724Y0294078D02*
X0130774D01*
X0322243Y0161001D02*
Y0158377D01*
X0322768Y0157853D01*
X0323818D01*
X0324342Y0158377D01*
Y0161001D01*
X0325392Y0157853D02*
X0326441D01*
X0325917D01*
Y0161001D01*
X0325392Y0160476D01*
X0330115Y0157853D02*
X0328016D01*
X0330115Y0159952D01*
Y0160476D01*
X0329590Y0161001D01*
X0328540D01*
X0328016Y0160476D01*
X0319078Y0131480D02*
Y0134629D01*
X0320652D01*
X0321177Y0134104D01*
Y0133055D01*
X0320652Y0132530D01*
X0319078D01*
X0320128D02*
X0321177Y0131480D01*
X0322227Y0134104D02*
X0322751Y0134629D01*
X0323801D01*
X0324326Y0134104D01*
Y0133579D01*
X0323801Y0133055D01*
X0324326Y0132530D01*
Y0132005D01*
X0323801Y0131480D01*
X0322751D01*
X0322227Y0132005D01*
Y0132530D01*
X0322751Y0133055D01*
X0322227Y0133579D01*
Y0134104D01*
X0322751Y0133055D02*
X0323801D01*
X0325375Y0131480D02*
X0326425D01*
X0325900D01*
Y0134629D01*
X0325375Y0134104D01*
X0385678Y0304725D02*
X0382529D01*
Y0306299D01*
X0383054Y0306824D01*
X0384104D01*
X0384628Y0306299D01*
Y0304725D01*
Y0305775D02*
X0385678Y0306824D01*
X0383054Y0309973D02*
X0382529Y0309448D01*
Y0308399D01*
X0383054Y0307874D01*
X0383579D01*
X0384104Y0308399D01*
Y0309448D01*
X0384628Y0309973D01*
X0385153D01*
X0385678Y0309448D01*
Y0308399D01*
X0385153Y0307874D01*
X0382529Y0311022D02*
Y0313121D01*
Y0312072D01*
X0385678D01*
X0373054Y0299724D02*
X0372529Y0299200D01*
Y0298150D01*
X0373054Y0297625D01*
X0373579D01*
X0374104Y0298150D01*
Y0299200D01*
X0374628Y0299724D01*
X0375153D01*
X0375678Y0299200D01*
Y0298150D01*
X0375153Y0297625D01*
X0372529Y0300774D02*
X0375678D01*
X0374628Y0301823D01*
X0375678Y0302873D01*
X0372529D01*
Y0303922D02*
X0375678D01*
Y0305497D01*
X0375153Y0306021D01*
X0373054D01*
X0372529Y0305497D01*
Y0303922D01*
Y0307071D02*
Y0308120D01*
Y0307596D01*
X0375678D01*
Y0307071D01*
Y0308120D01*
X0372529Y0311269D02*
Y0310220D01*
X0373054Y0309695D01*
X0375153D01*
X0375678Y0310220D01*
Y0311269D01*
X0375153Y0311794D01*
X0373054D01*
X0372529Y0311269D01*
X0362854Y0299124D02*
X0362329Y0298600D01*
Y0297550D01*
X0362854Y0297025D01*
X0363379D01*
X0363904Y0297550D01*
Y0298600D01*
X0364428Y0299124D01*
X0364953D01*
X0365478Y0298600D01*
Y0297550D01*
X0364953Y0297025D01*
X0362329Y0300174D02*
X0365478D01*
X0364428Y0301223D01*
X0365478Y0302273D01*
X0362329D01*
X0362854Y0305421D02*
X0362329Y0304897D01*
Y0303847D01*
X0362854Y0303322D01*
X0364953D01*
X0365478Y0303847D01*
Y0304897D01*
X0364953Y0305421D01*
X0362329Y0306471D02*
X0365478D01*
Y0308570D01*
X0362329Y0309620D02*
X0365478D01*
X0364428D01*
X0362329Y0311719D01*
X0363904Y0310144D01*
X0365478Y0311719D01*
X0352854Y0307024D02*
X0352329Y0306500D01*
Y0305450D01*
X0352854Y0304925D01*
X0354953D01*
X0355478Y0305450D01*
Y0306500D01*
X0354953Y0307024D01*
X0353904D01*
Y0305975D01*
X0355478Y0308074D02*
X0352329D01*
X0355478Y0310173D01*
X0352329D01*
Y0311222D02*
X0355478D01*
Y0312797D01*
X0354953Y0313321D01*
X0352854D01*
X0352329Y0312797D01*
Y0311222D01*
X0300278Y0177799D02*
X0302377D01*
X0301327Y0178849D02*
Y0176750D01*
X0303427Y0176225D02*
X0304476D01*
X0303951D01*
Y0179374D01*
X0303427Y0178849D01*
X0306050Y0179374D02*
Y0177275D01*
X0307100Y0176225D01*
X0308149Y0177275D01*
Y0179374D01*
X0309199Y0178849D02*
X0309724Y0179374D01*
X0310773D01*
X0311298Y0178849D01*
Y0178324D01*
X0310773Y0177799D01*
X0311298Y0177275D01*
Y0176750D01*
X0310773Y0176225D01*
X0309724D01*
X0309199Y0176750D01*
Y0177275D01*
X0309724Y0177799D01*
X0309199Y0178324D01*
Y0178849D01*
X0309724Y0177799D02*
X0310773D01*
X0421178Y0158500D02*
X0423277D01*
X0422227Y0159549D02*
Y0157450D01*
X0426426Y0156925D02*
X0424327D01*
X0426426Y0159024D01*
Y0159549D01*
X0425901Y0160074D01*
X0424851D01*
X0424327Y0159549D01*
X0427475Y0160074D02*
Y0157975D01*
X0428525Y0156925D01*
X0429574Y0157975D01*
Y0160074D01*
X0430624Y0159549D02*
X0431148Y0160074D01*
X0432198D01*
X0432723Y0159549D01*
Y0159024D01*
X0432198Y0158500D01*
X0432723Y0157975D01*
Y0157450D01*
X0432198Y0156925D01*
X0431148D01*
X0430624Y0157450D01*
Y0157975D01*
X0431148Y0158500D01*
X0430624Y0159024D01*
Y0159549D01*
X0431148Y0158500D02*
X0432198D01*
X0349535Y0125049D02*
X0349010Y0125574D01*
X0347961D01*
X0347436Y0125049D01*
Y0122950D01*
X0347961Y0122425D01*
X0349010D01*
X0349535Y0122950D01*
Y0124000D01*
X0348486D01*
X0350585Y0122425D02*
Y0125574D01*
X0352684Y0122425D01*
Y0125574D01*
X0353733D02*
Y0122425D01*
X0355308D01*
X0355833Y0122950D01*
Y0125049D01*
X0355308Y0125574D01*
X0353733D01*
X0343515Y0180298D02*
Y0178199D01*
X0344565Y0177150D01*
X0345614Y0178199D01*
Y0180298D01*
X0348763Y0179773D02*
X0348238Y0180298D01*
X0347188D01*
X0346663Y0179773D01*
Y0177674D01*
X0347188Y0177150D01*
X0348238D01*
X0348763Y0177674D01*
X0349812Y0177150D02*
Y0180298D01*
X0351386D01*
X0351911Y0179773D01*
Y0178724D01*
X0351386Y0178199D01*
X0349812D01*
X0352961Y0180298D02*
Y0177674D01*
X0353485Y0177150D01*
X0354535D01*
X0355060Y0177674D01*
Y0180298D01*
X0328978Y0178724D02*
X0331077D01*
X0330028Y0179773D02*
Y0177674D01*
X0332126Y0177150D02*
X0333176D01*
X0332651D01*
Y0180298D01*
X0332126Y0179773D01*
X0334750Y0180298D02*
Y0178199D01*
X0335800Y0177150D01*
X0336849Y0178199D01*
Y0180298D01*
X0337899Y0179773D02*
X0338424Y0180298D01*
X0339473D01*
X0339998Y0179773D01*
Y0179249D01*
X0339473Y0178724D01*
X0339998Y0178199D01*
Y0177674D01*
X0339473Y0177150D01*
X0338424D01*
X0337899Y0177674D01*
Y0178199D01*
X0338424Y0178724D01*
X0337899Y0179249D01*
Y0179773D01*
X0338424Y0178724D02*
X0339473D01*
X0333657Y0148481D02*
X0335756D01*
X0334706Y0149531D02*
Y0147432D01*
X0338904Y0146907D02*
X0336805D01*
X0338904Y0149006D01*
Y0149531D01*
X0338380Y0150056D01*
X0337330D01*
X0336805Y0149531D01*
X0339954Y0150056D02*
Y0147957D01*
X0341003Y0146907D01*
X0342053Y0147957D01*
Y0150056D01*
X0343103Y0149531D02*
X0343627Y0150056D01*
X0344677D01*
X0345201Y0149531D01*
Y0149006D01*
X0344677Y0148481D01*
X0345201Y0147957D01*
Y0147432D01*
X0344677Y0146907D01*
X0343627D01*
X0343103Y0147432D01*
Y0147957D01*
X0343627Y0148481D01*
X0343103Y0149006D01*
Y0149531D01*
X0343627Y0148481D02*
X0344677D01*
X0260428Y0212435D02*
X0262527D01*
X0261478Y0213485D02*
Y0211385D01*
X0263577Y0213485D02*
X0264102Y0214009D01*
X0265151D01*
X0265676Y0213485D01*
Y0212960D01*
X0265151Y0212435D01*
X0264627D01*
X0265151D01*
X0265676Y0211910D01*
Y0211385D01*
X0265151Y0210861D01*
X0264102D01*
X0263577Y0211385D01*
X0266725Y0214009D02*
Y0211910D01*
X0267775Y0210861D01*
X0268825Y0211910D01*
Y0214009D01*
X0269874Y0213485D02*
X0270399Y0214009D01*
X0271448D01*
X0271973Y0213485D01*
Y0212960D01*
X0271448Y0212435D01*
X0270924D01*
X0271448D01*
X0271973Y0211910D01*
Y0211385D01*
X0271448Y0210861D01*
X0270399D01*
X0269874Y0211385D01*
X0135276Y0259695D02*
X0134751Y0260220D01*
X0133702D01*
X0133177Y0259695D01*
Y0257596D01*
X0133702Y0257071D01*
X0134751D01*
X0135276Y0257596D01*
Y0258645D01*
X0134226D01*
X0136325Y0257071D02*
Y0260220D01*
X0138425Y0257071D01*
Y0260220D01*
X0139474D02*
Y0257071D01*
X0141048D01*
X0141573Y0257596D01*
Y0259695D01*
X0141048Y0260220D01*
X0139474D01*
X0138365Y0288566D02*
X0136265D01*
Y0286992D01*
X0137315Y0287516D01*
X0137840D01*
X0138365Y0286992D01*
Y0285942D01*
X0137840Y0285417D01*
X0136790D01*
X0136265Y0285942D01*
X0139414Y0288566D02*
Y0286467D01*
X0140463Y0285417D01*
X0141513Y0286467D01*
Y0288566D01*
X0136040Y0266853D02*
Y0270002D01*
X0137615D01*
X0138139Y0269477D01*
Y0268427D01*
X0137615Y0267903D01*
X0136040D01*
X0137090D02*
X0138139Y0266853D01*
X0139189Y0270002D02*
X0141288Y0266853D01*
Y0270002D02*
X0139189Y0266853D01*
X0135764Y0279065D02*
X0137863D01*
X0136813D01*
Y0275916D01*
X0138912Y0279065D02*
X0141011Y0275916D01*
Y0279065D02*
X0138912Y0275916D01*
X0276678Y0329274D02*
Y0326125D01*
X0278252D01*
X0278777Y0326650D01*
Y0327175D01*
X0278252Y0327699D01*
X0276678D01*
X0278252D01*
X0278777Y0328224D01*
Y0328749D01*
X0278252Y0329274D01*
X0276678D01*
X0279826D02*
X0281926D01*
X0280876D01*
Y0326125D01*
X0282975D02*
Y0329274D01*
X0285074Y0326125D01*
Y0329274D01*
X0149453Y0140797D02*
X0148928Y0141322D01*
X0147879D01*
X0147354Y0140797D01*
Y0138698D01*
X0147879Y0138173D01*
X0148928D01*
X0149453Y0138698D01*
X0152601Y0141322D02*
X0151552Y0140797D01*
X0150502Y0139748D01*
Y0138698D01*
X0151027Y0138173D01*
X0152077D01*
X0152601Y0138698D01*
Y0139223D01*
X0152077Y0139748D01*
X0150502D01*
X0153651Y0140797D02*
X0154176Y0141322D01*
X0155225D01*
X0155750Y0140797D01*
Y0140272D01*
X0155225Y0139748D01*
X0155750Y0139223D01*
Y0138698D01*
X0155225Y0138173D01*
X0154176D01*
X0153651Y0138698D01*
Y0139223D01*
X0154176Y0139748D01*
X0153651Y0140272D01*
Y0140797D01*
X0154176Y0139748D02*
X0155225D01*
X0348354Y0166609D02*
X0347305D01*
X0347829D01*
Y0163985D01*
X0347305Y0163461D01*
X0346780D01*
X0346255Y0163985D01*
X0349404Y0163461D02*
X0350453D01*
X0349928D01*
Y0166609D01*
X0349404Y0166085D01*
X0177527Y0208562D02*
Y0205938D01*
X0178051Y0205414D01*
X0179101D01*
X0179626Y0205938D01*
Y0208562D01*
X0180675Y0205938D02*
X0181200Y0205414D01*
X0182250D01*
X0182774Y0205938D01*
Y0208037D01*
X0182250Y0208562D01*
X0181200D01*
X0180675Y0208037D01*
Y0207513D01*
X0181200Y0206988D01*
X0182774D01*
X0451478Y0114945D02*
Y0118094D01*
X0453052D01*
X0453577Y0117569D01*
Y0116519D01*
X0453052Y0115994D01*
X0451478D01*
X0452528D02*
X0453577Y0114945D01*
X0456726Y0118094D02*
X0455676Y0117569D01*
X0454627Y0116519D01*
Y0115470D01*
X0455151Y0114945D01*
X0456201D01*
X0456726Y0115470D01*
Y0115994D01*
X0456201Y0116519D01*
X0454627D01*
X0457775Y0118094D02*
X0459874D01*
Y0117569D01*
X0457775Y0115470D01*
Y0114945D01*
X0349453Y0148661D02*
Y0151809D01*
X0351027D01*
X0351552Y0151285D01*
Y0150235D01*
X0351027Y0149710D01*
X0349453D01*
X0350502D02*
X0351552Y0148661D01*
X0354700Y0151809D02*
X0353651Y0151285D01*
X0352601Y0150235D01*
Y0149185D01*
X0353126Y0148661D01*
X0354176D01*
X0354700Y0149185D01*
Y0149710D01*
X0354176Y0150235D01*
X0352601D01*
X0357849Y0151809D02*
X0356800Y0151285D01*
X0355750Y0150235D01*
Y0149185D01*
X0356275Y0148661D01*
X0357324D01*
X0357849Y0149185D01*
Y0149710D01*
X0357324Y0150235D01*
X0355750D01*
X0342764Y0166791D02*
X0339616D01*
Y0168365D01*
X0340140Y0168890D01*
X0341190D01*
X0341715Y0168365D01*
Y0166791D01*
Y0167841D02*
X0342764Y0168890D01*
X0339616Y0172039D02*
X0340140Y0170989D01*
X0341190Y0169940D01*
X0342239D01*
X0342764Y0170464D01*
Y0171514D01*
X0342239Y0172039D01*
X0341715D01*
X0341190Y0171514D01*
Y0169940D01*
X0339616Y0175187D02*
Y0173088D01*
X0341190D01*
X0340665Y0174138D01*
Y0174662D01*
X0341190Y0175187D01*
X0342239D01*
X0342764Y0174662D01*
Y0173613D01*
X0342239Y0173088D01*
X0330677Y0182757D02*
X0327529D01*
Y0184331D01*
X0328053Y0184856D01*
X0329103D01*
X0329628Y0184331D01*
Y0182757D01*
Y0183806D02*
X0330677Y0184856D01*
X0327529Y0188004D02*
X0328053Y0186955D01*
X0329103Y0185905D01*
X0330152D01*
X0330677Y0186430D01*
Y0187480D01*
X0330152Y0188004D01*
X0329628D01*
X0329103Y0187480D01*
Y0185905D01*
X0330677Y0190628D02*
X0327529D01*
X0329103Y0189054D01*
Y0191153D01*
X0178763Y0235042D02*
Y0238191D01*
X0180337D01*
X0180862Y0237666D01*
Y0236616D01*
X0180337Y0236092D01*
X0178763D01*
X0179813D02*
X0180862Y0235042D01*
X0184011Y0238191D02*
X0182961Y0237666D01*
X0181912Y0236616D01*
Y0235567D01*
X0182436Y0235042D01*
X0183486D01*
X0184011Y0235567D01*
Y0236092D01*
X0183486Y0236616D01*
X0181912D01*
X0185060Y0237666D02*
X0185585Y0238191D01*
X0186635D01*
X0187159Y0237666D01*
Y0237141D01*
X0186635Y0236616D01*
X0186110D01*
X0186635D01*
X0187159Y0236092D01*
Y0235567D01*
X0186635Y0235042D01*
X0185585D01*
X0185060Y0235567D01*
X0141400Y0237147D02*
X0139301D01*
Y0235572D01*
X0140350D01*
X0139301D01*
Y0233998D01*
X0142449Y0237147D02*
Y0233998D01*
X0144024D01*
X0144549Y0234523D01*
Y0235048D01*
X0144024Y0235572D01*
X0142449D01*
X0144024D01*
X0144549Y0236097D01*
Y0236622D01*
X0144024Y0237147D01*
X0142449D01*
X0145598Y0233998D02*
X0146648D01*
X0146123D01*
Y0237147D01*
X0145598Y0236622D01*
X0148222D02*
X0148747Y0237147D01*
X0149796D01*
X0150321Y0236622D01*
Y0236097D01*
X0149796Y0235572D01*
X0149271D01*
X0149796D01*
X0150321Y0235048D01*
Y0234523D01*
X0149796Y0233998D01*
X0148747D01*
X0148222Y0234523D01*
X0422877Y0319449D02*
X0422352Y0319974D01*
X0421303D01*
X0420778Y0319449D01*
Y0317350D01*
X0421303Y0316825D01*
X0422352D01*
X0422877Y0317350D01*
X0423927Y0316825D02*
X0424976D01*
X0424451D01*
Y0319974D01*
X0423927Y0319449D01*
X0322477Y0226849D02*
X0321952Y0227374D01*
X0320903D01*
X0320378Y0226849D01*
Y0224750D01*
X0320903Y0224225D01*
X0321952D01*
X0322477Y0224750D01*
X0325626Y0224225D02*
X0323527D01*
X0325626Y0226324D01*
Y0226849D01*
X0325101Y0227374D01*
X0324051D01*
X0323527Y0226849D01*
X0434554Y0171624D02*
X0434029Y0171099D01*
Y0170050D01*
X0434554Y0169525D01*
X0436653D01*
X0437178Y0170050D01*
Y0171099D01*
X0436653Y0171624D01*
X0434554Y0172674D02*
X0434029Y0173199D01*
Y0174248D01*
X0434554Y0174773D01*
X0435079D01*
X0435604Y0174248D01*
Y0173723D01*
Y0174248D01*
X0436128Y0174773D01*
X0436653D01*
X0437178Y0174248D01*
Y0173199D01*
X0436653Y0172674D01*
X0422754Y0268624D02*
X0422229Y0268099D01*
Y0267050D01*
X0422754Y0266525D01*
X0424853D01*
X0425378Y0267050D01*
Y0268099D01*
X0424853Y0268624D01*
X0425378Y0271248D02*
X0422229D01*
X0423804Y0269674D01*
Y0271773D01*
X0414954Y0270724D02*
X0414429Y0270199D01*
Y0269150D01*
X0414954Y0268625D01*
X0417053D01*
X0417578Y0269150D01*
Y0270199D01*
X0417053Y0270724D01*
X0414429Y0273873D02*
Y0271774D01*
X0416004D01*
X0415479Y0272823D01*
Y0273348D01*
X0416004Y0273873D01*
X0417053D01*
X0417578Y0273348D01*
Y0272299D01*
X0417053Y0271774D01*
X0399354Y0270824D02*
X0398829Y0270300D01*
Y0269250D01*
X0399354Y0268725D01*
X0401453D01*
X0401978Y0269250D01*
Y0270300D01*
X0401453Y0270824D01*
X0398829Y0273973D02*
X0399354Y0272923D01*
X0400404Y0271874D01*
X0401453D01*
X0401978Y0272399D01*
Y0273448D01*
X0401453Y0273973D01*
X0400928D01*
X0400404Y0273448D01*
Y0271874D01*
X0391454Y0268224D02*
X0390929Y0267700D01*
Y0266650D01*
X0391454Y0266125D01*
X0393553D01*
X0394078Y0266650D01*
Y0267700D01*
X0393553Y0268224D01*
X0390929Y0269274D02*
Y0271373D01*
X0391454D01*
X0393553Y0269274D01*
X0394078D01*
X0415054Y0168724D02*
X0414529Y0168200D01*
Y0167150D01*
X0415054Y0166625D01*
X0417153D01*
X0417678Y0167150D01*
Y0168200D01*
X0417153Y0168724D01*
X0415054Y0169774D02*
X0414529Y0170299D01*
Y0171348D01*
X0415054Y0171873D01*
X0415579D01*
X0416104Y0171348D01*
X0416628Y0171873D01*
X0417153D01*
X0417678Y0171348D01*
Y0170299D01*
X0417153Y0169774D01*
X0416628D01*
X0416104Y0170299D01*
X0415579Y0169774D01*
X0415054D01*
X0416104Y0170299D02*
Y0171348D01*
X0408954Y0168824D02*
X0408429Y0168299D01*
Y0167250D01*
X0408954Y0166725D01*
X0411053D01*
X0411578Y0167250D01*
Y0168299D01*
X0411053Y0168824D01*
Y0169874D02*
X0411578Y0170399D01*
Y0171448D01*
X0411053Y0171973D01*
X0408954D01*
X0408429Y0171448D01*
Y0170399D01*
X0408954Y0169874D01*
X0409479D01*
X0410004Y0170399D01*
Y0171973D01*
X0407054Y0268424D02*
X0406529Y0267899D01*
Y0266850D01*
X0407054Y0266325D01*
X0409153D01*
X0409678Y0266850D01*
Y0267899D01*
X0409153Y0268424D01*
X0409678Y0269474D02*
Y0270523D01*
Y0269999D01*
X0406529D01*
X0407054Y0269474D01*
Y0272098D02*
X0406529Y0272622D01*
Y0273672D01*
X0407054Y0274197D01*
X0409153D01*
X0409678Y0273672D01*
Y0272622D01*
X0409153Y0272098D01*
X0407054D01*
X0457477Y0196449D02*
X0456952Y0196974D01*
X0455903D01*
X0455378Y0196449D01*
Y0194350D01*
X0455903Y0193825D01*
X0456952D01*
X0457477Y0194350D01*
X0458527Y0193825D02*
X0459576D01*
X0459051D01*
Y0196974D01*
X0458527Y0196449D01*
X0461150Y0193825D02*
X0462200D01*
X0461675D01*
Y0196974D01*
X0461150Y0196449D01*
X0477524Y0205849D02*
X0477000Y0206374D01*
X0475950D01*
X0475425Y0205849D01*
Y0203750D01*
X0475950Y0203225D01*
X0477000D01*
X0477524Y0203750D01*
X0478574Y0203225D02*
X0479623D01*
X0479099D01*
Y0206374D01*
X0478574Y0205849D01*
X0483297Y0203225D02*
X0481198D01*
X0483297Y0205324D01*
Y0205849D01*
X0482772Y0206374D01*
X0481722D01*
X0481198Y0205849D01*
X0500724Y0206196D02*
X0500200Y0206721D01*
X0499150D01*
X0498625Y0206196D01*
Y0204097D01*
X0499150Y0203573D01*
X0500200D01*
X0500724Y0204097D01*
X0501774Y0203573D02*
X0502823D01*
X0502299D01*
Y0206721D01*
X0501774Y0206196D01*
X0504398D02*
X0504922Y0206721D01*
X0505972D01*
X0506497Y0206196D01*
Y0205672D01*
X0505972Y0205147D01*
X0505447D01*
X0505972D01*
X0506497Y0204622D01*
Y0204097D01*
X0505972Y0203573D01*
X0504922D01*
X0504398Y0204097D01*
X0477577Y0307449D02*
X0477052Y0307974D01*
X0476003D01*
X0475478Y0307449D01*
Y0305350D01*
X0476003Y0304825D01*
X0477052D01*
X0477577Y0305350D01*
X0478627Y0304825D02*
X0479676D01*
X0479151D01*
Y0307974D01*
X0478627Y0307449D01*
X0482825Y0304825D02*
Y0307974D01*
X0481250Y0306399D01*
X0483349D01*
X0501277Y0307649D02*
X0500752Y0308174D01*
X0499703D01*
X0499178Y0307649D01*
Y0305550D01*
X0499703Y0305025D01*
X0500752D01*
X0501277Y0305550D01*
X0502327Y0305025D02*
X0503376D01*
X0502851D01*
Y0308174D01*
X0502327Y0307649D01*
X0507049Y0308174D02*
X0504950D01*
Y0306599D01*
X0506000Y0307124D01*
X0506525D01*
X0507049Y0306599D01*
Y0305550D01*
X0506525Y0305025D01*
X0505475D01*
X0504950Y0305550D01*
X0280377Y0297149D02*
X0279852Y0297674D01*
X0278803D01*
X0278278Y0297149D01*
Y0295050D01*
X0278803Y0294525D01*
X0279852D01*
X0280377Y0295050D01*
X0281427Y0294525D02*
X0282476D01*
X0281951D01*
Y0297674D01*
X0281427Y0297149D01*
X0286149Y0297674D02*
X0285100Y0297149D01*
X0284050Y0296099D01*
Y0295050D01*
X0284575Y0294525D01*
X0285625D01*
X0286149Y0295050D01*
Y0295575D01*
X0285625Y0296099D01*
X0284050D01*
X0477577Y0324549D02*
X0477052Y0325074D01*
X0476003D01*
X0475478Y0324549D01*
Y0322450D01*
X0476003Y0321925D01*
X0477052D01*
X0477577Y0322450D01*
X0478627Y0321925D02*
X0479676D01*
X0479151D01*
Y0325074D01*
X0478627Y0324549D01*
X0481250Y0325074D02*
X0483349D01*
Y0324549D01*
X0481250Y0322450D01*
Y0321925D01*
X0500677Y0324549D02*
X0500152Y0325074D01*
X0499103D01*
X0498578Y0324549D01*
Y0322450D01*
X0499103Y0321925D01*
X0500152D01*
X0500677Y0322450D01*
X0501727Y0321925D02*
X0502776D01*
X0502251D01*
Y0325074D01*
X0501727Y0324549D01*
X0504350D02*
X0504875Y0325074D01*
X0505925D01*
X0506449Y0324549D01*
Y0324024D01*
X0505925Y0323499D01*
X0506449Y0322975D01*
Y0322450D01*
X0505925Y0321925D01*
X0504875D01*
X0504350Y0322450D01*
Y0322975D01*
X0504875Y0323499D01*
X0504350Y0324024D01*
Y0324549D01*
X0504875Y0323499D02*
X0505925D01*
X0477477Y0273649D02*
X0476952Y0274174D01*
X0475903D01*
X0475378Y0273649D01*
Y0271550D01*
X0475903Y0271025D01*
X0476952D01*
X0477477Y0271550D01*
X0478527Y0271025D02*
X0479576D01*
X0479051D01*
Y0274174D01*
X0478527Y0273649D01*
X0481150Y0271550D02*
X0481675Y0271025D01*
X0482725D01*
X0483249Y0271550D01*
Y0273649D01*
X0482725Y0274174D01*
X0481675D01*
X0481150Y0273649D01*
Y0273124D01*
X0481675Y0272600D01*
X0483249D01*
X0500877Y0273749D02*
X0500352Y0274274D01*
X0499303D01*
X0498778Y0273749D01*
Y0271650D01*
X0499303Y0271125D01*
X0500352D01*
X0500877Y0271650D01*
X0504026Y0271125D02*
X0501927D01*
X0504026Y0273224D01*
Y0273749D01*
X0503501Y0274274D01*
X0502451D01*
X0501927Y0273749D01*
X0505075D02*
X0505600Y0274274D01*
X0506649D01*
X0507174Y0273749D01*
Y0271650D01*
X0506649Y0271125D01*
X0505600D01*
X0505075Y0271650D01*
Y0273749D01*
X0268177Y0294749D02*
X0267652Y0295274D01*
X0266603D01*
X0266078Y0294749D01*
Y0292650D01*
X0266603Y0292125D01*
X0267652D01*
X0268177Y0292650D01*
X0271326Y0292125D02*
X0269227D01*
X0271326Y0294224D01*
Y0294749D01*
X0270801Y0295274D01*
X0269751D01*
X0269227Y0294749D01*
X0272375Y0292125D02*
X0273425D01*
X0272900D01*
Y0295274D01*
X0272375Y0294749D01*
X0256577Y0278149D02*
X0256052Y0278674D01*
X0255003D01*
X0254478Y0278149D01*
Y0276050D01*
X0255003Y0275525D01*
X0256052D01*
X0256577Y0276050D01*
X0259726Y0275525D02*
X0257627D01*
X0259726Y0277624D01*
Y0278149D01*
X0259201Y0278674D01*
X0258151D01*
X0257627Y0278149D01*
X0262874Y0275525D02*
X0260775D01*
X0262874Y0277624D01*
Y0278149D01*
X0262349Y0278674D01*
X0261300D01*
X0260775Y0278149D01*
X0477577Y0290549D02*
X0477052Y0291074D01*
X0476003D01*
X0475478Y0290549D01*
Y0288450D01*
X0476003Y0287925D01*
X0477052D01*
X0477577Y0288450D01*
X0480726Y0287925D02*
X0478627D01*
X0480726Y0290024D01*
Y0290549D01*
X0480201Y0291074D01*
X0479151D01*
X0478627Y0290549D01*
X0481775D02*
X0482300Y0291074D01*
X0483349D01*
X0483874Y0290549D01*
Y0290024D01*
X0483349Y0289499D01*
X0482825D01*
X0483349D01*
X0483874Y0288975D01*
Y0288450D01*
X0483349Y0287925D01*
X0482300D01*
X0481775Y0288450D01*
X0500477Y0290449D02*
X0499952Y0290974D01*
X0498903D01*
X0498378Y0290449D01*
Y0288350D01*
X0498903Y0287825D01*
X0499952D01*
X0500477Y0288350D01*
X0503626Y0287825D02*
X0501527D01*
X0503626Y0289924D01*
Y0290449D01*
X0503101Y0290974D01*
X0502051D01*
X0501527Y0290449D01*
X0506249Y0287825D02*
Y0290974D01*
X0504675Y0289400D01*
X0506774D01*
X0477577Y0239749D02*
X0477052Y0240274D01*
X0476003D01*
X0475478Y0239749D01*
Y0237650D01*
X0476003Y0237125D01*
X0477052D01*
X0477577Y0237650D01*
X0480726Y0237125D02*
X0478627D01*
X0480726Y0239224D01*
Y0239749D01*
X0480201Y0240274D01*
X0479151D01*
X0478627Y0239749D01*
X0483874Y0240274D02*
X0481775D01*
Y0238700D01*
X0482825Y0239224D01*
X0483349D01*
X0483874Y0238700D01*
Y0237650D01*
X0483349Y0237125D01*
X0482300D01*
X0481775Y0237650D01*
X0500477Y0239949D02*
X0499952Y0240474D01*
X0498903D01*
X0498378Y0239949D01*
Y0237850D01*
X0498903Y0237325D01*
X0499952D01*
X0500477Y0237850D01*
X0503626Y0237325D02*
X0501527D01*
X0503626Y0239424D01*
Y0239949D01*
X0503101Y0240474D01*
X0502051D01*
X0501527Y0239949D01*
X0506774Y0240474D02*
X0505725Y0239949D01*
X0504675Y0238899D01*
Y0237850D01*
X0505200Y0237325D01*
X0506249D01*
X0506774Y0237850D01*
Y0238375D01*
X0506249Y0238899D01*
X0504675D01*
X0256777Y0248149D02*
X0256252Y0248674D01*
X0255203D01*
X0254678Y0248149D01*
Y0246050D01*
X0255203Y0245525D01*
X0256252D01*
X0256777Y0246050D01*
X0259926Y0245525D02*
X0257826D01*
X0259926Y0247624D01*
Y0248149D01*
X0259401Y0248674D01*
X0258351D01*
X0257826Y0248149D01*
X0260975Y0248674D02*
X0263074D01*
Y0248149D01*
X0260975Y0246050D01*
Y0245525D01*
X0477777Y0256749D02*
X0477252Y0257274D01*
X0476203D01*
X0475678Y0256749D01*
Y0254650D01*
X0476203Y0254125D01*
X0477252D01*
X0477777Y0254650D01*
X0480926Y0254125D02*
X0478827D01*
X0480926Y0256224D01*
Y0256749D01*
X0480401Y0257274D01*
X0479351D01*
X0478827Y0256749D01*
X0481975D02*
X0482500Y0257274D01*
X0483549D01*
X0484074Y0256749D01*
Y0256224D01*
X0483549Y0255699D01*
X0484074Y0255175D01*
Y0254650D01*
X0483549Y0254125D01*
X0482500D01*
X0481975Y0254650D01*
Y0255175D01*
X0482500Y0255699D01*
X0481975Y0256224D01*
Y0256749D01*
X0482500Y0255699D02*
X0483549D01*
X0500877Y0257149D02*
X0500352Y0257674D01*
X0499303D01*
X0498778Y0257149D01*
Y0255050D01*
X0499303Y0254525D01*
X0500352D01*
X0500877Y0255050D01*
X0504026Y0254525D02*
X0501927D01*
X0504026Y0256624D01*
Y0257149D01*
X0503501Y0257674D01*
X0502451D01*
X0501927Y0257149D01*
X0505075Y0255050D02*
X0505600Y0254525D01*
X0506649D01*
X0507174Y0255050D01*
Y0257149D01*
X0506649Y0257674D01*
X0505600D01*
X0505075Y0257149D01*
Y0256624D01*
X0505600Y0256100D01*
X0507174D01*
X0500977Y0154849D02*
X0500452Y0155374D01*
X0499403D01*
X0498878Y0154849D01*
Y0152750D01*
X0499403Y0152225D01*
X0500452D01*
X0500977Y0152750D01*
X0502027Y0154849D02*
X0502551Y0155374D01*
X0503601D01*
X0504126Y0154849D01*
Y0154324D01*
X0503601Y0153799D01*
X0503076D01*
X0503601D01*
X0504126Y0153275D01*
Y0152750D01*
X0503601Y0152225D01*
X0502551D01*
X0502027Y0152750D01*
X0505175Y0154849D02*
X0505700Y0155374D01*
X0506749D01*
X0507274Y0154849D01*
Y0152750D01*
X0506749Y0152225D01*
X0505700D01*
X0505175Y0152750D01*
Y0154849D01*
X0477577Y0222849D02*
X0477052Y0223374D01*
X0476003D01*
X0475478Y0222849D01*
Y0220750D01*
X0476003Y0220225D01*
X0477052D01*
X0477577Y0220750D01*
X0478627Y0222849D02*
X0479151Y0223374D01*
X0480201D01*
X0480726Y0222849D01*
Y0222324D01*
X0480201Y0221799D01*
X0479676D01*
X0480201D01*
X0480726Y0221275D01*
Y0220750D01*
X0480201Y0220225D01*
X0479151D01*
X0478627Y0220750D01*
X0481775Y0220225D02*
X0482825D01*
X0482300D01*
Y0223374D01*
X0481775Y0222849D01*
X0500777Y0223149D02*
X0500252Y0223674D01*
X0499203D01*
X0498678Y0223149D01*
Y0221050D01*
X0499203Y0220525D01*
X0500252D01*
X0500777Y0221050D01*
X0501827Y0223149D02*
X0502351Y0223674D01*
X0503401D01*
X0503926Y0223149D01*
Y0222624D01*
X0503401Y0222099D01*
X0502876D01*
X0503401D01*
X0503926Y0221575D01*
Y0221050D01*
X0503401Y0220525D01*
X0502351D01*
X0501827Y0221050D01*
X0507074Y0220525D02*
X0504975D01*
X0507074Y0222624D01*
Y0223149D01*
X0506549Y0223674D01*
X0505500D01*
X0504975Y0223149D01*
X0500877Y0172149D02*
X0500352Y0172674D01*
X0499303D01*
X0498778Y0172149D01*
Y0170050D01*
X0499303Y0169525D01*
X0500352D01*
X0500877Y0170050D01*
X0501927Y0172149D02*
X0502451Y0172674D01*
X0503501D01*
X0504026Y0172149D01*
Y0171624D01*
X0503501Y0171099D01*
X0502976D01*
X0503501D01*
X0504026Y0170575D01*
Y0170050D01*
X0503501Y0169525D01*
X0502451D01*
X0501927Y0170050D01*
X0505075Y0172149D02*
X0505600Y0172674D01*
X0506649D01*
X0507174Y0172149D01*
Y0171624D01*
X0506649Y0171099D01*
X0506125D01*
X0506649D01*
X0507174Y0170575D01*
Y0170050D01*
X0506649Y0169525D01*
X0505600D01*
X0505075Y0170050D01*
X0477577Y0188849D02*
X0477052Y0189374D01*
X0476003D01*
X0475478Y0188849D01*
Y0186750D01*
X0476003Y0186225D01*
X0477052D01*
X0477577Y0186750D01*
X0478627Y0188849D02*
X0479151Y0189374D01*
X0480201D01*
X0480726Y0188849D01*
Y0188324D01*
X0480201Y0187800D01*
X0479676D01*
X0480201D01*
X0480726Y0187275D01*
Y0186750D01*
X0480201Y0186225D01*
X0479151D01*
X0478627Y0186750D01*
X0483349Y0186225D02*
Y0189374D01*
X0481775Y0187800D01*
X0483874D01*
X0499877Y0189149D02*
X0499352Y0189674D01*
X0498303D01*
X0497778Y0189149D01*
Y0187050D01*
X0498303Y0186525D01*
X0499352D01*
X0499877Y0187050D01*
X0500927Y0189149D02*
X0501451Y0189674D01*
X0502501D01*
X0503026Y0189149D01*
Y0188624D01*
X0502501Y0188100D01*
X0501976D01*
X0502501D01*
X0503026Y0187575D01*
Y0187050D01*
X0502501Y0186525D01*
X0501451D01*
X0500927Y0187050D01*
X0506174Y0189674D02*
X0504075D01*
Y0188100D01*
X0505125Y0188624D01*
X0505649D01*
X0506174Y0188100D01*
Y0187050D01*
X0505649Y0186525D01*
X0504600D01*
X0504075Y0187050D01*
X0500977Y0137549D02*
X0500452Y0138074D01*
X0499403D01*
X0498878Y0137549D01*
Y0135450D01*
X0499403Y0134925D01*
X0500452D01*
X0500977Y0135450D01*
X0502027Y0137549D02*
X0502551Y0138074D01*
X0503601D01*
X0504126Y0137549D01*
Y0137024D01*
X0503601Y0136500D01*
X0503076D01*
X0503601D01*
X0504126Y0135975D01*
Y0135450D01*
X0503601Y0134925D01*
X0502551D01*
X0502027Y0135450D01*
X0507274Y0138074D02*
X0506225Y0137549D01*
X0505175Y0136500D01*
Y0135450D01*
X0505700Y0134925D01*
X0506749D01*
X0507274Y0135450D01*
Y0135975D01*
X0506749Y0136500D01*
X0505175D01*
X0106623Y0185154D02*
X0106099Y0184629D01*
Y0183580D01*
X0106623Y0183055D01*
X0108722D01*
X0109247Y0183580D01*
Y0184629D01*
X0108722Y0185154D01*
X0106623Y0186204D02*
X0106099Y0186729D01*
Y0187778D01*
X0106623Y0188303D01*
X0107148D01*
X0107673Y0187778D01*
Y0187253D01*
Y0187778D01*
X0108198Y0188303D01*
X0108722D01*
X0109247Y0187778D01*
Y0186729D01*
X0108722Y0186204D01*
X0106623Y0189352D02*
X0106099Y0189877D01*
Y0190927D01*
X0106623Y0191451D01*
X0107148D01*
X0107673Y0190927D01*
X0108198Y0191451D01*
X0108722D01*
X0109247Y0190927D01*
Y0189877D01*
X0108722Y0189352D01*
X0108198D01*
X0107673Y0189877D01*
X0107148Y0189352D01*
X0106623D01*
X0107673Y0189877D02*
Y0190927D01*
X0247819Y0287666D02*
X0247295Y0287141D01*
Y0286092D01*
X0247819Y0285567D01*
X0249919D01*
X0250443Y0286092D01*
Y0287141D01*
X0249919Y0287666D01*
X0247819Y0288716D02*
X0247295Y0289240D01*
Y0290290D01*
X0247819Y0290815D01*
X0248344D01*
X0248869Y0290290D01*
Y0289765D01*
Y0290290D01*
X0249394Y0290815D01*
X0249919D01*
X0250443Y0290290D01*
Y0289240D01*
X0249919Y0288716D01*
Y0291864D02*
X0250443Y0292389D01*
Y0293438D01*
X0249919Y0293963D01*
X0247819D01*
X0247295Y0293438D01*
Y0292389D01*
X0247819Y0291864D01*
X0248344D01*
X0248869Y0292389D01*
Y0293963D01*
X0116071Y0182126D02*
X0115546Y0182651D01*
X0114496D01*
X0113972Y0182126D01*
Y0180027D01*
X0114496Y0179502D01*
X0115546D01*
X0116071Y0180027D01*
X0118695Y0179502D02*
Y0182651D01*
X0117120Y0181077D01*
X0119219D01*
X0120269Y0182126D02*
X0120794Y0182651D01*
X0121843D01*
X0122368Y0182126D01*
Y0180027D01*
X0121843Y0179502D01*
X0120794D01*
X0120269Y0180027D01*
Y0182126D01*
X0243745Y0185154D02*
X0243220Y0184629D01*
Y0183580D01*
X0243745Y0183055D01*
X0245844D01*
X0246369Y0183580D01*
Y0184629D01*
X0245844Y0185154D01*
X0246369Y0187778D02*
X0243220D01*
X0244795Y0186204D01*
Y0188303D01*
X0246369Y0189352D02*
Y0190402D01*
Y0189877D01*
X0243220D01*
X0243745Y0189352D01*
X0292577Y0197149D02*
X0292052Y0197674D01*
X0291003D01*
X0290478Y0197149D01*
Y0195050D01*
X0291003Y0194525D01*
X0292052D01*
X0292577Y0195050D01*
X0295201Y0194525D02*
Y0197674D01*
X0293626Y0196099D01*
X0295726D01*
X0298874Y0194525D02*
X0296775D01*
X0298874Y0196624D01*
Y0197149D01*
X0298349Y0197674D01*
X0297300D01*
X0296775Y0197149D01*
X0278277Y0170849D02*
X0277752Y0171374D01*
X0276703D01*
X0276178Y0170849D01*
Y0168750D01*
X0276703Y0168225D01*
X0277752D01*
X0278277Y0168750D01*
X0280901Y0168225D02*
Y0171374D01*
X0279327Y0169799D01*
X0281426D01*
X0282475Y0170849D02*
X0283000Y0171374D01*
X0284049D01*
X0284574Y0170849D01*
Y0170324D01*
X0284049Y0169799D01*
X0283525D01*
X0284049D01*
X0284574Y0169275D01*
Y0168750D01*
X0284049Y0168225D01*
X0283000D01*
X0282475Y0168750D01*
X0244812Y0151823D02*
X0244288Y0151298D01*
Y0150249D01*
X0244812Y0149724D01*
X0246912D01*
X0247436Y0150249D01*
Y0151298D01*
X0246912Y0151823D01*
X0247436Y0154447D02*
X0244288D01*
X0245862Y0152873D01*
Y0154972D01*
X0247436Y0157595D02*
X0244288D01*
X0245862Y0156021D01*
Y0158120D01*
X0292420Y0164273D02*
X0291896Y0164798D01*
X0290846D01*
X0290321Y0164273D01*
Y0162174D01*
X0290846Y0161650D01*
X0291896D01*
X0292420Y0162174D01*
X0295044Y0161650D02*
Y0164798D01*
X0293470Y0163224D01*
X0295569D01*
X0298717Y0164798D02*
X0296618D01*
Y0163224D01*
X0297668Y0163749D01*
X0298193D01*
X0298717Y0163224D01*
Y0162174D01*
X0298193Y0161650D01*
X0297143D01*
X0296618Y0162174D01*
X0278277Y0131611D02*
X0277752Y0131086D01*
Y0130037D01*
X0278277Y0129512D01*
X0280376D01*
X0280901Y0130037D01*
Y0131086D01*
X0280376Y0131611D01*
X0280901Y0134235D02*
X0277752D01*
X0279327Y0132660D01*
Y0134759D01*
X0277752Y0137908D02*
X0278277Y0136858D01*
X0279327Y0135809D01*
X0280376D01*
X0280901Y0136334D01*
Y0137383D01*
X0280376Y0137908D01*
X0279851D01*
X0279327Y0137383D01*
Y0135809D01*
X0303477Y0292049D02*
X0302952Y0292574D01*
X0301903D01*
X0301378Y0292049D01*
Y0289950D01*
X0301903Y0289425D01*
X0302952D01*
X0303477Y0289950D01*
X0306101Y0289425D02*
Y0292574D01*
X0304526Y0291000D01*
X0306626D01*
X0307675Y0292574D02*
X0309774D01*
Y0292049D01*
X0307675Y0289950D01*
Y0289425D01*
X0280377Y0301049D02*
X0279852Y0301574D01*
X0278803D01*
X0278278Y0301049D01*
Y0298950D01*
X0278803Y0298425D01*
X0279852D01*
X0280377Y0298950D01*
X0283001Y0298425D02*
Y0301574D01*
X0281427Y0299999D01*
X0283526D01*
X0284575Y0301049D02*
X0285100Y0301574D01*
X0286149D01*
X0286674Y0301049D01*
Y0300524D01*
X0286149Y0299999D01*
X0286674Y0299475D01*
Y0298950D01*
X0286149Y0298425D01*
X0285100D01*
X0284575Y0298950D01*
Y0299475D01*
X0285100Y0299999D01*
X0284575Y0300524D01*
Y0301049D01*
X0285100Y0299999D02*
X0286149D01*
X0293454Y0204024D02*
X0292929Y0203500D01*
Y0202450D01*
X0293454Y0201925D01*
X0295553D01*
X0296078Y0202450D01*
Y0203500D01*
X0295553Y0204024D01*
X0296078Y0206648D02*
X0292929D01*
X0294504Y0205074D01*
Y0207173D01*
X0295553Y0208222D02*
X0296078Y0208747D01*
Y0209797D01*
X0295553Y0210321D01*
X0293454D01*
X0292929Y0209797D01*
Y0208747D01*
X0293454Y0208222D01*
X0293979D01*
X0294504Y0208747D01*
Y0210321D01*
X0300401Y0204024D02*
X0299877Y0203500D01*
Y0202450D01*
X0300401Y0201925D01*
X0302500D01*
X0303025Y0202450D01*
Y0203500D01*
X0302500Y0204024D01*
X0299877Y0207173D02*
Y0205074D01*
X0301451D01*
X0300926Y0206123D01*
Y0206648D01*
X0301451Y0207173D01*
X0302500D01*
X0303025Y0206648D01*
Y0205599D01*
X0302500Y0205074D01*
X0300401Y0208222D02*
X0299877Y0208747D01*
Y0209797D01*
X0300401Y0210321D01*
X0302500D01*
X0303025Y0209797D01*
Y0208747D01*
X0302500Y0208222D01*
X0300401D01*
X0347677Y0271549D02*
X0347152Y0272074D01*
X0346103D01*
X0345578Y0271549D01*
Y0269450D01*
X0346103Y0268925D01*
X0347152D01*
X0347677Y0269450D01*
X0350826Y0272074D02*
X0348727D01*
Y0270499D01*
X0349776Y0271024D01*
X0350301D01*
X0350826Y0270499D01*
Y0269450D01*
X0350301Y0268925D01*
X0349251D01*
X0348727Y0269450D01*
X0351875Y0268925D02*
X0352925D01*
X0352400D01*
Y0272074D01*
X0351875Y0271549D01*
X0343677Y0289749D02*
X0343152Y0290274D01*
X0342103D01*
X0341578Y0289749D01*
Y0287650D01*
X0342103Y0287125D01*
X0343152D01*
X0343677Y0287650D01*
X0346826Y0290274D02*
X0344726D01*
Y0288700D01*
X0345776Y0289224D01*
X0346301D01*
X0346826Y0288700D01*
Y0287650D01*
X0346301Y0287125D01*
X0345251D01*
X0344726Y0287650D01*
X0349974Y0287125D02*
X0347875D01*
X0349974Y0289224D01*
Y0289749D01*
X0349449Y0290274D01*
X0348400D01*
X0347875Y0289749D01*
X0273454Y0220981D02*
X0272929Y0220456D01*
Y0219407D01*
X0273454Y0218882D01*
X0275553D01*
X0276078Y0219407D01*
Y0220456D01*
X0275553Y0220981D01*
X0272929Y0224130D02*
Y0222030D01*
X0274504D01*
X0273979Y0223080D01*
Y0223605D01*
X0274504Y0224130D01*
X0275553D01*
X0276078Y0223605D01*
Y0222555D01*
X0275553Y0222030D01*
X0273454Y0225179D02*
X0272929Y0225704D01*
Y0226753D01*
X0273454Y0227278D01*
X0273979D01*
X0274504Y0226753D01*
Y0226229D01*
Y0226753D01*
X0275028Y0227278D01*
X0275553D01*
X0276078Y0226753D01*
Y0225704D01*
X0275553Y0225179D01*
X0280254Y0221624D02*
X0279729Y0221099D01*
Y0220050D01*
X0280254Y0219525D01*
X0282353D01*
X0282878Y0220050D01*
Y0221099D01*
X0282353Y0221624D01*
X0279729Y0224773D02*
Y0222674D01*
X0281304D01*
X0280779Y0223723D01*
Y0224248D01*
X0281304Y0224773D01*
X0282353D01*
X0282878Y0224248D01*
Y0223199D01*
X0282353Y0222674D01*
X0282878Y0227397D02*
X0279729D01*
X0281304Y0225822D01*
Y0227921D01*
X0329977Y0226749D02*
X0329452Y0227274D01*
X0328403D01*
X0327878Y0226749D01*
Y0224650D01*
X0328403Y0224125D01*
X0329452D01*
X0329977Y0224650D01*
X0333126Y0227274D02*
X0331027D01*
Y0225699D01*
X0332076Y0226224D01*
X0332601D01*
X0333126Y0225699D01*
Y0224650D01*
X0332601Y0224125D01*
X0331551D01*
X0331027Y0224650D01*
X0336274Y0227274D02*
X0334175D01*
Y0225699D01*
X0335225Y0226224D01*
X0335749D01*
X0336274Y0225699D01*
Y0224650D01*
X0335749Y0224125D01*
X0334700D01*
X0334175Y0224650D01*
X0342877Y0214149D02*
X0342352Y0214674D01*
X0341303D01*
X0340778Y0214149D01*
Y0212050D01*
X0341303Y0211525D01*
X0342352D01*
X0342877Y0212050D01*
X0346026Y0214674D02*
X0343927D01*
Y0213100D01*
X0344976Y0213624D01*
X0345501D01*
X0346026Y0213100D01*
Y0212050D01*
X0345501Y0211525D01*
X0344451D01*
X0343927Y0212050D01*
X0349174Y0214674D02*
X0348125Y0214149D01*
X0347075Y0213100D01*
Y0212050D01*
X0347600Y0211525D01*
X0348649D01*
X0349174Y0212050D01*
Y0212575D01*
X0348649Y0213100D01*
X0347075D01*
X0435454Y0268624D02*
X0434929Y0268099D01*
Y0267050D01*
X0435454Y0266525D01*
X0437553D01*
X0438078Y0267050D01*
Y0268099D01*
X0437553Y0268624D01*
X0434929Y0271773D02*
Y0269674D01*
X0436504D01*
X0435979Y0270723D01*
Y0271248D01*
X0436504Y0271773D01*
X0437553D01*
X0438078Y0271248D01*
Y0270199D01*
X0437553Y0269674D01*
X0434929Y0272822D02*
Y0274921D01*
X0435454D01*
X0437553Y0272822D01*
X0438078D01*
X0428954Y0268624D02*
X0428429Y0268099D01*
Y0267050D01*
X0428954Y0266525D01*
X0431053D01*
X0431578Y0267050D01*
Y0268099D01*
X0431053Y0268624D01*
X0428429Y0271773D02*
Y0269674D01*
X0430004D01*
X0429479Y0270723D01*
Y0271248D01*
X0430004Y0271773D01*
X0431053D01*
X0431578Y0271248D01*
Y0270199D01*
X0431053Y0269674D01*
X0428954Y0272822D02*
X0428429Y0273347D01*
Y0274397D01*
X0428954Y0274921D01*
X0429479D01*
X0430004Y0274397D01*
X0430528Y0274921D01*
X0431053D01*
X0431578Y0274397D01*
Y0273347D01*
X0431053Y0272822D01*
X0430528D01*
X0430004Y0273347D01*
X0429479Y0272822D01*
X0428954D01*
X0430004Y0273347D02*
Y0274397D01*
X0421654Y0168624D02*
X0421129Y0168099D01*
Y0167050D01*
X0421654Y0166525D01*
X0423753D01*
X0424278Y0167050D01*
Y0168099D01*
X0423753Y0168624D01*
X0421129Y0171773D02*
Y0169674D01*
X0422704D01*
X0422179Y0170723D01*
Y0171248D01*
X0422704Y0171773D01*
X0423753D01*
X0424278Y0171248D01*
Y0170199D01*
X0423753Y0169674D01*
Y0172822D02*
X0424278Y0173347D01*
Y0174397D01*
X0423753Y0174921D01*
X0421654D01*
X0421129Y0174397D01*
Y0173347D01*
X0421654Y0172822D01*
X0422179D01*
X0422704Y0173347D01*
Y0174921D01*
X0428054Y0168424D02*
X0427529Y0167900D01*
Y0166850D01*
X0428054Y0166325D01*
X0430153D01*
X0430678Y0166850D01*
Y0167900D01*
X0430153Y0168424D01*
X0427529Y0171573D02*
X0428054Y0170523D01*
X0429104Y0169474D01*
X0430153D01*
X0430678Y0169999D01*
Y0171048D01*
X0430153Y0171573D01*
X0429628D01*
X0429104Y0171048D01*
Y0169474D01*
X0428054Y0172622D02*
X0427529Y0173147D01*
Y0174197D01*
X0428054Y0174721D01*
X0430153D01*
X0430678Y0174197D01*
Y0173147D01*
X0430153Y0172622D01*
X0428054D01*
X0363242Y0161789D02*
X0362717Y0161264D01*
Y0160214D01*
X0363242Y0159690D01*
X0365341D01*
X0365865Y0160214D01*
Y0161264D01*
X0365341Y0161789D01*
X0362717Y0164937D02*
X0363242Y0163888D01*
X0364291Y0162838D01*
X0365341D01*
X0365865Y0163363D01*
Y0164413D01*
X0365341Y0164937D01*
X0364816D01*
X0364291Y0164413D01*
Y0162838D01*
X0365865Y0165987D02*
Y0167036D01*
Y0166512D01*
X0362717D01*
X0363242Y0165987D01*
X0369616Y0161866D02*
X0369091Y0161342D01*
Y0160292D01*
X0369616Y0159767D01*
X0371715D01*
X0372239Y0160292D01*
Y0161342D01*
X0371715Y0161866D01*
X0369091Y0165015D02*
X0369616Y0163965D01*
X0370665Y0162916D01*
X0371715D01*
X0372239Y0163441D01*
Y0164490D01*
X0371715Y0165015D01*
X0371190D01*
X0370665Y0164490D01*
Y0162916D01*
X0372239Y0168164D02*
Y0166064D01*
X0370140Y0168164D01*
X0369616D01*
X0369091Y0167639D01*
Y0166589D01*
X0369616Y0166064D01*
X0240087Y0201571D02*
X0239563Y0202096D01*
X0238513D01*
X0237988Y0201571D01*
Y0199472D01*
X0238513Y0198947D01*
X0239563D01*
X0240087Y0199472D01*
X0243236Y0202096D02*
X0242186Y0201571D01*
X0241137Y0200521D01*
Y0199472D01*
X0241662Y0198947D01*
X0242711D01*
X0243236Y0199472D01*
Y0199997D01*
X0242711Y0200521D01*
X0241137D01*
X0244285Y0201571D02*
X0244810Y0202096D01*
X0245860D01*
X0246385Y0201571D01*
Y0201046D01*
X0245860Y0200521D01*
X0245335D01*
X0245860D01*
X0246385Y0199997D01*
Y0199472D01*
X0245860Y0198947D01*
X0244810D01*
X0244285Y0199472D01*
X0316084Y0169503D02*
X0315559Y0168978D01*
Y0167928D01*
X0316084Y0167404D01*
X0318183D01*
X0318708Y0167928D01*
Y0168978D01*
X0318183Y0169503D01*
X0315559Y0172651D02*
X0316084Y0171602D01*
X0317134Y0170552D01*
X0318183D01*
X0318708Y0171077D01*
Y0172126D01*
X0318183Y0172651D01*
X0317658D01*
X0317134Y0172126D01*
Y0170552D01*
X0318708Y0175275D02*
X0315559D01*
X0317134Y0173701D01*
Y0175800D01*
X0382854Y0177924D02*
X0382329Y0177400D01*
Y0176350D01*
X0382854Y0175825D01*
X0384953D01*
X0385478Y0176350D01*
Y0177400D01*
X0384953Y0177924D01*
X0382329Y0181073D02*
X0382854Y0180023D01*
X0383904Y0178974D01*
X0384953D01*
X0385478Y0179499D01*
Y0180548D01*
X0384953Y0181073D01*
X0384428D01*
X0383904Y0180548D01*
Y0178974D01*
X0382329Y0184221D02*
Y0182122D01*
X0383904D01*
X0383379Y0183172D01*
Y0183697D01*
X0383904Y0184221D01*
X0384953D01*
X0385478Y0183697D01*
Y0182647D01*
X0384953Y0182122D01*
X0393654Y0168424D02*
X0393129Y0167900D01*
Y0166850D01*
X0393654Y0166325D01*
X0395753D01*
X0396278Y0166850D01*
Y0167900D01*
X0395753Y0168424D01*
X0393129Y0171573D02*
X0393654Y0170523D01*
X0394704Y0169474D01*
X0395753D01*
X0396278Y0169999D01*
Y0171048D01*
X0395753Y0171573D01*
X0395228D01*
X0394704Y0171048D01*
Y0169474D01*
X0393129Y0174721D02*
X0393654Y0173672D01*
X0394704Y0172622D01*
X0395753D01*
X0396278Y0173147D01*
Y0174197D01*
X0395753Y0174721D01*
X0395228D01*
X0394704Y0174197D01*
Y0172622D01*
X0400577Y0191049D02*
X0400052Y0191574D01*
X0399003D01*
X0398478Y0191049D01*
Y0188950D01*
X0399003Y0188425D01*
X0400052D01*
X0400577Y0188950D01*
X0403726Y0191574D02*
X0402676Y0191049D01*
X0401626Y0189999D01*
Y0188950D01*
X0402151Y0188425D01*
X0403201D01*
X0403726Y0188950D01*
Y0189475D01*
X0403201Y0189999D01*
X0401626D01*
X0404775Y0191574D02*
X0406874D01*
Y0191049D01*
X0404775Y0188950D01*
Y0188425D01*
X0539243Y0303396D02*
X0538718Y0303920D01*
X0537669D01*
X0537144Y0303396D01*
Y0301296D01*
X0537669Y0300772D01*
X0538718D01*
X0539243Y0301296D01*
X0541867Y0303920D02*
X0540817D01*
X0540293Y0303396D01*
Y0301296D01*
X0540817Y0300772D01*
X0541867D01*
X0542392Y0301296D01*
Y0303396D01*
X0541867Y0303920D01*
X0543441Y0300772D02*
Y0303920D01*
X0545540Y0300772D01*
Y0303920D01*
X0546590Y0300772D02*
X0547639D01*
X0547115D01*
Y0303920D01*
X0546590Y0303396D01*
X0100280Y0244718D02*
X0099755Y0245242D01*
X0098706D01*
X0098181Y0244718D01*
Y0242618D01*
X0098706Y0242094D01*
X0099755D01*
X0100280Y0242618D01*
X0102904Y0245242D02*
X0101855D01*
X0101330Y0244718D01*
Y0242618D01*
X0101855Y0242094D01*
X0102904D01*
X0103429Y0242618D01*
Y0244718D01*
X0102904Y0245242D01*
X0104478Y0242094D02*
Y0245242D01*
X0106577Y0242094D01*
Y0245242D01*
X0109726Y0242094D02*
X0107627D01*
X0109726Y0244193D01*
Y0244718D01*
X0109201Y0245242D01*
X0108152D01*
X0107627Y0244718D01*
X0514557Y0194774D02*
Y0191625D01*
X0516131D01*
X0516656Y0192150D01*
Y0194249D01*
X0516131Y0194774D01*
X0514557D01*
X0517705Y0191625D02*
X0518755D01*
X0518230D01*
Y0194774D01*
X0517705Y0194249D01*
X0514678Y0296274D02*
Y0293125D01*
X0516252D01*
X0516777Y0293650D01*
Y0295749D01*
X0516252Y0296274D01*
X0514678D01*
X0519926Y0293125D02*
X0517827D01*
X0519926Y0295224D01*
Y0295749D01*
X0519401Y0296274D01*
X0518351D01*
X0517827Y0295749D01*
X0514478Y0313074D02*
Y0309925D01*
X0516052D01*
X0516577Y0310450D01*
Y0312549D01*
X0516052Y0313074D01*
X0514478D01*
X0517627Y0312549D02*
X0518151Y0313074D01*
X0519201D01*
X0519726Y0312549D01*
Y0312024D01*
X0519201Y0311500D01*
X0518676D01*
X0519201D01*
X0519726Y0310975D01*
Y0310450D01*
X0519201Y0309925D01*
X0518151D01*
X0517627Y0310450D01*
X0514646Y0262274D02*
Y0259125D01*
X0516221D01*
X0516746Y0259650D01*
Y0261749D01*
X0516221Y0262274D01*
X0514646D01*
X0519369Y0259125D02*
Y0262274D01*
X0517795Y0260700D01*
X0519894D01*
X0514578Y0279074D02*
Y0275925D01*
X0516152D01*
X0516677Y0276450D01*
Y0278549D01*
X0516152Y0279074D01*
X0514578D01*
X0519826D02*
X0517727D01*
Y0277500D01*
X0518776Y0278024D01*
X0519301D01*
X0519826Y0277500D01*
Y0276450D01*
X0519301Y0275925D01*
X0518251D01*
X0517727Y0276450D01*
X0514546Y0228574D02*
Y0225425D01*
X0516121D01*
X0516645Y0225950D01*
Y0228049D01*
X0516121Y0228574D01*
X0514546D01*
X0519794D02*
X0518745Y0228049D01*
X0517695Y0226999D01*
Y0225950D01*
X0518220Y0225425D01*
X0519269D01*
X0519794Y0225950D01*
Y0226475D01*
X0519269Y0226999D01*
X0517695D01*
X0514678Y0245374D02*
Y0242225D01*
X0516252D01*
X0516777Y0242750D01*
Y0244849D01*
X0516252Y0245374D01*
X0514678D01*
X0517827D02*
X0519926D01*
Y0244849D01*
X0517827Y0242750D01*
Y0242225D01*
X0514747Y0143374D02*
Y0140225D01*
X0516321D01*
X0516846Y0140750D01*
Y0142849D01*
X0516321Y0143374D01*
X0514747D01*
X0517895Y0142849D02*
X0518420Y0143374D01*
X0519469D01*
X0519994Y0142849D01*
Y0142324D01*
X0519469Y0141799D01*
X0519994Y0141275D01*
Y0140750D01*
X0519469Y0140225D01*
X0518420D01*
X0517895Y0140750D01*
Y0141275D01*
X0518420Y0141799D01*
X0517895Y0142324D01*
Y0142849D01*
X0518420Y0141799D02*
X0519469D01*
X0514546Y0211374D02*
Y0208225D01*
X0516121D01*
X0516645Y0208750D01*
Y0210849D01*
X0516121Y0211374D01*
X0514546D01*
X0517695Y0208750D02*
X0518220Y0208225D01*
X0519269D01*
X0519794Y0208750D01*
Y0210849D01*
X0519269Y0211374D01*
X0518220D01*
X0517695Y0210849D01*
Y0210324D01*
X0518220Y0209800D01*
X0519794D01*
X0514646Y0160674D02*
Y0157525D01*
X0516221D01*
X0516746Y0158050D01*
Y0160149D01*
X0516221Y0160674D01*
X0514646D01*
X0517795Y0157525D02*
X0518845D01*
X0518320D01*
Y0160674D01*
X0517795Y0160149D01*
X0520419D02*
X0520944Y0160674D01*
X0521993D01*
X0522518Y0160149D01*
Y0158050D01*
X0521993Y0157525D01*
X0520944D01*
X0520419Y0158050D01*
Y0160149D01*
X0330678Y0312174D02*
Y0309025D01*
X0332252D01*
X0332777Y0309550D01*
Y0311649D01*
X0332252Y0312174D01*
X0330678D01*
X0333826Y0309025D02*
X0334876D01*
X0334351D01*
Y0312174D01*
X0333826Y0311649D01*
X0336450Y0309025D02*
X0337500D01*
X0336975D01*
Y0312174D01*
X0336450Y0311649D01*
X0310478Y0312374D02*
Y0309225D01*
X0312052D01*
X0312577Y0309750D01*
Y0311849D01*
X0312052Y0312374D01*
X0310478D01*
X0313627Y0309225D02*
X0314676D01*
X0314151D01*
Y0312374D01*
X0313627Y0311849D01*
X0318349Y0309225D02*
X0316250D01*
X0318349Y0311324D01*
Y0311849D01*
X0317825Y0312374D01*
X0316775D01*
X0316250Y0311849D01*
X0514546Y0177474D02*
Y0174325D01*
X0516121D01*
X0516645Y0174850D01*
Y0176949D01*
X0516121Y0177474D01*
X0514546D01*
X0517695Y0174325D02*
X0518745D01*
X0518220D01*
Y0177474D01*
X0517695Y0176949D01*
X0520319D02*
X0520844Y0177474D01*
X0521893D01*
X0522418Y0176949D01*
Y0176424D01*
X0521893Y0175900D01*
X0521368D01*
X0521893D01*
X0522418Y0175375D01*
Y0174850D01*
X0521893Y0174325D01*
X0520844D01*
X0520319Y0174850D01*
X0508578Y0121974D02*
Y0118825D01*
X0510152D01*
X0510677Y0119350D01*
Y0121449D01*
X0510152Y0121974D01*
X0508578D01*
X0511727Y0118825D02*
X0512776D01*
X0512251D01*
Y0121974D01*
X0511727Y0121449D01*
X0515925Y0118825D02*
Y0121974D01*
X0514350Y0120399D01*
X0516449D01*
X0491624Y0205474D02*
X0489525D01*
Y0203900D01*
X0490575D01*
X0489525D01*
Y0202325D01*
X0492674Y0205474D02*
Y0202325D01*
X0494248D01*
X0494773Y0202850D01*
Y0203375D01*
X0494248Y0203900D01*
X0492674D01*
X0494248D01*
X0494773Y0204424D01*
Y0204949D01*
X0494248Y0205474D01*
X0492674D01*
X0495822Y0202325D02*
X0496872D01*
X0496347D01*
Y0205474D01*
X0495822Y0204949D01*
X0491277Y0307374D02*
X0489178D01*
Y0305800D01*
X0490228D01*
X0489178D01*
Y0304225D01*
X0492327Y0307374D02*
Y0304225D01*
X0493901D01*
X0494426Y0304750D01*
Y0305275D01*
X0493901Y0305800D01*
X0492327D01*
X0493901D01*
X0494426Y0306324D01*
Y0306849D01*
X0493901Y0307374D01*
X0492327D01*
X0497574Y0304225D02*
X0495475D01*
X0497574Y0306324D01*
Y0306849D01*
X0497049Y0307374D01*
X0496000D01*
X0495475Y0306849D01*
X0491177Y0323974D02*
X0489078D01*
Y0322399D01*
X0490128D01*
X0489078D01*
Y0320825D01*
X0492227Y0323974D02*
Y0320825D01*
X0493801D01*
X0494326Y0321350D01*
Y0321875D01*
X0493801Y0322399D01*
X0492227D01*
X0493801D01*
X0494326Y0322924D01*
Y0323449D01*
X0493801Y0323974D01*
X0492227D01*
X0495375Y0323449D02*
X0495900Y0323974D01*
X0496949D01*
X0497474Y0323449D01*
Y0322924D01*
X0496949Y0322399D01*
X0496425D01*
X0496949D01*
X0497474Y0321875D01*
Y0321350D01*
X0496949Y0320825D01*
X0495900D01*
X0495375Y0321350D01*
X0491377Y0273274D02*
X0489278D01*
Y0271700D01*
X0490328D01*
X0489278D01*
Y0270125D01*
X0492427Y0273274D02*
Y0270125D01*
X0494001D01*
X0494526Y0270650D01*
Y0271175D01*
X0494001Y0271700D01*
X0492427D01*
X0494001D01*
X0494526Y0272224D01*
Y0272749D01*
X0494001Y0273274D01*
X0492427D01*
X0497149Y0270125D02*
Y0273274D01*
X0495575Y0271700D01*
X0497674D01*
X0491377Y0290274D02*
X0489278D01*
Y0288700D01*
X0490328D01*
X0489278D01*
Y0287125D01*
X0492427Y0290274D02*
Y0287125D01*
X0494001D01*
X0494526Y0287650D01*
Y0288175D01*
X0494001Y0288700D01*
X0492427D01*
X0494001D01*
X0494526Y0289224D01*
Y0289749D01*
X0494001Y0290274D01*
X0492427D01*
X0497674D02*
X0495575D01*
Y0288700D01*
X0496625Y0289224D01*
X0497149D01*
X0497674Y0288700D01*
Y0287650D01*
X0497149Y0287125D01*
X0496100D01*
X0495575Y0287650D01*
X0491377Y0239474D02*
X0489278D01*
Y0237899D01*
X0490328D01*
X0489278D01*
Y0236325D01*
X0492427Y0239474D02*
Y0236325D01*
X0494001D01*
X0494526Y0236850D01*
Y0237375D01*
X0494001Y0237899D01*
X0492427D01*
X0494001D01*
X0494526Y0238424D01*
Y0238949D01*
X0494001Y0239474D01*
X0492427D01*
X0497674D02*
X0496625Y0238949D01*
X0495575Y0237899D01*
Y0236850D01*
X0496100Y0236325D01*
X0497149D01*
X0497674Y0236850D01*
Y0237375D01*
X0497149Y0237899D01*
X0495575D01*
X0491577Y0256474D02*
X0489478D01*
Y0254900D01*
X0490527D01*
X0489478D01*
Y0253325D01*
X0492627Y0256474D02*
Y0253325D01*
X0494201D01*
X0494726Y0253850D01*
Y0254375D01*
X0494201Y0254900D01*
X0492627D01*
X0494201D01*
X0494726Y0255424D01*
Y0255949D01*
X0494201Y0256474D01*
X0492627D01*
X0495775D02*
X0497874D01*
Y0255949D01*
X0495775Y0253850D01*
Y0253325D01*
X0491577Y0154274D02*
X0489478D01*
Y0152699D01*
X0490527D01*
X0489478D01*
Y0151125D01*
X0492627Y0154274D02*
Y0151125D01*
X0494201D01*
X0494726Y0151650D01*
Y0152175D01*
X0494201Y0152699D01*
X0492627D01*
X0494201D01*
X0494726Y0153224D01*
Y0153749D01*
X0494201Y0154274D01*
X0492627D01*
X0495775Y0153749D02*
X0496300Y0154274D01*
X0497349D01*
X0497874Y0153749D01*
Y0153224D01*
X0497349Y0152699D01*
X0497874Y0152175D01*
Y0151650D01*
X0497349Y0151125D01*
X0496300D01*
X0495775Y0151650D01*
Y0152175D01*
X0496300Y0152699D01*
X0495775Y0153224D01*
Y0153749D01*
X0496300Y0152699D02*
X0497349D01*
X0491477Y0222574D02*
X0489378D01*
Y0221000D01*
X0490427D01*
X0489378D01*
Y0219425D01*
X0492527Y0222574D02*
Y0219425D01*
X0494101D01*
X0494626Y0219950D01*
Y0220475D01*
X0494101Y0221000D01*
X0492527D01*
X0494101D01*
X0494626Y0221524D01*
Y0222049D01*
X0494101Y0222574D01*
X0492527D01*
X0495675Y0219950D02*
X0496200Y0219425D01*
X0497249D01*
X0497774Y0219950D01*
Y0222049D01*
X0497249Y0222574D01*
X0496200D01*
X0495675Y0222049D01*
Y0221524D01*
X0496200Y0221000D01*
X0497774D01*
X0488777Y0172174D02*
X0486678D01*
Y0170599D01*
X0487727D01*
X0486678D01*
Y0169025D01*
X0489827Y0172174D02*
Y0169025D01*
X0491401D01*
X0491926Y0169550D01*
Y0170075D01*
X0491401Y0170599D01*
X0489827D01*
X0491401D01*
X0491926Y0171124D01*
Y0171649D01*
X0491401Y0172174D01*
X0489827D01*
X0492975Y0169025D02*
X0494025D01*
X0493500D01*
Y0172174D01*
X0492975Y0171649D01*
X0495599D02*
X0496124Y0172174D01*
X0497173D01*
X0497698Y0171649D01*
Y0169550D01*
X0497173Y0169025D01*
X0496124D01*
X0495599Y0169550D01*
Y0171649D01*
X0489177Y0189674D02*
X0487078D01*
Y0188100D01*
X0488128D01*
X0487078D01*
Y0186525D01*
X0490227Y0189674D02*
Y0186525D01*
X0491801D01*
X0492326Y0187050D01*
Y0187575D01*
X0491801Y0188100D01*
X0490227D01*
X0491801D01*
X0492326Y0188624D01*
Y0189149D01*
X0491801Y0189674D01*
X0490227D01*
X0493375Y0186525D02*
X0494425D01*
X0493900D01*
Y0189674D01*
X0493375Y0189149D01*
X0495999Y0186525D02*
X0497049D01*
X0496524D01*
Y0189674D01*
X0495999Y0189149D01*
X0488577Y0137574D02*
X0486478D01*
Y0136000D01*
X0487528D01*
X0486478D01*
Y0134425D01*
X0489627Y0137574D02*
Y0134425D01*
X0491201D01*
X0491726Y0134950D01*
Y0135475D01*
X0491201Y0136000D01*
X0489627D01*
X0491201D01*
X0491726Y0136524D01*
Y0137049D01*
X0491201Y0137574D01*
X0489627D01*
X0492775Y0134425D02*
X0493825D01*
X0493300D01*
Y0137574D01*
X0492775Y0137049D01*
X0497498Y0134425D02*
X0495399D01*
X0497498Y0136524D01*
Y0137049D01*
X0496973Y0137574D01*
X0495924D01*
X0495399Y0137049D01*
X0310677Y0199474D02*
X0309628D01*
X0310152D01*
Y0196850D01*
X0309628Y0196325D01*
X0309103D01*
X0308578Y0196850D01*
X0313826Y0196325D02*
X0311726D01*
X0313826Y0198424D01*
Y0198949D01*
X0313301Y0199474D01*
X0312251D01*
X0311726Y0198949D01*
X0310920Y0167298D02*
X0309871D01*
X0310396D01*
Y0164674D01*
X0309871Y0164150D01*
X0309346D01*
X0308821Y0164674D01*
X0311970Y0166773D02*
X0312495Y0167298D01*
X0313544D01*
X0314069Y0166773D01*
Y0166249D01*
X0313544Y0165724D01*
X0313019D01*
X0313544D01*
X0314069Y0165199D01*
Y0164674D01*
X0313544Y0164150D01*
X0312495D01*
X0311970Y0164674D01*
X0342061Y0115674D02*
X0341012D01*
X0341536D01*
Y0113050D01*
X0341012Y0112525D01*
X0340487D01*
X0339962Y0113050D01*
X0344685Y0112525D02*
Y0115674D01*
X0343111Y0114100D01*
X0345210D01*
X0115457Y0125968D02*
Y0122819D01*
X0117557D01*
X0118606D02*
X0119656D01*
X0119131D01*
Y0125968D01*
X0118606Y0125443D01*
X0277178Y0198474D02*
Y0195325D01*
X0279277D01*
X0282426D02*
X0280327D01*
X0282426Y0197424D01*
Y0197949D01*
X0281901Y0198474D01*
X0280851D01*
X0280327Y0197949D01*
X0277421Y0166198D02*
Y0163050D01*
X0279520D01*
X0280570Y0165673D02*
X0281095Y0166198D01*
X0282144D01*
X0282669Y0165673D01*
Y0165149D01*
X0282144Y0164624D01*
X0281619D01*
X0282144D01*
X0282669Y0164099D01*
Y0163574D01*
X0282144Y0163050D01*
X0281095D01*
X0280570Y0163574D01*
X0451878Y0290125D02*
Y0293274D01*
X0453452D01*
X0453977Y0292749D01*
Y0291700D01*
X0453452Y0291175D01*
X0451878D01*
X0455027Y0290125D02*
X0456076D01*
X0455551D01*
Y0293274D01*
X0455027Y0292749D01*
X0412778Y0290025D02*
Y0293174D01*
X0414352D01*
X0414877Y0292649D01*
Y0291599D01*
X0414352Y0291075D01*
X0412778D01*
X0418026Y0290025D02*
X0415927D01*
X0418026Y0292124D01*
Y0292649D01*
X0417501Y0293174D01*
X0416451D01*
X0415927Y0292649D01*
X0389878Y0324025D02*
Y0327174D01*
X0391452D01*
X0391977Y0326649D01*
Y0325600D01*
X0391452Y0325075D01*
X0389878D01*
X0393026Y0326649D02*
X0393551Y0327174D01*
X0394601D01*
X0395126Y0326649D01*
Y0326124D01*
X0394601Y0325600D01*
X0394076D01*
X0394601D01*
X0395126Y0325075D01*
Y0324550D01*
X0394601Y0324025D01*
X0393551D01*
X0393026Y0324550D01*
X0143105Y0293685D02*
Y0296834D01*
X0144680D01*
X0145205Y0296309D01*
Y0295259D01*
X0144680Y0294735D01*
X0143105D01*
X0148353Y0296834D02*
X0146254D01*
Y0295259D01*
X0147304Y0295784D01*
X0147828D01*
X0148353Y0295259D01*
Y0294210D01*
X0147828Y0293685D01*
X0146779D01*
X0146254Y0294210D01*
X0440678Y0317125D02*
Y0320274D01*
X0442252D01*
X0442777Y0319749D01*
Y0318700D01*
X0442252Y0318175D01*
X0440678D01*
X0441727D02*
X0442777Y0317125D01*
X0443827D02*
X0444876D01*
X0444351D01*
Y0320274D01*
X0443827Y0319749D01*
X0412378Y0314325D02*
Y0317474D01*
X0413952D01*
X0414477Y0316949D01*
Y0315899D01*
X0413952Y0315375D01*
X0412378D01*
X0413427D02*
X0414477Y0314325D01*
X0417626D02*
X0415527D01*
X0417626Y0316424D01*
Y0316949D01*
X0417101Y0317474D01*
X0416051D01*
X0415527Y0316949D01*
X0365478Y0204325D02*
Y0207474D01*
X0367052D01*
X0367577Y0206949D01*
Y0205900D01*
X0367052Y0205375D01*
X0365478D01*
X0366528D02*
X0367577Y0204325D01*
X0368626Y0206949D02*
X0369151Y0207474D01*
X0370201D01*
X0370726Y0206949D01*
Y0206424D01*
X0370201Y0205900D01*
X0369676D01*
X0370201D01*
X0370726Y0205375D01*
Y0204850D01*
X0370201Y0204325D01*
X0369151D01*
X0368626Y0204850D01*
X0356978Y0257725D02*
Y0260874D01*
X0358552D01*
X0359077Y0260349D01*
Y0259299D01*
X0358552Y0258775D01*
X0356978D01*
X0358028D02*
X0359077Y0257725D01*
X0361701D02*
Y0260874D01*
X0360126Y0259299D01*
X0362226D01*
X0365578Y0246225D02*
Y0249374D01*
X0367152D01*
X0367677Y0248849D01*
Y0247799D01*
X0367152Y0247275D01*
X0365578D01*
X0366628D02*
X0367677Y0246225D01*
X0370826Y0249374D02*
X0368726D01*
Y0247799D01*
X0369776Y0248324D01*
X0370301D01*
X0370826Y0247799D01*
Y0246750D01*
X0370301Y0246225D01*
X0369251D01*
X0368726Y0246750D01*
X0365478Y0197325D02*
Y0200474D01*
X0367052D01*
X0367577Y0199949D01*
Y0198899D01*
X0367052Y0198375D01*
X0365478D01*
X0366528D02*
X0367577Y0197325D01*
X0370726Y0200474D02*
X0369676Y0199949D01*
X0368626Y0198899D01*
Y0197850D01*
X0369151Y0197325D01*
X0370201D01*
X0370726Y0197850D01*
Y0198375D01*
X0370201Y0198899D01*
X0368626D01*
X0365678Y0211025D02*
Y0214174D01*
X0367252D01*
X0367777Y0213649D01*
Y0212599D01*
X0367252Y0212075D01*
X0365678D01*
X0366727D02*
X0367777Y0211025D01*
X0368827Y0214174D02*
X0370926D01*
Y0213649D01*
X0368827Y0211550D01*
Y0211025D01*
X0365578Y0190325D02*
Y0193474D01*
X0367152D01*
X0367677Y0192949D01*
Y0191900D01*
X0367152Y0191375D01*
X0365578D01*
X0366628D02*
X0367677Y0190325D01*
X0368726Y0192949D02*
X0369251Y0193474D01*
X0370301D01*
X0370826Y0192949D01*
Y0192424D01*
X0370301Y0191900D01*
X0370826Y0191375D01*
Y0190850D01*
X0370301Y0190325D01*
X0369251D01*
X0368726Y0190850D01*
Y0191375D01*
X0369251Y0191900D01*
X0368726Y0192424D01*
Y0192949D01*
X0369251Y0191900D02*
X0370301D01*
X0365578Y0225125D02*
Y0228274D01*
X0367152D01*
X0367677Y0227749D01*
Y0226699D01*
X0367152Y0226175D01*
X0365578D01*
X0366628D02*
X0367677Y0225125D01*
X0368726Y0225650D02*
X0369251Y0225125D01*
X0370301D01*
X0370826Y0225650D01*
Y0227749D01*
X0370301Y0228274D01*
X0369251D01*
X0368726Y0227749D01*
Y0227224D01*
X0369251Y0226699D01*
X0370826D01*
X0262078Y0220125D02*
X0258929D01*
Y0221700D01*
X0259454Y0222224D01*
X0260504D01*
X0261028Y0221700D01*
Y0220125D01*
Y0221175D02*
X0262078Y0222224D01*
Y0223274D02*
Y0224323D01*
Y0223799D01*
X0258929D01*
X0259454Y0223274D01*
Y0225898D02*
X0258929Y0226422D01*
Y0227472D01*
X0259454Y0227997D01*
X0261553D01*
X0262078Y0227472D01*
Y0226422D01*
X0261553Y0225898D01*
X0259454D01*
X0255178Y0220225D02*
X0252029D01*
Y0221799D01*
X0252554Y0222324D01*
X0253604D01*
X0254128Y0221799D01*
Y0220225D01*
Y0221275D02*
X0255178Y0222324D01*
Y0223374D02*
Y0224423D01*
Y0223899D01*
X0252029D01*
X0252554Y0223374D01*
X0255178Y0225998D02*
Y0227047D01*
Y0226522D01*
X0252029D01*
X0252554Y0225998D01*
X0269178Y0220025D02*
X0266029D01*
Y0221600D01*
X0266554Y0222124D01*
X0267604D01*
X0268128Y0221600D01*
Y0220025D01*
Y0221075D02*
X0269178Y0222124D01*
Y0223174D02*
Y0224223D01*
Y0223699D01*
X0266029D01*
X0266554Y0223174D01*
X0269178Y0227897D02*
Y0225798D01*
X0267079Y0227897D01*
X0266554D01*
X0266029Y0227372D01*
Y0226322D01*
X0266554Y0225798D01*
X0383578Y0218325D02*
Y0221474D01*
X0385152D01*
X0385677Y0220949D01*
Y0219900D01*
X0385152Y0219375D01*
X0383578D01*
X0384628D02*
X0385677Y0218325D01*
X0386726D02*
X0387776D01*
X0387251D01*
Y0221474D01*
X0386726Y0220949D01*
X0389350D02*
X0389875Y0221474D01*
X0390925D01*
X0391449Y0220949D01*
Y0220424D01*
X0390925Y0219900D01*
X0390400D01*
X0390925D01*
X0391449Y0219375D01*
Y0218850D01*
X0390925Y0218325D01*
X0389875D01*
X0389350Y0218850D01*
X0383678Y0232125D02*
Y0235274D01*
X0385252D01*
X0385777Y0234749D01*
Y0233699D01*
X0385252Y0233175D01*
X0383678D01*
X0384728D02*
X0385777Y0232125D01*
X0386826D02*
X0387876D01*
X0387351D01*
Y0235274D01*
X0386826Y0234749D01*
X0391025Y0232125D02*
Y0235274D01*
X0389450Y0233699D01*
X0391549D01*
X0383678Y0239425D02*
Y0242574D01*
X0385252D01*
X0385777Y0242049D01*
Y0241000D01*
X0385252Y0240475D01*
X0383678D01*
X0384728D02*
X0385777Y0239425D01*
X0386826D02*
X0387876D01*
X0387351D01*
Y0242574D01*
X0386826Y0242049D01*
X0391549Y0242574D02*
X0389450D01*
Y0241000D01*
X0390500Y0241524D01*
X0391025D01*
X0391549Y0241000D01*
Y0239950D01*
X0391025Y0239425D01*
X0389975D01*
X0389450Y0239950D01*
X0248278Y0220125D02*
X0245129D01*
Y0221700D01*
X0245654Y0222224D01*
X0246704D01*
X0247228Y0221700D01*
Y0220125D01*
Y0221175D02*
X0248278Y0222224D01*
Y0223274D02*
Y0224323D01*
Y0223799D01*
X0245129D01*
X0245654Y0223274D01*
X0245129Y0227997D02*
X0245654Y0226947D01*
X0246704Y0225898D01*
X0247753D01*
X0248278Y0226422D01*
Y0227472D01*
X0247753Y0227997D01*
X0247228D01*
X0246704Y0227472D01*
Y0225898D01*
X0362778Y0253125D02*
Y0256274D01*
X0364352D01*
X0364877Y0255749D01*
Y0254699D01*
X0364352Y0254175D01*
X0362778D01*
X0363827D02*
X0364877Y0253125D01*
X0365927D02*
X0366976D01*
X0366451D01*
Y0256274D01*
X0365927Y0255749D01*
X0368550Y0256274D02*
X0370649D01*
Y0255749D01*
X0368550Y0253650D01*
Y0253125D01*
X0444778Y0265925D02*
X0441629D01*
Y0267499D01*
X0442154Y0268024D01*
X0443204D01*
X0443728Y0267499D01*
Y0265925D01*
Y0266975D02*
X0444778Y0268024D01*
Y0269074D02*
Y0270123D01*
Y0269599D01*
X0441629D01*
X0442154Y0269074D01*
Y0271698D02*
X0441629Y0272222D01*
Y0273272D01*
X0442154Y0273797D01*
X0442679D01*
X0443204Y0273272D01*
X0443728Y0273797D01*
X0444253D01*
X0444778Y0273272D01*
Y0272222D01*
X0444253Y0271698D01*
X0443728D01*
X0443204Y0272222D01*
X0442679Y0271698D01*
X0442154D01*
X0443204Y0272222D02*
Y0273272D01*
X0451278Y0182525D02*
Y0185674D01*
X0452852D01*
X0453377Y0185149D01*
Y0184099D01*
X0452852Y0183575D01*
X0451278D01*
X0452327D02*
X0453377Y0182525D01*
X0454427D02*
X0455476D01*
X0454951D01*
Y0185674D01*
X0454427Y0185149D01*
X0457050Y0183050D02*
X0457575Y0182525D01*
X0458625D01*
X0459149Y0183050D01*
Y0185149D01*
X0458625Y0185674D01*
X0457575D01*
X0457050Y0185149D01*
Y0184624D01*
X0457575Y0184099D01*
X0459149D01*
X0455778Y0242025D02*
Y0245174D01*
X0457352D01*
X0457877Y0244649D01*
Y0243600D01*
X0457352Y0243075D01*
X0455778D01*
X0456827D02*
X0457877Y0242025D01*
X0461026D02*
X0458927D01*
X0461026Y0244124D01*
Y0244649D01*
X0460501Y0245174D01*
X0459451D01*
X0458927Y0244649D01*
X0462075D02*
X0462600Y0245174D01*
X0463649D01*
X0464174Y0244649D01*
Y0242550D01*
X0463649Y0242025D01*
X0462600D01*
X0462075Y0242550D01*
Y0244649D01*
X0489425Y0190925D02*
Y0194074D01*
X0491000D01*
X0491524Y0193549D01*
Y0192499D01*
X0491000Y0191975D01*
X0489425D01*
X0490475D02*
X0491524Y0190925D01*
X0494673D02*
X0492574D01*
X0494673Y0193024D01*
Y0193549D01*
X0494148Y0194074D01*
X0493099D01*
X0492574Y0193549D01*
X0495722Y0190925D02*
X0496772D01*
X0496247D01*
Y0194074D01*
X0495722Y0193549D01*
X0507778Y0203525D02*
Y0206674D01*
X0509352D01*
X0509877Y0206149D01*
Y0205100D01*
X0509352Y0204575D01*
X0507778D01*
X0508827D02*
X0509877Y0203525D01*
X0513026D02*
X0510927D01*
X0513026Y0205624D01*
Y0206149D01*
X0512501Y0206674D01*
X0511451D01*
X0510927Y0206149D01*
X0516174Y0203525D02*
X0514075D01*
X0516174Y0205624D01*
Y0206149D01*
X0515649Y0206674D01*
X0514600D01*
X0514075Y0206149D01*
X0489178Y0292325D02*
Y0295474D01*
X0490752D01*
X0491277Y0294949D01*
Y0293899D01*
X0490752Y0293375D01*
X0489178D01*
X0490228D02*
X0491277Y0292325D01*
X0494426D02*
X0492327D01*
X0494426Y0294424D01*
Y0294949D01*
X0493901Y0295474D01*
X0492851D01*
X0492327Y0294949D01*
X0495475D02*
X0496000Y0295474D01*
X0497049D01*
X0497574Y0294949D01*
Y0294424D01*
X0497049Y0293899D01*
X0496525D01*
X0497049D01*
X0497574Y0293375D01*
Y0292850D01*
X0497049Y0292325D01*
X0496000D01*
X0495475Y0292850D01*
X0508078Y0305025D02*
Y0308174D01*
X0509652D01*
X0510177Y0307649D01*
Y0306599D01*
X0509652Y0306075D01*
X0508078D01*
X0509128D02*
X0510177Y0305025D01*
X0513326D02*
X0511227D01*
X0513326Y0307124D01*
Y0307649D01*
X0512801Y0308174D01*
X0511751D01*
X0511227Y0307649D01*
X0515949Y0305025D02*
Y0308174D01*
X0514375Y0306599D01*
X0516474D01*
X0489178Y0309325D02*
Y0312474D01*
X0490752D01*
X0491277Y0311949D01*
Y0310899D01*
X0490752Y0310375D01*
X0489178D01*
X0490228D02*
X0491277Y0309325D01*
X0494426D02*
X0492327D01*
X0494426Y0311424D01*
Y0311949D01*
X0493901Y0312474D01*
X0492851D01*
X0492327Y0311949D01*
X0497574Y0312474D02*
X0495475D01*
Y0310899D01*
X0496525Y0311424D01*
X0497049D01*
X0497574Y0310899D01*
Y0309850D01*
X0497049Y0309325D01*
X0496000D01*
X0495475Y0309850D01*
X0507778Y0321825D02*
Y0324974D01*
X0509352D01*
X0509877Y0324449D01*
Y0323399D01*
X0509352Y0322875D01*
X0507778D01*
X0508827D02*
X0509877Y0321825D01*
X0513026D02*
X0510927D01*
X0513026Y0323924D01*
Y0324449D01*
X0512501Y0324974D01*
X0511451D01*
X0510927Y0324449D01*
X0516174Y0324974D02*
X0515125Y0324449D01*
X0514075Y0323399D01*
Y0322350D01*
X0514600Y0321825D01*
X0515649D01*
X0516174Y0322350D01*
Y0322875D01*
X0515649Y0323399D01*
X0514075D01*
X0489378Y0258625D02*
Y0261774D01*
X0490952D01*
X0491477Y0261249D01*
Y0260199D01*
X0490952Y0259675D01*
X0489378D01*
X0490427D02*
X0491477Y0258625D01*
X0494626D02*
X0492527D01*
X0494626Y0260724D01*
Y0261249D01*
X0494101Y0261774D01*
X0493051D01*
X0492527Y0261249D01*
X0495675Y0261774D02*
X0497774D01*
Y0261249D01*
X0495675Y0259150D01*
Y0258625D01*
X0508078Y0271125D02*
Y0274274D01*
X0509652D01*
X0510177Y0273749D01*
Y0272699D01*
X0509652Y0272175D01*
X0508078D01*
X0509128D02*
X0510177Y0271125D01*
X0513326D02*
X0511227D01*
X0513326Y0273224D01*
Y0273749D01*
X0512801Y0274274D01*
X0511751D01*
X0511227Y0273749D01*
X0514375D02*
X0514900Y0274274D01*
X0515949D01*
X0516474Y0273749D01*
Y0273224D01*
X0515949Y0272699D01*
X0516474Y0272175D01*
Y0271650D01*
X0515949Y0271125D01*
X0514900D01*
X0514375Y0271650D01*
Y0272175D01*
X0514900Y0272699D01*
X0514375Y0273224D01*
Y0273749D01*
X0514900Y0272699D02*
X0515949D01*
X0489078Y0275525D02*
Y0278674D01*
X0490652D01*
X0491177Y0278149D01*
Y0277099D01*
X0490652Y0276575D01*
X0489078D01*
X0490128D02*
X0491177Y0275525D01*
X0494326D02*
X0492227D01*
X0494326Y0277624D01*
Y0278149D01*
X0493801Y0278674D01*
X0492751D01*
X0492227Y0278149D01*
X0495375Y0276050D02*
X0495900Y0275525D01*
X0496949D01*
X0497474Y0276050D01*
Y0278149D01*
X0496949Y0278674D01*
X0495900D01*
X0495375Y0278149D01*
Y0277624D01*
X0495900Y0277099D01*
X0497474D01*
X0507778Y0287725D02*
Y0290874D01*
X0509352D01*
X0509877Y0290349D01*
Y0289300D01*
X0509352Y0288775D01*
X0507778D01*
X0508827D02*
X0509877Y0287725D01*
X0510927Y0290349D02*
X0511451Y0290874D01*
X0512501D01*
X0513026Y0290349D01*
Y0289824D01*
X0512501Y0289300D01*
X0511976D01*
X0512501D01*
X0513026Y0288775D01*
Y0288250D01*
X0512501Y0287725D01*
X0511451D01*
X0510927Y0288250D01*
X0514075Y0290349D02*
X0514600Y0290874D01*
X0515649D01*
X0516174Y0290349D01*
Y0288250D01*
X0515649Y0287725D01*
X0514600D01*
X0514075Y0288250D01*
Y0290349D01*
X0489478Y0224925D02*
Y0228074D01*
X0491052D01*
X0491577Y0227549D01*
Y0226500D01*
X0491052Y0225975D01*
X0489478D01*
X0490527D02*
X0491577Y0224925D01*
X0492627Y0227549D02*
X0493151Y0228074D01*
X0494201D01*
X0494726Y0227549D01*
Y0227024D01*
X0494201Y0226500D01*
X0493676D01*
X0494201D01*
X0494726Y0225975D01*
Y0225450D01*
X0494201Y0224925D01*
X0493151D01*
X0492627Y0225450D01*
X0495775Y0224925D02*
X0496825D01*
X0496300D01*
Y0228074D01*
X0495775Y0227549D01*
X0507978Y0237325D02*
Y0240474D01*
X0509552D01*
X0510077Y0239949D01*
Y0238899D01*
X0509552Y0238375D01*
X0507978D01*
X0509027D02*
X0510077Y0237325D01*
X0511127Y0239949D02*
X0511651Y0240474D01*
X0512701D01*
X0513226Y0239949D01*
Y0239424D01*
X0512701Y0238899D01*
X0512176D01*
X0512701D01*
X0513226Y0238375D01*
Y0237850D01*
X0512701Y0237325D01*
X0511651D01*
X0511127Y0237850D01*
X0516374Y0237325D02*
X0514275D01*
X0516374Y0239424D01*
Y0239949D01*
X0515849Y0240474D01*
X0514800D01*
X0514275Y0239949D01*
X0489278Y0241725D02*
Y0244874D01*
X0490852D01*
X0491377Y0244349D01*
Y0243300D01*
X0490852Y0242775D01*
X0489278D01*
X0490328D02*
X0491377Y0241725D01*
X0492427Y0244349D02*
X0492951Y0244874D01*
X0494001D01*
X0494526Y0244349D01*
Y0243824D01*
X0494001Y0243300D01*
X0493476D01*
X0494001D01*
X0494526Y0242775D01*
Y0242250D01*
X0494001Y0241725D01*
X0492951D01*
X0492427Y0242250D01*
X0495575Y0244349D02*
X0496100Y0244874D01*
X0497149D01*
X0497674Y0244349D01*
Y0243824D01*
X0497149Y0243300D01*
X0496625D01*
X0497149D01*
X0497674Y0242775D01*
Y0242250D01*
X0497149Y0241725D01*
X0496100D01*
X0495575Y0242250D01*
X0508178Y0254525D02*
Y0257674D01*
X0509752D01*
X0510277Y0257149D01*
Y0256100D01*
X0509752Y0255575D01*
X0508178D01*
X0509228D02*
X0510277Y0254525D01*
X0511327Y0257149D02*
X0511851Y0257674D01*
X0512901D01*
X0513426Y0257149D01*
Y0256624D01*
X0512901Y0256100D01*
X0512376D01*
X0512901D01*
X0513426Y0255575D01*
Y0255050D01*
X0512901Y0254525D01*
X0511851D01*
X0511327Y0255050D01*
X0516049Y0254525D02*
Y0257674D01*
X0514475Y0256100D01*
X0516574D01*
X0489378Y0139825D02*
Y0142974D01*
X0490952D01*
X0491477Y0142449D01*
Y0141400D01*
X0490952Y0140875D01*
X0489378D01*
X0490427D02*
X0491477Y0139825D01*
X0492527Y0142449D02*
X0493051Y0142974D01*
X0494101D01*
X0494626Y0142449D01*
Y0141924D01*
X0494101Y0141400D01*
X0493576D01*
X0494101D01*
X0494626Y0140875D01*
Y0140350D01*
X0494101Y0139825D01*
X0493051D01*
X0492527Y0140350D01*
X0497774Y0142974D02*
X0495675D01*
Y0141400D01*
X0496725Y0141924D01*
X0497249D01*
X0497774Y0141400D01*
Y0140350D01*
X0497249Y0139825D01*
X0496200D01*
X0495675Y0140350D01*
X0508078Y0152225D02*
Y0155374D01*
X0509652D01*
X0510177Y0154849D01*
Y0153799D01*
X0509652Y0153275D01*
X0508078D01*
X0509128D02*
X0510177Y0152225D01*
X0511227Y0154849D02*
X0511751Y0155374D01*
X0512801D01*
X0513326Y0154849D01*
Y0154324D01*
X0512801Y0153799D01*
X0512276D01*
X0512801D01*
X0513326Y0153275D01*
Y0152750D01*
X0512801Y0152225D01*
X0511751D01*
X0511227Y0152750D01*
X0516474Y0155374D02*
X0515425Y0154849D01*
X0514375Y0153799D01*
Y0152750D01*
X0514900Y0152225D01*
X0515949D01*
X0516474Y0152750D01*
Y0153275D01*
X0515949Y0153799D01*
X0514375D01*
X0489278Y0207925D02*
Y0211074D01*
X0490852D01*
X0491377Y0210549D01*
Y0209500D01*
X0490852Y0208975D01*
X0489278D01*
X0490328D02*
X0491377Y0207925D01*
X0492427Y0210549D02*
X0492951Y0211074D01*
X0494001D01*
X0494526Y0210549D01*
Y0210024D01*
X0494001Y0209500D01*
X0493476D01*
X0494001D01*
X0494526Y0208975D01*
Y0208450D01*
X0494001Y0207925D01*
X0492951D01*
X0492427Y0208450D01*
X0495575Y0211074D02*
X0497674D01*
Y0210549D01*
X0495575Y0208450D01*
Y0207925D01*
X0507878Y0220525D02*
Y0223674D01*
X0509452D01*
X0509977Y0223149D01*
Y0222099D01*
X0509452Y0221575D01*
X0507878D01*
X0508927D02*
X0509977Y0220525D01*
X0511027Y0223149D02*
X0511551Y0223674D01*
X0512601D01*
X0513126Y0223149D01*
Y0222624D01*
X0512601Y0222099D01*
X0512076D01*
X0512601D01*
X0513126Y0221575D01*
Y0221050D01*
X0512601Y0220525D01*
X0511551D01*
X0511027Y0221050D01*
X0514175Y0223149D02*
X0514700Y0223674D01*
X0515749D01*
X0516274Y0223149D01*
Y0222624D01*
X0515749Y0222099D01*
X0516274Y0221575D01*
Y0221050D01*
X0515749Y0220525D01*
X0514700D01*
X0514175Y0221050D01*
Y0221575D01*
X0514700Y0222099D01*
X0514175Y0222624D01*
Y0223149D01*
X0514700Y0222099D02*
X0515749D01*
X0489378Y0157125D02*
Y0160274D01*
X0490952D01*
X0491477Y0159749D01*
Y0158700D01*
X0490952Y0158175D01*
X0489378D01*
X0490427D02*
X0491477Y0157125D01*
X0492527Y0159749D02*
X0493051Y0160274D01*
X0494101D01*
X0494626Y0159749D01*
Y0159224D01*
X0494101Y0158700D01*
X0493576D01*
X0494101D01*
X0494626Y0158175D01*
Y0157650D01*
X0494101Y0157125D01*
X0493051D01*
X0492527Y0157650D01*
X0495675D02*
X0496200Y0157125D01*
X0497249D01*
X0497774Y0157650D01*
Y0159749D01*
X0497249Y0160274D01*
X0496200D01*
X0495675Y0159749D01*
Y0159224D01*
X0496200Y0158700D01*
X0497774D01*
X0508078Y0169425D02*
Y0172574D01*
X0509652D01*
X0510177Y0172049D01*
Y0171000D01*
X0509652Y0170475D01*
X0508078D01*
X0509128D02*
X0510177Y0169425D01*
X0512801D02*
Y0172574D01*
X0511227Y0171000D01*
X0513326D01*
X0514375Y0172049D02*
X0514900Y0172574D01*
X0515949D01*
X0516474Y0172049D01*
Y0169950D01*
X0515949Y0169425D01*
X0514900D01*
X0514375Y0169950D01*
Y0172049D01*
X0338378Y0309125D02*
Y0312274D01*
X0339952D01*
X0340477Y0311749D01*
Y0310700D01*
X0339952Y0310175D01*
X0338378D01*
X0339427D02*
X0340477Y0309125D01*
X0343101D02*
Y0312274D01*
X0341527Y0310700D01*
X0343626D01*
X0344675Y0309125D02*
X0345725D01*
X0345200D01*
Y0312274D01*
X0344675Y0311749D01*
X0319578Y0309225D02*
Y0312374D01*
X0321152D01*
X0321677Y0311849D01*
Y0310800D01*
X0321152Y0310275D01*
X0319578D01*
X0320627D02*
X0321677Y0309225D01*
X0324301D02*
Y0312374D01*
X0322726Y0310800D01*
X0324826D01*
X0327974Y0309225D02*
X0325875D01*
X0327974Y0311324D01*
Y0311849D01*
X0327449Y0312374D01*
X0326400D01*
X0325875Y0311849D01*
X0489478Y0122225D02*
Y0125374D01*
X0491052D01*
X0491577Y0124849D01*
Y0123800D01*
X0491052Y0123275D01*
X0489478D01*
X0490527D02*
X0491577Y0122225D01*
X0494201D02*
Y0125374D01*
X0492627Y0123800D01*
X0494726D01*
X0495775Y0124849D02*
X0496300Y0125374D01*
X0497349D01*
X0497874Y0124849D01*
Y0124324D01*
X0497349Y0123800D01*
X0496825D01*
X0497349D01*
X0497874Y0123275D01*
Y0122750D01*
X0497349Y0122225D01*
X0496300D01*
X0495775Y0122750D01*
X0524378Y0122325D02*
Y0125474D01*
X0525952D01*
X0526477Y0124949D01*
Y0123899D01*
X0525952Y0123375D01*
X0524378D01*
X0525427D02*
X0526477Y0122325D01*
X0529101D02*
Y0125474D01*
X0527527Y0123899D01*
X0529626D01*
X0532249Y0122325D02*
Y0125474D01*
X0530675Y0123899D01*
X0532774D01*
X0489278Y0173825D02*
Y0176974D01*
X0490852D01*
X0491377Y0176449D01*
Y0175399D01*
X0490852Y0174875D01*
X0489278D01*
X0490328D02*
X0491377Y0173825D01*
X0494001D02*
Y0176974D01*
X0492427Y0175399D01*
X0494526D01*
X0497674Y0176974D02*
X0495575D01*
Y0175399D01*
X0496625Y0175924D01*
X0497149D01*
X0497674Y0175399D01*
Y0174350D01*
X0497149Y0173825D01*
X0496100D01*
X0495575Y0174350D01*
X0508078Y0186425D02*
Y0189574D01*
X0509652D01*
X0510177Y0189049D01*
Y0187999D01*
X0509652Y0187475D01*
X0508078D01*
X0509128D02*
X0510177Y0186425D01*
X0512801D02*
Y0189574D01*
X0511227Y0187999D01*
X0513326D01*
X0516474Y0189574D02*
X0515425Y0189049D01*
X0514375Y0187999D01*
Y0186950D01*
X0514900Y0186425D01*
X0515949D01*
X0516474Y0186950D01*
Y0187475D01*
X0515949Y0187999D01*
X0514375D01*
X0508478Y0134825D02*
Y0137974D01*
X0510052D01*
X0510577Y0137449D01*
Y0136399D01*
X0510052Y0135875D01*
X0508478D01*
X0509527D02*
X0510577Y0134825D01*
X0513201D02*
Y0137974D01*
X0511627Y0136399D01*
X0513726D01*
X0514775Y0137974D02*
X0516874D01*
Y0137449D01*
X0514775Y0135350D01*
Y0134825D01*
X0470478Y0128825D02*
Y0131974D01*
X0472052D01*
X0472577Y0131449D01*
Y0130400D01*
X0472052Y0129875D01*
X0470478D01*
X0471527D02*
X0472577Y0128825D01*
X0475201D02*
Y0131974D01*
X0473627Y0130400D01*
X0475726D01*
X0476775Y0131449D02*
X0477300Y0131974D01*
X0478349D01*
X0478874Y0131449D01*
Y0130924D01*
X0478349Y0130400D01*
X0478874Y0129875D01*
Y0129350D01*
X0478349Y0128825D01*
X0477300D01*
X0476775Y0129350D01*
Y0129875D01*
X0477300Y0130400D01*
X0476775Y0130924D01*
Y0131449D01*
X0477300Y0130400D02*
X0478349D01*
X0154704Y0236878D02*
Y0240027D01*
X0156279D01*
X0156804Y0239502D01*
Y0238453D01*
X0156279Y0237928D01*
X0154704D01*
X0155754D02*
X0156804Y0236878D01*
X0159952Y0240027D02*
X0157853D01*
Y0238453D01*
X0158903Y0238978D01*
X0159427D01*
X0159952Y0238453D01*
Y0237403D01*
X0159427Y0236878D01*
X0158378D01*
X0157853Y0237403D01*
X0161002Y0239502D02*
X0161526Y0240027D01*
X0162576D01*
X0163101Y0239502D01*
Y0237403D01*
X0162576Y0236878D01*
X0161526D01*
X0161002Y0237403D01*
Y0239502D01*
X0101767Y0184236D02*
X0098618D01*
Y0185810D01*
X0099143Y0186335D01*
X0100193D01*
X0100717Y0185810D01*
Y0184236D01*
Y0185286D02*
X0101767Y0186335D01*
X0098618Y0189484D02*
Y0187385D01*
X0100193D01*
X0099668Y0188434D01*
Y0188959D01*
X0100193Y0189484D01*
X0101242D01*
X0101767Y0188959D01*
Y0187910D01*
X0101242Y0187385D01*
X0101767Y0190533D02*
Y0191583D01*
Y0191058D01*
X0098618D01*
X0099143Y0190533D01*
X0148623Y0311008D02*
X0145474D01*
Y0312582D01*
X0145999Y0313107D01*
X0147049D01*
X0147573Y0312582D01*
Y0311008D01*
Y0312057D02*
X0148623Y0313107D01*
X0145474Y0316255D02*
Y0314157D01*
X0147049D01*
X0146524Y0315206D01*
Y0315731D01*
X0147049Y0316255D01*
X0148098D01*
X0148623Y0315731D01*
Y0314681D01*
X0148098Y0314157D01*
X0148623Y0319404D02*
Y0317305D01*
X0146524Y0319404D01*
X0145999D01*
X0145474Y0318879D01*
Y0317830D01*
X0145999Y0317305D01*
X0144244Y0311008D02*
X0141095D01*
Y0312582D01*
X0141620Y0313107D01*
X0142669D01*
X0143194Y0312582D01*
Y0311008D01*
Y0312057D02*
X0144244Y0313107D01*
X0141095Y0316255D02*
Y0314157D01*
X0142669D01*
X0142145Y0315206D01*
Y0315731D01*
X0142669Y0316255D01*
X0143719D01*
X0144244Y0315731D01*
Y0314681D01*
X0143719Y0314157D01*
X0141620Y0317305D02*
X0141095Y0317830D01*
Y0318879D01*
X0141620Y0319404D01*
X0142145D01*
X0142669Y0318879D01*
Y0318355D01*
Y0318879D01*
X0143194Y0319404D01*
X0143719D01*
X0144244Y0318879D01*
Y0317830D01*
X0143719Y0317305D01*
X0290278Y0172525D02*
Y0175674D01*
X0291852D01*
X0292377Y0175149D01*
Y0174100D01*
X0291852Y0173575D01*
X0290278D01*
X0291328D02*
X0292377Y0172525D01*
X0295526Y0175674D02*
X0293426D01*
Y0174100D01*
X0294476Y0174624D01*
X0295001D01*
X0295526Y0174100D01*
Y0173050D01*
X0295001Y0172525D01*
X0293951D01*
X0293426Y0173050D01*
X0298149Y0172525D02*
Y0175674D01*
X0296575Y0174100D01*
X0298674D01*
X0251078Y0168125D02*
Y0171274D01*
X0252652D01*
X0253177Y0170749D01*
Y0169700D01*
X0252652Y0169175D01*
X0251078D01*
X0252128D02*
X0253177Y0168125D01*
X0256326Y0171274D02*
X0254226D01*
Y0169700D01*
X0255276Y0170224D01*
X0255801D01*
X0256326Y0169700D01*
Y0168650D01*
X0255801Y0168125D01*
X0254751D01*
X0254226Y0168650D01*
X0259474Y0171274D02*
X0257375D01*
Y0169700D01*
X0258425Y0170224D01*
X0258949D01*
X0259474Y0169700D01*
Y0168650D01*
X0258949Y0168125D01*
X0257900D01*
X0257375Y0168650D01*
X0263978Y0168125D02*
Y0171274D01*
X0265552D01*
X0266077Y0170749D01*
Y0169700D01*
X0265552Y0169175D01*
X0263978D01*
X0265027D02*
X0266077Y0168125D01*
X0269226Y0171274D02*
X0267126D01*
Y0169700D01*
X0268176Y0170224D01*
X0268701D01*
X0269226Y0169700D01*
Y0168650D01*
X0268701Y0168125D01*
X0267651D01*
X0267126Y0168650D01*
X0272374Y0171274D02*
X0271325Y0170749D01*
X0270275Y0169700D01*
Y0168650D01*
X0270800Y0168125D01*
X0271849D01*
X0272374Y0168650D01*
Y0169175D01*
X0271849Y0169700D01*
X0270275D01*
X0288106Y0130000D02*
X0284957D01*
Y0131574D01*
X0285482Y0132099D01*
X0286531D01*
X0287056Y0131574D01*
Y0130000D01*
Y0131050D02*
X0288106Y0132099D01*
X0284957Y0135248D02*
Y0133149D01*
X0286531D01*
X0286006Y0134198D01*
Y0134723D01*
X0286531Y0135248D01*
X0287581D01*
X0288106Y0134723D01*
Y0133673D01*
X0287581Y0133149D01*
X0284957Y0136297D02*
Y0138396D01*
X0285482D01*
X0287581Y0136297D01*
X0288106D01*
X0233657Y0142898D02*
Y0146046D01*
X0235231D01*
X0235756Y0145521D01*
Y0144472D01*
X0235231Y0143947D01*
X0233657D01*
X0234706D02*
X0235756Y0142898D01*
X0238904Y0146046D02*
X0236805D01*
Y0144472D01*
X0237855Y0144997D01*
X0238380D01*
X0238904Y0144472D01*
Y0143422D01*
X0238380Y0142898D01*
X0237330D01*
X0236805Y0143422D01*
X0239954Y0145521D02*
X0240479Y0146046D01*
X0241528D01*
X0242053Y0145521D01*
Y0144997D01*
X0241528Y0144472D01*
X0242053Y0143947D01*
Y0143422D01*
X0241528Y0142898D01*
X0240479D01*
X0239954Y0143422D01*
Y0143947D01*
X0240479Y0144472D01*
X0239954Y0144997D01*
Y0145521D01*
X0240479Y0144472D02*
X0241528D01*
X0272056Y0124394D02*
X0268908D01*
Y0125968D01*
X0269432Y0126493D01*
X0270482D01*
X0271007Y0125968D01*
Y0124394D01*
Y0125443D02*
X0272056Y0126493D01*
X0268908Y0129641D02*
Y0127542D01*
X0270482D01*
X0269957Y0128592D01*
Y0129117D01*
X0270482Y0129641D01*
X0271531D01*
X0272056Y0129117D01*
Y0128067D01*
X0271531Y0127542D01*
Y0130691D02*
X0272056Y0131216D01*
Y0132265D01*
X0271531Y0132790D01*
X0269432D01*
X0268908Y0132265D01*
Y0131216D01*
X0269432Y0130691D01*
X0269957D01*
X0270482Y0131216D01*
Y0132790D01*
X0245868Y0119276D02*
X0242720D01*
Y0120850D01*
X0243245Y0121375D01*
X0244294D01*
X0244819Y0120850D01*
Y0119276D01*
Y0120325D02*
X0245868Y0121375D01*
X0242720Y0124523D02*
X0243245Y0123474D01*
X0244294Y0122424D01*
X0245344D01*
X0245868Y0122949D01*
Y0123998D01*
X0245344Y0124523D01*
X0244819D01*
X0244294Y0123998D01*
Y0122424D01*
X0245868Y0125573D02*
Y0126622D01*
Y0126098D01*
X0242720D01*
X0243245Y0125573D01*
X0449878Y0301074D02*
Y0298450D01*
X0450403Y0297925D01*
X0451452D01*
X0451977Y0298450D01*
Y0301074D01*
X0455126Y0297925D02*
X0453027D01*
X0455126Y0300024D01*
Y0300549D01*
X0454601Y0301074D01*
X0453551D01*
X0453027Y0300549D01*
X0393178Y0250174D02*
Y0247550D01*
X0393703Y0247025D01*
X0394752D01*
X0395277Y0247550D01*
Y0250174D01*
X0396326Y0249649D02*
X0396851Y0250174D01*
X0397901D01*
X0398426Y0249649D01*
Y0249124D01*
X0397901Y0248600D01*
X0397376D01*
X0397901D01*
X0398426Y0248075D01*
Y0247550D01*
X0397901Y0247025D01*
X0396851D01*
X0396326Y0247550D01*
X0414078Y0301174D02*
Y0298550D01*
X0414603Y0298025D01*
X0415652D01*
X0416177Y0298550D01*
Y0301174D01*
X0418801Y0298025D02*
Y0301174D01*
X0417227Y0299600D01*
X0419326D01*
X0465578Y0171674D02*
Y0169050D01*
X0466103Y0168525D01*
X0467152D01*
X0467677Y0169050D01*
Y0171674D01*
X0470826D02*
X0468727D01*
Y0170099D01*
X0469776Y0170624D01*
X0470301D01*
X0470826Y0170099D01*
Y0169050D01*
X0470301Y0168525D01*
X0469251D01*
X0468727Y0169050D01*
X0230720Y0298821D02*
Y0296197D01*
X0231244Y0295672D01*
X0232294D01*
X0232819Y0296197D01*
Y0298821D01*
X0235967D02*
X0234918Y0298296D01*
X0233868Y0297246D01*
Y0296197D01*
X0234393Y0295672D01*
X0235443D01*
X0235967Y0296197D01*
Y0296722D01*
X0235443Y0297246D01*
X0233868D01*
X0262978Y0196474D02*
Y0193850D01*
X0263503Y0193325D01*
X0264552D01*
X0265077Y0193850D01*
Y0196474D01*
X0266126D02*
X0268226D01*
Y0195949D01*
X0266126Y0193850D01*
Y0193325D01*
X0263121Y0164298D02*
Y0161674D01*
X0263646Y0161150D01*
X0264696D01*
X0265220Y0161674D01*
Y0164298D01*
X0266270Y0163773D02*
X0266795Y0164298D01*
X0267844D01*
X0268369Y0163773D01*
Y0163249D01*
X0267844Y0162724D01*
X0268369Y0162199D01*
Y0161674D01*
X0267844Y0161150D01*
X0266795D01*
X0266270Y0161674D01*
Y0162199D01*
X0266795Y0162724D01*
X0266270Y0163249D01*
Y0163773D01*
X0266795Y0162724D02*
X0267844D01*
X0286778Y0286174D02*
X0288877Y0283025D01*
Y0286174D02*
X0286778Y0283025D01*
X0289927D02*
X0290976D01*
X0290451D01*
Y0286174D01*
X0289927Y0285649D01*
X0279578Y0254074D02*
Y0253549D01*
X0280627Y0252500D01*
X0281677Y0253549D01*
Y0254074D01*
X0280627Y0252500D02*
Y0250925D01*
X0282727D02*
X0283776D01*
X0283251D01*
Y0254074D01*
X0282727Y0253549D01*
X0320978Y0286274D02*
Y0283650D01*
X0321503Y0283125D01*
X0322552D01*
X0323077Y0283650D01*
Y0286274D01*
X0324127Y0283125D02*
X0325176D01*
X0324651D01*
Y0286274D01*
X0324127Y0285749D01*
X0294478Y0316825D02*
Y0319974D01*
X0296052D01*
X0296577Y0319449D01*
Y0318400D01*
X0296052Y0317875D01*
X0294478D01*
X0295528D02*
X0296577Y0316825D01*
X0299726Y0319974D02*
X0298676Y0319449D01*
X0297626Y0318400D01*
Y0317350D01*
X0298151Y0316825D01*
X0299201D01*
X0299726Y0317350D01*
Y0317875D01*
X0299201Y0318400D01*
X0297626D01*
X0302874Y0316825D02*
X0300775D01*
X0302874Y0318924D01*
Y0319449D01*
X0302349Y0319974D01*
X0301300D01*
X0300775Y0319449D01*
X0239177Y0329649D02*
X0238652Y0330174D01*
X0237603D01*
X0237078Y0329649D01*
Y0329124D01*
X0237603Y0328600D01*
X0238652D01*
X0239177Y0328075D01*
Y0327550D01*
X0238652Y0327025D01*
X0237603D01*
X0237078Y0327550D01*
X0240227Y0330174D02*
Y0327025D01*
X0241276Y0328075D01*
X0242326Y0327025D01*
Y0330174D01*
X0243375Y0327025D02*
X0244425D01*
X0243900D01*
Y0330174D01*
X0243375Y0329649D01*
D16*
X0393696Y0127760D02*
D03*
M02*
