G04*
G04 #@! TF.GenerationSoftware,Altium Limited,Altium Designer,18.1.9 (240)*
G04*
G04 Layer_Color=16711935*
%FSAX25Y25*%
%MOIN*%
G70*
G01*
G75*
%ADD12C,0.00787*%
%ADD89C,0.01000*%
%ADD121C,0.00300*%
%ADD122C,0.00600*%
D12*
X0521700Y0297231D02*
X0562982D01*
X0521700Y0142228D02*
Y0297231D01*
Y0142228D02*
X0563097D01*
X0563097Y0297231D02*
X0563097Y0142228D01*
X0231294Y0307105D02*
Y0332025D01*
X0221058Y0296869D02*
X0231294Y0307105D01*
X0208069Y0149591D02*
X0233263D01*
X0201767Y0155892D02*
X0208069Y0149591D01*
X0201767Y0155892D02*
Y0175969D01*
X0212721Y0186923D01*
X0233895D01*
X0221058Y0256698D02*
Y0296869D01*
Y0256698D02*
X0239562Y0238195D01*
Y0192532D02*
Y0238195D01*
X0233657Y0186627D02*
X0239562Y0192532D01*
X0233657Y0108525D02*
Y0186627D01*
X0178932Y0108525D02*
Y0186627D01*
X0184838Y0192532D01*
Y0238195D01*
X0166334Y0256698D02*
X0184838Y0238195D01*
X0166334Y0256698D02*
Y0332025D01*
D89*
X0093106Y0344079D02*
X0099106Y0346079D01*
X0093106Y0344079D02*
X0099106Y0342079D01*
X0575278D02*
X0581278Y0344079D01*
X0575278Y0346079D02*
X0581278Y0344079D01*
X0093106D02*
X0317997D01*
X0353187D02*
X0581278D01*
X0093106Y0333075D02*
Y0345079D01*
X0581278Y0333075D02*
Y0345079D01*
X0594287Y0331925D02*
X0596287Y0325925D01*
X0592287D02*
X0594287Y0331925D01*
X0592287Y0114525D02*
X0594287Y0108525D01*
X0596287Y0114525D01*
X0594287Y0233721D02*
Y0331925D01*
Y0108525D02*
Y0203530D01*
X0582428Y0331925D02*
X0595287D01*
X0582428Y0108525D02*
X0595287D01*
D121*
X0093106Y0331925D02*
X0093106Y0108525D01*
X0093106Y0331925D02*
X0581278D01*
Y0108525D02*
Y0331925D01*
X0093106Y0108525D02*
X0581278D01*
D122*
X0319597Y0340480D02*
X0321596D01*
X0320597D01*
Y0346478D01*
X0319597Y0345478D01*
X0328594Y0340480D02*
X0324595D01*
X0328594Y0344478D01*
Y0345478D01*
X0327594Y0346478D01*
X0325595D01*
X0324595Y0345478D01*
X0333592Y0340480D02*
Y0346478D01*
X0330593Y0343479D01*
X0334592D01*
X0336591Y0340480D02*
Y0341479D01*
X0337591D01*
Y0340480D01*
X0336591D01*
X0341590Y0345478D02*
X0342589Y0346478D01*
X0344589D01*
X0345588Y0345478D01*
Y0341479D01*
X0344589Y0340480D01*
X0342589D01*
X0341590Y0341479D01*
Y0345478D01*
X0347588D02*
X0348587Y0346478D01*
X0350587D01*
X0351587Y0345478D01*
Y0341479D01*
X0350587Y0340480D01*
X0348587D01*
X0347588Y0341479D01*
Y0345478D01*
X0591888Y0209128D02*
Y0205130D01*
X0594887D01*
X0593887Y0207129D01*
Y0208129D01*
X0594887Y0209128D01*
X0596886D01*
X0597886Y0208129D01*
Y0206129D01*
X0596886Y0205130D01*
X0591888Y0215126D02*
X0592887Y0213127D01*
X0594887Y0211128D01*
X0596886D01*
X0597886Y0212127D01*
Y0214127D01*
X0596886Y0215126D01*
X0595886D01*
X0594887Y0214127D01*
Y0211128D01*
X0597886Y0217126D02*
X0596886D01*
Y0218125D01*
X0597886D01*
Y0217126D01*
X0591888Y0222124D02*
Y0226123D01*
X0592887D01*
X0596886Y0222124D01*
X0597886D01*
Y0231121D02*
X0591888D01*
X0594887Y0228122D01*
Y0232121D01*
M02*
