G04*
G04 #@! TF.GenerationSoftware,Altium Limited,Altium Designer,18.1.9 (240)*
G04*
G04 Layer_Color=8421504*
%FSAX25Y25*%
%MOIN*%
G70*
G01*
G75*
%ADD17R,0.05512X0.01575*%
%ADD18R,0.05480X0.04102*%
%ADD19R,0.05512X0.04724*%
%ADD20R,0.03937X0.02756*%
%ADD21R,0.01181X0.03740*%
%ADD22R,0.03740X0.01181*%
%ADD23R,0.09252X0.09252*%
%ADD24R,0.07874X0.02362*%
%ADD25R,0.02362X0.03937*%
%ADD26R,0.03937X0.02362*%
%ADD27R,0.10236X0.07480*%
%ADD28R,0.02244X0.02441*%
%ADD29R,0.02362X0.01968*%
%ADD30R,0.03543X0.02362*%
%ADD31R,0.03150X0.03150*%
%ADD32R,0.02362X0.03543*%
%ADD33R,0.03150X0.03150*%
%ADD34R,0.06299X0.03543*%
%ADD35R,0.07874X0.14173*%
%ADD36R,0.04685X0.05787*%
%ADD37R,0.19685X0.07480*%
%ADD38R,0.02756X0.06693*%
%ADD39R,0.05118X0.03543*%
%ADD40R,0.01181X0.05709*%
%ADD41R,0.05709X0.01181*%
%ADD42R,0.02953X0.05512*%
%ADD43R,0.01181X0.05512*%
%ADD44R,0.05512X0.01181*%
D17*
X0112102Y0226953D02*
D03*
Y0224394D02*
D03*
Y0219276D02*
D03*
Y0221835D02*
D03*
Y0229512D02*
D03*
D18*
X0100881Y0220358D02*
D03*
Y0228429D02*
D03*
D19*
X0111216Y0211795D02*
D03*
Y0236992D02*
D03*
D20*
X0121261Y0270654D02*
D03*
Y0274394D02*
D03*
Y0278134D02*
D03*
X0110435D02*
D03*
Y0274394D02*
D03*
Y0270654D02*
D03*
X0328539Y0146638D02*
D03*
Y0154118D02*
D03*
X0319090Y0146638D02*
D03*
Y0150378D02*
D03*
Y0154118D02*
D03*
D21*
X0159641Y0227543D02*
D03*
X0161609D02*
D03*
X0163578D02*
D03*
X0165547D02*
D03*
X0167515D02*
D03*
X0169483D02*
D03*
X0171452D02*
D03*
Y0208646D02*
D03*
X0169483D02*
D03*
X0167515D02*
D03*
X0165547D02*
D03*
X0163578D02*
D03*
X0161609D02*
D03*
X0159641D02*
D03*
D22*
X0174995Y0224000D02*
D03*
Y0222031D02*
D03*
Y0220063D02*
D03*
Y0218094D02*
D03*
Y0216126D02*
D03*
Y0214158D02*
D03*
Y0212189D02*
D03*
X0156098D02*
D03*
Y0214158D02*
D03*
Y0216126D02*
D03*
Y0218094D02*
D03*
Y0220063D02*
D03*
Y0222031D02*
D03*
Y0224000D02*
D03*
D23*
X0165547Y0218094D02*
D03*
D24*
X0162003Y0293468D02*
D03*
Y0288469D02*
D03*
Y0283469D02*
D03*
Y0278468D02*
D03*
Y0273468D02*
D03*
Y0268468D02*
D03*
Y0263469D02*
D03*
Y0258469D02*
D03*
X0225783Y0293468D02*
D03*
Y0288469D02*
D03*
Y0283469D02*
D03*
Y0278468D02*
D03*
Y0273468D02*
D03*
Y0268468D02*
D03*
Y0263469D02*
D03*
Y0258469D02*
D03*
D25*
X0422938Y0294112D02*
D03*
X0426678D02*
D03*
X0430418D02*
D03*
Y0304939D02*
D03*
X0426678D02*
D03*
X0422938D02*
D03*
X0438638Y0294212D02*
D03*
X0442378D02*
D03*
X0446118D02*
D03*
Y0305039D02*
D03*
X0442378D02*
D03*
X0438638D02*
D03*
X0476018Y0154712D02*
D03*
X0468538D02*
D03*
Y0165539D02*
D03*
X0472278D02*
D03*
X0476018D02*
D03*
D26*
X0127702Y0226654D02*
D03*
Y0222913D02*
D03*
Y0219173D02*
D03*
X0138529D02*
D03*
Y0222913D02*
D03*
Y0226654D02*
D03*
X0270935Y0157690D02*
D03*
Y0150209D02*
D03*
X0260108D02*
D03*
Y0153950D02*
D03*
Y0157690D02*
D03*
X0270591Y0190065D02*
D03*
Y0182585D02*
D03*
X0259765D02*
D03*
Y0186325D02*
D03*
Y0190065D02*
D03*
D27*
X0271978Y0253725D02*
D03*
Y0270654D02*
D03*
D28*
X0491328Y0130925D02*
D03*
X0495028D02*
D03*
X0491028Y0182525D02*
D03*
X0494728D02*
D03*
X0491277Y0165625D02*
D03*
X0494978D02*
D03*
X0491028Y0216625D02*
D03*
X0494728D02*
D03*
X0491278Y0148325D02*
D03*
X0494979D02*
D03*
X0491028Y0250425D02*
D03*
X0494728D02*
D03*
X0491178Y0233525D02*
D03*
X0494879D02*
D03*
X0490928Y0284125D02*
D03*
X0494628D02*
D03*
X0491128Y0267325D02*
D03*
X0494828D02*
D03*
X0490928Y0317925D02*
D03*
X0494628D02*
D03*
X0490977Y0301125D02*
D03*
X0494678D02*
D03*
X0491075Y0199425D02*
D03*
X0494776D02*
D03*
D29*
X0507909Y0124925D02*
D03*
X0511846D02*
D03*
X0507678Y0176425D02*
D03*
X0511615D02*
D03*
X0507778Y0159625D02*
D03*
X0511715D02*
D03*
X0507678Y0210525D02*
D03*
X0511615D02*
D03*
X0507778Y0142325D02*
D03*
X0511715D02*
D03*
X0507678Y0244325D02*
D03*
X0511615D02*
D03*
X0507678Y0227525D02*
D03*
X0511615D02*
D03*
X0507478Y0278025D02*
D03*
X0511415D02*
D03*
X0507778Y0261325D02*
D03*
X0511715D02*
D03*
X0507610Y0311825D02*
D03*
X0511547D02*
D03*
X0507678Y0295125D02*
D03*
X0511615D02*
D03*
X0507657Y0193325D02*
D03*
X0511594D02*
D03*
D30*
X0251721Y0136902D02*
D03*
Y0130997D02*
D03*
X0153342Y0243672D02*
D03*
Y0249578D02*
D03*
X0123814Y0301756D02*
D03*
Y0307661D02*
D03*
X0163972Y0199725D02*
D03*
Y0193820D02*
D03*
X0103342Y0292701D02*
D03*
Y0286795D02*
D03*
X0131295Y0301362D02*
D03*
Y0307268D02*
D03*
X0102365Y0301756D02*
D03*
Y0307661D02*
D03*
X0110270Y0292701D02*
D03*
Y0286795D02*
D03*
X0118153Y0286795D02*
D03*
Y0292700D02*
D03*
X0330178Y0166872D02*
D03*
Y0172778D02*
D03*
X0322678Y0180972D02*
D03*
Y0186878D02*
D03*
X0100588Y0196076D02*
D03*
Y0201981D02*
D03*
X0116727Y0307662D02*
D03*
Y0301756D02*
D03*
X0109444Y0307661D02*
D03*
Y0301756D02*
D03*
X0485278Y0312072D02*
D03*
Y0317978D02*
D03*
X0485325Y0193525D02*
D03*
Y0199431D02*
D03*
X0485278Y0278272D02*
D03*
Y0284178D02*
D03*
X0485378Y0244472D02*
D03*
Y0250378D02*
D03*
Y0210672D02*
D03*
Y0216578D02*
D03*
Y0176573D02*
D03*
Y0182478D02*
D03*
X0485278Y0295120D02*
D03*
Y0301025D02*
D03*
X0485478Y0261372D02*
D03*
Y0267278D02*
D03*
Y0227572D02*
D03*
Y0233478D02*
D03*
X0485578Y0142373D02*
D03*
Y0148278D02*
D03*
Y0165578D02*
D03*
Y0159672D02*
D03*
X0520378Y0130878D02*
D03*
Y0124972D02*
D03*
X0485678Y0130778D02*
D03*
Y0124872D02*
D03*
X0286078Y0175172D02*
D03*
Y0181078D02*
D03*
X0160626Y0249578D02*
D03*
Y0243672D02*
D03*
X0244121Y0130897D02*
D03*
Y0136802D02*
D03*
X0270921Y0136697D02*
D03*
Y0142602D02*
D03*
X0286421Y0142697D02*
D03*
Y0148602D02*
D03*
X0415578Y0304872D02*
D03*
Y0310778D02*
D03*
X0260578Y0237325D02*
D03*
Y0231420D02*
D03*
X0267578D02*
D03*
Y0237325D02*
D03*
X0253578Y0231420D02*
D03*
Y0237325D02*
D03*
X0246578D02*
D03*
Y0231420D02*
D03*
X0341578Y0322678D02*
D03*
Y0316772D02*
D03*
X0322778Y0322778D02*
D03*
Y0316872D02*
D03*
X0443178Y0262378D02*
D03*
Y0256472D02*
D03*
X0451478Y0250578D02*
D03*
Y0244672D02*
D03*
D31*
X0153342Y0299591D02*
D03*
Y0305496D02*
D03*
X0109444Y0314051D02*
D03*
Y0320350D02*
D03*
X0116728Y0314051D02*
D03*
Y0320350D02*
D03*
X0123814Y0314051D02*
D03*
Y0320350D02*
D03*
X0237987Y0170023D02*
D03*
Y0175929D02*
D03*
X0245074Y0169366D02*
D03*
Y0163461D02*
D03*
X0119727Y0236795D02*
D03*
Y0242701D02*
D03*
X0130901Y0314051D02*
D03*
Y0320350D02*
D03*
X0102365Y0313961D02*
D03*
Y0320260D02*
D03*
X0141532Y0210023D02*
D03*
Y0204117D02*
D03*
X0135244Y0210023D02*
D03*
Y0204117D02*
D03*
X0107673Y0196244D02*
D03*
Y0202150D02*
D03*
X0501178Y0317878D02*
D03*
Y0311972D02*
D03*
X0478178Y0317978D02*
D03*
Y0312072D02*
D03*
X0501225Y0199425D02*
D03*
Y0193520D02*
D03*
X0478225Y0199478D02*
D03*
Y0193572D02*
D03*
X0478178Y0284131D02*
D03*
Y0278225D02*
D03*
X0501178Y0284078D02*
D03*
Y0278172D02*
D03*
X0478278Y0250378D02*
D03*
Y0244472D02*
D03*
X0501278Y0250378D02*
D03*
Y0244472D02*
D03*
X0478278Y0216578D02*
D03*
Y0210672D02*
D03*
X0501278Y0216578D02*
D03*
Y0210672D02*
D03*
X0478278Y0182431D02*
D03*
Y0176525D02*
D03*
X0501278Y0182431D02*
D03*
Y0176525D02*
D03*
X0501178Y0300978D02*
D03*
Y0295072D02*
D03*
X0478178Y0301031D02*
D03*
Y0295125D02*
D03*
X0501278Y0267178D02*
D03*
Y0261272D02*
D03*
X0478278Y0267278D02*
D03*
Y0261372D02*
D03*
X0501278Y0233378D02*
D03*
Y0227472D02*
D03*
X0478278Y0233431D02*
D03*
Y0227525D02*
D03*
X0501378Y0148131D02*
D03*
Y0142225D02*
D03*
Y0165478D02*
D03*
Y0159572D02*
D03*
Y0130731D02*
D03*
Y0124825D02*
D03*
X0250578Y0184172D02*
D03*
Y0190078D02*
D03*
X0278878Y0175220D02*
D03*
Y0181125D02*
D03*
X0251521Y0151744D02*
D03*
Y0157650D02*
D03*
X0279221Y0142697D02*
D03*
Y0148602D02*
D03*
X0409578Y0184425D02*
D03*
Y0178520D02*
D03*
X0416078D02*
D03*
Y0184425D02*
D03*
X0423678Y0262778D02*
D03*
Y0256872D02*
D03*
X0408178Y0256525D02*
D03*
Y0262431D02*
D03*
X0392378Y0256372D02*
D03*
Y0262278D02*
D03*
X0451478Y0202678D02*
D03*
Y0196772D02*
D03*
X0435678Y0178520D02*
D03*
Y0184425D02*
D03*
X0323178Y0214520D02*
D03*
Y0220425D02*
D03*
X0323078Y0166873D02*
D03*
Y0172778D02*
D03*
X0333853Y0316253D02*
D03*
Y0322553D02*
D03*
X0315478Y0316526D02*
D03*
Y0322825D02*
D03*
X0260178Y0258578D02*
D03*
Y0252672D02*
D03*
Y0265720D02*
D03*
Y0271625D02*
D03*
X0270378Y0288278D02*
D03*
Y0282372D02*
D03*
X0297578Y0297278D02*
D03*
Y0291372D02*
D03*
X0290678Y0297378D02*
D03*
Y0291472D02*
D03*
X0294878Y0214472D02*
D03*
Y0220378D02*
D03*
X0301578Y0214520D02*
D03*
Y0220425D02*
D03*
X0337078Y0214472D02*
D03*
Y0220378D02*
D03*
X0330678Y0214472D02*
D03*
Y0220378D02*
D03*
X0274478Y0231472D02*
D03*
Y0237378D02*
D03*
X0281178Y0231520D02*
D03*
Y0237425D02*
D03*
X0389278Y0178572D02*
D03*
Y0184478D02*
D03*
X0395878Y0178572D02*
D03*
Y0184478D02*
D03*
X0402478Y0178572D02*
D03*
Y0184478D02*
D03*
X0430178Y0262778D02*
D03*
Y0256872D02*
D03*
X0436578Y0262778D02*
D03*
Y0256872D02*
D03*
X0422678Y0178472D02*
D03*
Y0184378D02*
D03*
X0429178Y0178472D02*
D03*
Y0184378D02*
D03*
X0371058Y0149937D02*
D03*
Y0155842D02*
D03*
X0364365Y0149937D02*
D03*
Y0155842D02*
D03*
D32*
X0173398Y0244472D02*
D03*
X0167492D02*
D03*
X0148617Y0188625D02*
D03*
X0154523D02*
D03*
X0144090Y0300772D02*
D03*
X0138184D02*
D03*
X0154523Y0181874D02*
D03*
X0148617D02*
D03*
X0121995Y0262125D02*
D03*
X0127901D02*
D03*
X0131885Y0286992D02*
D03*
X0125979D02*
D03*
X0327161Y0139350D02*
D03*
X0321255D02*
D03*
X0175192Y0237087D02*
D03*
X0169287D02*
D03*
X0356531Y0155890D02*
D03*
X0350625D02*
D03*
X0446717Y0116520D02*
D03*
X0440811D02*
D03*
X0507625Y0317925D02*
D03*
X0513531D02*
D03*
X0507673Y0199425D02*
D03*
X0513578D02*
D03*
X0507625Y0284125D02*
D03*
X0513531D02*
D03*
X0507725Y0250425D02*
D03*
X0513631D02*
D03*
X0507725Y0216625D02*
D03*
X0513631D02*
D03*
X0507725Y0182525D02*
D03*
X0513631D02*
D03*
X0507673Y0301025D02*
D03*
X0513578D02*
D03*
X0507772Y0267225D02*
D03*
X0513678D02*
D03*
X0507725Y0233425D02*
D03*
X0513631D02*
D03*
X0507825Y0148225D02*
D03*
X0513731D02*
D03*
X0507825Y0165525D02*
D03*
X0513731D02*
D03*
X0507825Y0130825D02*
D03*
X0513731D02*
D03*
X0472878Y0124925D02*
D03*
X0478784D02*
D03*
X0259778Y0175225D02*
D03*
X0253872D02*
D03*
X0266325D02*
D03*
X0272231D02*
D03*
X0251774Y0144450D02*
D03*
X0245868D02*
D03*
X0436473Y0313225D02*
D03*
X0442378D02*
D03*
X0374278Y0205925D02*
D03*
X0380184D02*
D03*
X0374272Y0247925D02*
D03*
X0380178D02*
D03*
X0374325Y0226925D02*
D03*
X0380231D02*
D03*
X0374325Y0219925D02*
D03*
X0380231D02*
D03*
X0380231Y0240925D02*
D03*
X0374325D02*
D03*
X0374325Y0198925D02*
D03*
X0380231D02*
D03*
X0374372Y0233925D02*
D03*
X0380278D02*
D03*
X0374278Y0212925D02*
D03*
X0380184D02*
D03*
X0374325Y0191925D02*
D03*
X0380231D02*
D03*
X0441825Y0184325D02*
D03*
X0447731D02*
D03*
X0353531Y0259225D02*
D03*
X0347625D02*
D03*
X0380031Y0254925D02*
D03*
X0374125D02*
D03*
X0290831Y0318725D02*
D03*
X0284925D02*
D03*
D33*
X0133629Y0246400D02*
D03*
X0127724D02*
D03*
X0154720Y0203134D02*
D03*
X0148814D02*
D03*
X0154721Y0196772D02*
D03*
X0148815D02*
D03*
X0243696Y0288567D02*
D03*
X0237790D02*
D03*
X0423925Y0313225D02*
D03*
X0429831D02*
D03*
X0256885Y0200772D02*
D03*
X0250979D02*
D03*
X0277325Y0290825D02*
D03*
X0283231D02*
D03*
X0349831Y0276025D02*
D03*
X0343925D02*
D03*
X0349884Y0283325D02*
D03*
X0343978D02*
D03*
D34*
X0126176Y0209790D02*
D03*
Y0197586D02*
D03*
D35*
X0127357Y0129905D02*
D03*
X0140743D02*
D03*
D36*
X0133873Y0237779D02*
D03*
X0127141D02*
D03*
D37*
X0143105Y0147622D02*
D03*
Y0172819D02*
D03*
X0117909Y0147622D02*
D03*
Y0172819D02*
D03*
D38*
X0286128Y0190125D02*
D03*
X0279828D02*
D03*
X0286371Y0157650D02*
D03*
X0280072D02*
D03*
D39*
X0294478Y0182685D02*
D03*
Y0190165D02*
D03*
X0294821Y0150110D02*
D03*
Y0157590D02*
D03*
X0415978Y0264365D02*
D03*
Y0256885D02*
D03*
X0400178Y0264405D02*
D03*
Y0256925D02*
D03*
D40*
X0433942Y0197586D02*
D03*
X0431973D02*
D03*
X0430005D02*
D03*
X0428036D02*
D03*
X0426068D02*
D03*
X0424099D02*
D03*
X0422131D02*
D03*
X0420162D02*
D03*
X0418194D02*
D03*
X0416225D02*
D03*
X0414257D02*
D03*
X0412288D02*
D03*
X0410320D02*
D03*
X0408351D02*
D03*
X0406383D02*
D03*
X0404414D02*
D03*
Y0242665D02*
D03*
X0406383D02*
D03*
X0408351D02*
D03*
X0410320D02*
D03*
X0412288D02*
D03*
X0414257D02*
D03*
X0416225D02*
D03*
X0418194D02*
D03*
X0420162D02*
D03*
X0422131D02*
D03*
X0424099D02*
D03*
X0426068D02*
D03*
X0428036D02*
D03*
X0430005D02*
D03*
X0431973D02*
D03*
X0433942D02*
D03*
D41*
X0396639Y0205361D02*
D03*
Y0207330D02*
D03*
Y0209298D02*
D03*
Y0211267D02*
D03*
Y0213235D02*
D03*
Y0215204D02*
D03*
Y0217172D02*
D03*
Y0219141D02*
D03*
Y0221110D02*
D03*
Y0223078D02*
D03*
Y0225046D02*
D03*
Y0227015D02*
D03*
Y0228983D02*
D03*
Y0230952D02*
D03*
Y0232921D02*
D03*
Y0234889D02*
D03*
X0441717D02*
D03*
Y0232921D02*
D03*
Y0230952D02*
D03*
Y0228983D02*
D03*
Y0227015D02*
D03*
Y0225046D02*
D03*
Y0223078D02*
D03*
Y0221110D02*
D03*
Y0219141D02*
D03*
Y0217172D02*
D03*
Y0215204D02*
D03*
Y0213235D02*
D03*
Y0211267D02*
D03*
Y0209298D02*
D03*
Y0207330D02*
D03*
Y0205361D02*
D03*
D42*
X0283178Y0282425D02*
D03*
X0277469D02*
D03*
D43*
X0297614Y0278766D02*
D03*
X0299583D02*
D03*
X0301551D02*
D03*
X0303520D02*
D03*
X0305488D02*
D03*
X0307457D02*
D03*
X0309425D02*
D03*
X0311394D02*
D03*
X0313362D02*
D03*
X0315331D02*
D03*
X0317299D02*
D03*
X0319268D02*
D03*
X0321236D02*
D03*
X0323205D02*
D03*
X0325173D02*
D03*
X0327142D02*
D03*
Y0233884D02*
D03*
X0325173D02*
D03*
X0323205D02*
D03*
X0321236D02*
D03*
X0319268D02*
D03*
X0317299D02*
D03*
X0315331D02*
D03*
X0313362D02*
D03*
X0311394D02*
D03*
X0309425D02*
D03*
X0307457D02*
D03*
X0305488D02*
D03*
X0303520D02*
D03*
X0301551D02*
D03*
X0299583D02*
D03*
X0297614D02*
D03*
D44*
X0334819Y0271089D02*
D03*
Y0269121D02*
D03*
Y0267152D02*
D03*
Y0265183D02*
D03*
Y0263215D02*
D03*
Y0261246D02*
D03*
Y0259278D02*
D03*
Y0257310D02*
D03*
Y0255341D02*
D03*
Y0253372D02*
D03*
Y0251404D02*
D03*
Y0249435D02*
D03*
Y0247467D02*
D03*
Y0245498D02*
D03*
Y0243530D02*
D03*
Y0241561D02*
D03*
X0289937D02*
D03*
Y0243530D02*
D03*
Y0245498D02*
D03*
Y0247467D02*
D03*
Y0249435D02*
D03*
Y0251404D02*
D03*
Y0253372D02*
D03*
Y0255341D02*
D03*
Y0257310D02*
D03*
Y0259278D02*
D03*
Y0261246D02*
D03*
Y0263215D02*
D03*
Y0265183D02*
D03*
Y0267152D02*
D03*
Y0269121D02*
D03*
Y0271089D02*
D03*
M02*
