G04*
G04 #@! TF.GenerationSoftware,Altium Limited,Altium Designer,18.1.9 (240)*
G04*
G04 Layer_Color=16711935*
%FSAX25Y25*%
%MOIN*%
G70*
G01*
G75*
%ADD75R,0.00800X0.00800*%
%ADD76O,0.07099X0.04737*%
%ADD77C,0.15800*%
%ADD78C,0.05500*%
%ADD79C,0.05524*%
%ADD80R,0.06706X0.06706*%
%ADD81C,0.24422*%
%ADD82C,0.06706*%
%ADD83R,0.06706X0.06706*%
%ADD84C,0.08268*%
%ADD85C,0.06693*%
%ADD86C,0.02769*%
D75*
X0110135Y0216433D02*
D03*
Y0232378D02*
D03*
D76*
X0101671Y0213075D02*
D03*
Y0235713D02*
D03*
D77*
X0542200Y0154631D02*
D03*
Y0285731D02*
D03*
D78*
X0547200Y0187819D02*
D03*
Y0198606D02*
D03*
Y0209394D02*
D03*
Y0220181D02*
D03*
Y0230968D02*
D03*
Y0241756D02*
D03*
Y0252543D02*
D03*
X0537200Y0182425D02*
D03*
Y0193213D02*
D03*
Y0204000D02*
D03*
Y0214787D02*
D03*
Y0225575D02*
D03*
Y0236362D02*
D03*
Y0247150D02*
D03*
Y0257937D02*
D03*
D79*
X0164917Y0166913D02*
D03*
X0174917D02*
D03*
X0204917D02*
D03*
X0214916D02*
D03*
X0224917D02*
D03*
D80*
X0252948Y0211267D02*
D03*
X0163047Y0126225D02*
D03*
X0339562Y0157302D02*
D03*
X0306578Y0190025D02*
D03*
X0306921Y0157550D02*
D03*
X0339562Y0122425D02*
D03*
X0451078Y0284125D02*
D03*
X0427778D02*
D03*
X0383578Y0321925D02*
D03*
D81*
X0567278Y0122425D02*
D03*
Y0317925D02*
D03*
X0213578D02*
D03*
Y0122425D02*
D03*
D82*
X0171846Y0188961D02*
D03*
X0172239Y0198409D02*
D03*
X0441078Y0284125D02*
D03*
X0417778D02*
D03*
X0373578Y0321925D02*
D03*
X0363578D02*
D03*
X0353578D02*
D03*
X0148224Y0267937D02*
D03*
Y0277937D02*
D03*
Y0287937D02*
D03*
D83*
Y0257937D02*
D03*
D84*
X0246778Y0308925D02*
D03*
X0274337D02*
D03*
D85*
X0251699Y0318728D02*
D03*
X0269416D02*
D03*
D86*
X0165547Y0218094D02*
D03*
X0163047Y0220595D02*
D03*
X0168046Y0215595D02*
D03*
Y0220595D02*
D03*
X0163047Y0215595D02*
D03*
M02*
